<svg xmlns="http://www.w3.org/2000/svg" xml:space="preserve" width="24" height="24" viewBox="0 0 65 65">
  <circle cx="51.27" cy="8.68" r="1.25"/>
  <path fill="currentcolor" d="M58.24 5.24c-.79-2-2.62-4.43-6.88-4.68h-.18c-4.26.25-6.1 2.69-6.88 4.68-2.27 5.74 1.26 15.72 4.98 20.54-3.15 2.39-13.78 4.19-21.74 5.54-14.14 2.4-21.51 3.83-21.51 7.87 0 4.03 7.08 5.44 18.64 7.42 5.14.87 15.84 2.7 16.15 4.46-.3 1.75-11 3.58-16.15 4.46C13.1 57.5 6.03 58.9 6.03 62.94a1.5 1.5 0 1 0 3 0c.3-1.75 11-3.58 16.14-4.46 11.56-1.97 18.65-3.38 18.65-7.41s-7.09-5.45-18.65-7.42c-5.14-.88-15.84-2.7-16.15-4.41.72-1.86 12.18-3.8 19.02-4.96 13.08-2.22 21.89-3.96 24.35-7.46 4-4.25 8.3-15.4 5.85-21.58zm-6.97 7.69a4.25 4.25 0 1 1 .01-8.5 4.25 4.25 0 0 1 0 8.5z"/>
</svg>