<svg xmlns="http://www.w3.org/2000/svg" version="1.1" xmlns:xlink="http://www.w3.org/1999/xlink" xmlns:svgjs="http://svgjs.dev/svgjs" width="320" height="320"><svg width="320" height="320" viewBox="0 0 320 320" fill="none" xmlns="http://www.w3.org/2000/svg">
<rect width="320" height="320" rx="64" fill="#192A01"></rect>
<path d="M51.1932 225V199.432L100.028 159.034C103.267 156.349 106.037 153.835 108.338 151.491C110.682 149.105 112.472 146.655 113.707 144.141C114.986 141.626 115.625 138.835 115.625 135.767C115.625 132.401 114.901 129.524 113.452 127.138C112.045 124.751 110.085 122.919 107.571 121.641C105.057 120.32 102.159 119.659 98.8778 119.659C95.5966 119.659 92.6989 120.32 90.1847 121.641C87.7131 122.962 85.7955 124.901 84.4318 127.457C83.0682 130.014 82.3864 133.125 82.3864 136.79H48.6364C48.6364 127.585 50.7031 119.659 54.8366 113.011C58.9702 106.364 64.8082 101.25 72.3509 97.6705C79.8935 94.0909 88.7358 92.3011 98.8778 92.3011C109.361 92.3011 118.438 93.9844 126.108 97.3509C133.821 100.675 139.766 105.362 143.942 111.413C148.161 117.464 150.27 124.56 150.27 132.699C150.27 137.727 149.226 142.734 147.138 147.72C145.05 152.663 141.3 158.139 135.888 164.148C130.476 170.156 122.784 177.315 112.812 185.625L100.54 195.852V196.619H151.676V225H51.1932ZM217.975 226.79C207.918 226.79 198.991 225.021 191.192 221.484C183.437 217.905 177.322 212.983 172.847 206.719C168.415 200.455 166.157 193.253 166.072 185.114H200.589C200.717 189.631 202.464 193.232 205.83 195.916C209.239 198.601 213.288 199.943 217.975 199.943C221.597 199.943 224.793 199.176 227.563 197.642C230.333 196.065 232.506 193.849 234.083 190.994C235.66 188.139 236.427 184.815 236.384 181.023C236.427 177.188 235.66 173.864 234.083 171.051C232.506 168.196 230.333 166.001 227.563 164.467C224.793 162.891 221.597 162.102 217.975 162.102C214.225 162.102 210.752 163.018 207.556 164.851C204.403 166.641 202.08 169.134 200.589 172.33L169.396 166.193L174.509 94.0909H262.464V122.472H203.657L201.1 151.364H201.867C203.913 147.401 207.45 144.119 212.478 141.52C217.506 138.878 223.344 137.557 229.992 137.557C237.79 137.557 244.737 139.368 250.83 142.99C256.967 146.612 261.803 151.619 265.34 158.011C268.92 164.361 270.688 171.69 270.646 180C270.688 189.119 268.515 197.216 264.126 204.29C259.779 211.321 253.664 216.839 245.781 220.845C237.897 224.808 228.629 226.79 217.975 226.79Z" fill="#C99D55"></path>
</svg><style>@media (prefers-color-scheme: light) { :root { filter: none; } }
@media (prefers-color-scheme: dark) { :root { filter: none; } }
</style></svg>