<svg width="320" height="320" viewBox="0 0 320 320" fill="none" xmlns="http://www.w3.org/2000/svg">
<rect width="320" height="320" rx="64" fill="#192A01"/>
<path d="M49.6932 225V199.432L98.5284 159.034C101.767 156.349 104.537 153.835 106.838 151.491C109.182 149.105 110.972 146.655 112.207 144.141C113.486 141.626 114.125 138.835 114.125 135.767C114.125 132.401 113.401 129.524 111.952 127.138C110.545 124.751 108.585 122.919 106.071 121.641C103.557 120.32 100.659 119.659 97.3778 119.659C94.0966 119.659 91.1989 120.32 88.6847 121.641C86.2131 122.962 84.2955 124.901 82.9318 127.457C81.5682 130.014 80.8864 133.125 80.8864 136.79H47.1364C47.1364 127.585 49.2031 119.659 53.3366 113.011C57.4702 106.364 63.3082 101.25 70.8509 97.6705C78.3935 94.0909 87.2358 92.3011 97.3778 92.3011C107.861 92.3011 116.938 93.9844 124.608 97.3509C132.321 100.675 138.266 105.362 142.442 111.413C146.661 117.464 148.77 124.56 148.77 132.699C148.77 137.727 147.726 142.734 145.638 147.72C143.55 152.663 139.8 158.139 134.388 164.148C128.976 170.156 121.284 177.315 111.312 185.625L99.0398 195.852V196.619H150.176V225H49.6932ZM159.969 204.545V176.932L212.64 94.0909H237.697V130.909H223.379L194.998 175.909V176.932H272.725V204.545H159.969ZM223.634 225V196.108L224.401 184.091V94.0909H257.64V225H223.634Z" fill="#C99D55"/>
</svg>
