<?xml version="1.0" standalone="no"?>
<!DOCTYPE svg PUBLIC "-//W3C//DTD SVG 20010904//EN"
 "http://www.w3.org/TR/2001/REC-SVG-20010904/DTD/svg10.dtd">
<svg version="1.0" xmlns="http://www.w3.org/2000/svg"
 width="700.000000pt" height="700.000000pt" viewBox="0 0 700.000000 700.000000"
 preserveAspectRatio="xMidYMid meet">
<metadata>
Created by potrace 1.14, written by Peter Selinger 2001-2017
</metadata>
<g transform="translate(0.000000,700.000000) scale(0.100000,-0.100000)"
fill="#000000" stroke="none">
<path d="M1230 6989 c-232 -27 -499 -137 -687 -282 -86 -66 -216 -202 -282
-294 -111 -155 -189 -334 -233 -536 l-23 -102 0 -2275 0 -2275 23 -102 c62
-280 183 -507 374 -702 231 -234 530 -378 855 -411 76 -8 770 -10 2318 -8
l2210 4 97 22 c564 130 966 533 1090 1095 l23 102 0 2275 0 2275 -23 102 c-63
286 -189 518 -387 714 -197 195 -420 316 -703 381 l-97 22 -2240 2 c-1235 1
-2274 -2 -2315 -7z m1224 -2034 c432 -78 728 -326 801 -673 19 -86 19 -268 1
-354 -65 -303 -275 -550 -948 -1112 -65 -54 -118 -102 -118 -107 0 -5 240 -10
558 -11 l557 -3 3 -307 2 -308 -1100 0 -1100 0 0 278 0 279 568 468 c581 481
723 609 779 705 60 103 78 227 47 330 -30 101 -83 162 -184 209 -49 23 -67 26
-170 26 -97 0 -122 -3 -162 -22 -107 -49 -181 -157 -194 -282 l-7 -61 -365 0
-365 0 6 103 c27 462 379 796 905 857 107 12 380 4 486 -15z m2561 0 c280 -50
526 -192 660 -380 89 -125 124 -227 132 -377 7 -126 -6 -207 -47 -293 -77
-160 -267 -289 -475 -322 -78 -13 -66 -34 30 -50 269 -46 458 -170 547 -359
59 -125 73 -318 33 -464 -58 -218 -230 -406 -480 -526 -212 -102 -387 -137
-680 -138 -215 0 -299 11 -465 60 -301 91 -545 295 -645 541 -28 70 -55 195
-55 258 l0 45 390 0 390 0 0 -28 c0 -40 46 -127 83 -158 52 -44 146 -83 228
-94 223 -31 411 79 435 253 20 147 -59 255 -232 313 -72 24 -97 27 -281 32
l-203 5 0 263 0 264 183 0 c197 0 257 9 345 54 225 114 205 416 -34 506 -51
19 -73 21 -159 18 -124 -6 -196 -31 -259 -92 -51 -51 -74 -91 -84 -149 l-8
-42 -372 -3 -373 -2 5 32 c3 18 8 58 11 88 9 78 32 154 72 235 46 92 86 146
170 226 174 168 414 271 708 303 79 8 342 -3 430 -19z"/>
</g>
</svg>
