<svg xmlns="http://www.w3.org/2000/svg" viewBox="0 0 300 300">
  <path fill="#00000033" d="M123.43 247.96c-3.39-4.9-12.28-7.13-19.12-7.13-2.1 0-4.05.2-5.8.57-6.43 1.39-11.92 2.63-16.75 3.73-12.96 2.94-20.78 4.72-27.28 4.72-5.41 0-10.05-1.21-16.55-4.31a154.95 154.95 0 0 1-15.75-8.8c-6.27-3.89-10.42-6.45-16.09-6.45-1.85 0-3.85.29-6.09.87v.48c2.25-.6 4.25-.88 6.1-.88 5.53 0 9.63 2.53 15.83 6.38 4 2.48 9 5.57 15.8 8.82 6.56 3.13 11.26 4.35 16.75 4.35 6.55 0 14.4-1.78 27.38-4.72 4.84-1.1 10.32-2.35 16.75-3.73 1.71-.37 3.63-.56 5.7-.56 6.72 0 15.45 2.17 18.73 6.92 1.45 2.1 1.7 4.48.7 7.09-1.95 5.2-11.12 9.79-19.21 13.84-4.89 2.45-9.5 4.76-11.88 6.9-6.94 6.28-5.28 14.78-2.46 23.95h.49c-2.8-9.07-4.49-17.48 2.28-23.6 2.33-2.1 6.92-4.4 11.78-6.83 8.16-4.1 17.42-8.73 19.44-14.1 1.04-2.75.79-5.28-.75-7.51M2.12 194.6c.94-20.56 14.05-35.55 24.59-47.6l.74-.85c1.23-1.29 4.05-4.73 3.82-8.88-.13-2.53-1.38-4.82-3.72-6.8l-3.93-3.37c-5.45-4.67-9.75-8.37-16.43-13-2.44-1.7-4.84-3.3-7.19-4.8v.23c2.3 1.49 4.67 3.07 7.08 4.73 6.67 4.63 10.97 8.32 16.41 13l3.93 3.36c2.3 1.94 3.52 4.18 3.65 6.66.22 4.08-2.56 7.46-3.76 8.73l-.75.86C16 158.94 2.86 173.96 1.91 194.6c-.1 2.2-.96 3.54-1.92 4v.24c1.04-.43 2-1.8 2.12-4.23m116.77 84.58a4.6 4.6 0 0 0-3.39-1.33c-4.19 0-9.43 4.15-11.18 6.04-6.44 6.96-7.18 10.86-5.9 16.11h.36c-1.28-5.18-.56-9.02 5.79-15.89 1.71-1.85 6.85-5.92 10.93-5.92 1.28 0 2.34.4 3.15 1.22 1.4 1.4 2.09 3.99 2.07 7.7-.02 4.5-.8 8.67-1.78 12.89h.34c.99-4.21 1.75-8.37 1.78-12.89.01-3.8-.72-6.47-2.17-7.93M6.78 194.82c.87-18.94 13.38-33.25 23.44-44.75l.75-.85a77.87 77.87 0 0 0 5.09-6.37c1.56-2.23 4.47-6.4-2.4-13.04A191.51 191.51 0 0 0 0 103.84v.23c3.1 1.9 6.36 4.01 9.73 6.36a191.2 191.2 0 0 1 23.79 19.53c6.75 6.51 3.9 10.59 2.37 12.78a77.25 77.25 0 0 1-5.07 6.34l-.75.86c-10.08 11.53-22.61 25.86-23.5 44.87-.4 8.81-1.96 13.94-4.92 16.14-.58.43-1.13.67-1.65.73v.2c.56-.06 1.14-.3 1.77-.77 3-2.24 4.6-7.42 5-16.3M88.16 59.4c-1.3-5.12-11.75-6.48-23.85-8.07-3-.39-6.08-.8-9.09-1.27-13.27-2.1-25.42-8.75-37.17-15.2C12.16 31.63 6.15 28.33 0 25.62v.51c6.07 2.69 12 5.94 17.82 9.13 11.78 6.46 23.97 13.15 37.32 15.25 3 .48 6.1.88 9.1 1.27 11.44 1.5 22.24 2.92 23.46 7.73.95 3.74-3.93 9.43-14.92 17.38-15.42 11.15-28.36 16.34-40.72 16.34a45.12 45.12 0 0 1-20.7-5.18A79.37 79.37 0 0 1 0 80.68v.58a78.56 78.56 0 0 0 11.15 7.2 45.58 45.58 0 0 0 20.91 5.23c12.47 0 25.49-5.22 41-16.43 11.3-8.18 16.1-13.86 15.1-17.87M1.72 164.62c1.8-3.16 4.12-6.03 6.38-8.8 3.25-4 6.6-8.13 8.41-13.21 3.2-8.96-3.06-13.1-9.67-17.48-.61-.4-1.23-.8-1.84-1.23a113.43 113.43 0 0 1-5-3.48l-.01.25c.7.52 1.28.93 1.76 1.26l3.14 2.14c.61.42 1.22.82 1.84 1.23 6.54 4.34 12.73 8.43 9.6 17.24-1.8 5.05-5.15 9.17-8.39 13.16-2.26 2.77-4.59 5.65-6.4 8.82-.54.95-1.03 2.19-1.55 3.5v.54l.16-.4a29.9 29.9 0 0 1 1.57-3.54m209.19 115.63c-.26-2.25-1.68-4.2-4.22-5.8-4.6-2.9-14.2-4.2-21.7-4.2-1.46 0-2.8.05-3.98.15a122.2 122.2 0 0 0-26.8 5.5c-13.93 4.62-21.98 11.93-25.85 24.1h.35c3.85-12 11.83-19.22 25.6-23.79a121.86 121.86 0 0 1 26.73-5.48c1.17-.1 2.5-.14 3.95-.14 7.44 0 16.98 1.28 21.52 4.13 2.46 1.55 3.82 3.42 4.07 5.57.61 5.4-5.7 11.75-10.76 16.84a152.33 152.33 0 0 0-2.8 2.87h.46c.78-.82 1.65-1.7 2.58-2.63 5.12-5.15 11.48-11.55 10.85-17.12M83.59 263.3a6.26 6.26 0 0 1 3.4-.77c.5 0 1.02.02 1.56.05.53.02 1.1.05 1.64.05 1.25 0 2.86-.12 4.33-1.03 3.8-2.35 5.05-5.07 4.6-6.61-.28-1.02-1.27-1.6-2.7-1.6-1.27 0-2.88.46-4.67 1.32a13.3 13.3 0 0 0-3.16 2.49c-1.2 1.15-2.44 2.34-3.87 2.73-.44.13-.87.18-1.32.18-.9 0-1.7-.23-2.56-.47-.85-.24-1.72-.5-2.68-.5-.33 0-.67.04-1 .1-1.69.31-2.84 1.39-3.96 2.42a9.3 9.3 0 0 1-3.17 2.2c-1.43.5-3.37.75-5.94.75-3.33 0-7.03-.42-10-.76l-2.35-.25c-6.17-.62-12.59-2.56-19.61-5.91a166.48 166.48 0 0 1-17.05-9.5 13.43 13.43 0 0 0-7.1-2.18c-3.02 0-5.7 1.15-7.98 2.91v.25a12.8 12.8 0 0 1 7.98-2.96c2.34 0 4.7.72 7 2.15 4.29 2.65 9.61 5.95 17.06 9.5 7.05 3.38 13.49 5.31 19.68 5.94l2.35.25c2.97.34 6.68.76 10.02.76 2.6 0 4.56-.25 6.01-.76 1.3-.45 2.29-1.36 3.23-2.24 1.15-1.06 2.24-2.07 3.87-2.38.32-.06.64-.08.96-.08.93 0 1.8.24 2.62.48.83.24 1.69.48 2.62.48.47 0 .92-.06 1.38-.18 1.47-.4 2.73-1.62 3.95-2.79.98-.94 2-1.91 3.1-2.45a11.2 11.2 0 0 1 4.6-1.3c1.35 0 2.24.52 2.5 1.46.42 1.46-.81 4.09-4.51 6.38-1.43.88-3.01 1-4.23 1-.54 0-1.1-.03-1.63-.05-.52-.03-1.06-.05-1.57-.05-1.1 0-2.38.1-3.5.8-1.24.77-2.18 2.73-3.09 4.63-.54 1.14-1.06 2.22-1.61 2.97-4.56 6.22-4.84 12.9-3.86 21.04.34 2.8.9 5.55 1.6 8.23h.2a64.77 64.77 0 0 1-1.6-8.25c-.98-8.09-.7-14.74 3.82-20.9.56-.76 1.08-1.85 1.63-3 .9-1.87 1.82-3.8 3-4.55m26.47-212.45c-.53.85-1.88.84-3.96 0l-1.47-.54c-2.68-.94-5-1.76-3.77-5.37.9-2.6 2.16-3.99 3.65-3.99 1.45 0 3.02 1.34 4.17 3.57 1.5 2.94 2.02 5.31 1.38 6.33Zm-5.55-10.23c-1.15 0-2.77.73-3.96 4.22-1.34 3.91 1.24 4.82 3.97 5.79.48.17.97.34 1.45.54a7.6 7.6 0 0 0 2.7.65c.78 0 1.34-.27 1.67-.79 1.02-1.62-.61-5.2-1.36-6.66-1.22-2.35-2.89-3.75-4.47-3.75M18.02 149.94l.9-1.07c4.3-5.04 8.73-10.26 3.69-16.5-3.9-4.83-9.79-8.82-14.98-12.33-1.08-.73-2.1-1.41-3.1-2.1l-2.64-1.9L0 114.64v.25l1.78 1.3a146.96 146.96 0 0 0 5.73 4c5.19 3.51 11.06 7.48 14.94 12.29 4.94 6.11.56 11.27-3.68 16.25l-.9 1.08c-3.73 4.44-8.5 10.38-12.26 17A70.6 70.6 0 0 0 0 179.42v.66a70.44 70.44 0 0 1 5.79-13.14c3.75-6.61 8.5-12.55 12.23-16.99m90.4 148.94c-.3-1.07-.79-1.82-1.27-2.55-.74-1.12-1.38-2.08-1.12-3.9.34-2.5 3.35-8.63 6.6-8.63h.1c1.63.06 2.66.47 3.07 1.22.75 1.37-.6 3.69-1.69 5.55a9.4 9.4 0 0 0-1.19 2.44c-.18 1.13.32 1.77.8 2.4.39.49.75.96.73 1.64-.03 1.45-.67 2.13-1.35 2.85l-.1.1h.28c.7-.73 1.34-1.44 1.37-2.94.02-.76-.38-1.28-.77-1.78-.45-.59-.93-1.2-.76-2.24.09-.53.59-1.38 1.16-2.37 1.12-1.9 2.5-4.28 1.7-5.75-.45-.82-1.51-1.26-3.24-1.32h-.1c-3.36 0-6.46 6.26-6.81 8.8-.27 1.9.42 2.94 1.15 4.04a8.3 8.3 0 0 1 1.25 2.5c.11.4.17.75.2 1.06h.2c-.03-.33-.1-.7-.2-1.12M14.21 82.47c5.07 2.6 9.37 3.8 13.55 3.8 4.37 0 8.26-1.3 12.76-2.83 2.55-.86 5.45-1.84 8.73-2.66a16.5 16.5 0 0 1 4.06-.47c.63 0 1.24.02 1.83.05.56.02 1.1.04 1.61.04 2.7 0 4.85-.64 7.2-3.82 1.6-2.14 2.2-3.8 2.72-5.26.78-2.2 1.4-3.92 4.86-6.4.89-.63 2.16-1.13 3.38-1.6 1.98-.79 3.69-1.46 3.76-2.6.05-.91-1.02-1.94-3.38-3.23-2.83-1.54-6.87-1.74-10.44-1.74-1.6 0-3.27.05-4.9.1-1.62.04-3.3.1-4.92.1-3.59 0-6.1-.26-8.16-.81-11.6-3.16-22.48-9.12-32.08-14.38A277.8 277.8 0 0 0 0 33.02v.36c4.82 2.29 9.66 4.94 14.64 7.67 9.62 5.27 20.52 11.25 32.16 14.4 2.08.57 4.62.82 8.24.82a170 170 0 0 0 4.94-.1c1.61-.04 3.29-.09 4.88-.09 3.53 0 7.52.2 10.28 1.7 2.17 1.19 3.25 2.17 3.2 2.92-.05.93-1.75 1.6-3.54 2.3-1.24.5-2.53 1-3.45 1.66-3.54 2.53-4.21 4.39-4.99 6.54a17.9 17.9 0 0 1-2.66 5.18c-2.27 3.07-4.34 3.69-6.94 3.69-.51 0-1.04-.02-1.6-.04-.59-.03-1.2-.05-1.84-.05-.97 0-2.44.05-4.14.47-3.3.83-6.2 1.81-8.76 2.67-4.47 1.52-8.34 2.82-12.65 2.82-4.12 0-8.38-1.2-13.4-3.77-4.59-2.35-8.71-5.48-12.7-8.5L0 72.4v.42l1.47 1.1c4 3.04 8.14 6.17 12.75 8.54m162.24 208.25c-.33-.14-.83-.21-1.49-.21-3.86 0-12.06 2.3-12.14 2.33-.92.26-1.83.54-2.71.83-4.54 1.5-7.9 3.52-10.33 6.33h.26c2.41-2.71 5.7-4.67 10.13-6.14.88-.29 1.79-.57 2.7-.83.09-.02 8.25-2.32 12.1-2.32.63 0 1.1.06 1.4.2 1.48.63.93 2.32-.26 6.01-.28.89-.62 1.93-.96 3.08h.2c.34-1.13.67-2.15.95-3.02 1.2-3.7 1.8-5.55.15-6.26m-9.05 6c-.93 0-2.05.18-3.33.55-.85.24-1.7.5-2.51.77a24.9 24.9 0 0 0-4.5 1.96h.7a25.52 25.52 0 0 1 3.9-1.64c.81-.27 1.65-.53 2.5-.77 1.25-.36 2.34-.54 3.24-.54 1.66 0 2.67.61 3 1.81.09.34.1.73.09 1.14h.33c.02-.44 0-.86-.1-1.23-.26-.93-1.04-2.05-3.32-2.05m20.94-11.02c-.58-1.16-2.58-1.58-6.17-1.28a108.3 108.3 0 0 0-23.53 4.82c-6.78 2.25-11.51 5.7-14.59 10.76h.24c3.05-4.96 7.73-8.35 14.4-10.57.95-.3 1.93-.61 2.93-.9 7.46-2.1 14.18-3.38 20.57-3.91.73-.06 1.4-.1 2-.1 2.25 0 3.55.42 3.97 1.27.75 1.5-1.35 4.27-3.38 6.96l-1.07 1.43a62.19 62.19 0 0 0-3.78 5.82h.23a62.07 62.07 0 0 1 4.78-7.13c2.16-2.86 4.2-5.56 3.4-7.17m6.73 3.43c3.07-2.89 4.3-5.17 3.66-6.8-.76-1.91-4.15-2.89-10.07-2.89-1.98 0-4.22.1-6.87.33a112.99 112.99 0 0 0-24.62 5.05c-8.9 2.95-14.9 7.87-18.43 15.18h.22c3.52-7.22 9.47-12.08 18.27-15a112.75 112.75 0 0 1 24.58-5.04c2.64-.21 4.88-.32 6.85-.32 5.83 0 9.16.93 9.89 2.77.6 1.54-.61 3.75-3.62 6.58-.6.56-1.19 1.11-1.68 1.6a60.43 60.43 0 0 0-5.77 6.34c-.74 1-1.44 2.03-2.12 3.07h.24c.65-1 1.33-1.98 2.04-2.95 1.48-2 3.46-4 5.75-6.31.5-.5 1.07-1.04 1.68-1.6M17.29 76.47a31.82 31.82 0 0 0 14.77 3.75c2.8 0 8.86-1.15 14.14-3.06 4.63-1.68 10.15-4.47 10.16-8.22.02-4.41-8.5-6.86-13.6-8.33-1.1-.32-2.06-.6-2.7-.82-9.12-3.3-18.18-7.48-28.5-13.14C7.64 44.5 3.8 42.4 0 40.5v.23a351.2 351.2 0 0 1 11.47 6.1C21.8 52.5 30.86 56.69 40 59.99c.64.24 1.6.51 2.71.83 5.04 1.45 13.48 3.88 13.46 8.14-.02 6.48-18.28 11.08-24.1 11.08-4.98 0-9.78-1.22-14.68-3.73-4.07-2.09-7.96-5.04-11.73-7.9-1.82-1.37-3.7-2.8-5.65-4.17v.24c1.92 1.36 3.75 2.75 5.53 4.1 3.77 2.86 7.67 5.81 11.76 7.9m2.13-4.15a27.28 27.28 0 0 0 12.64 3.24c3.7 0 8.52-1.1 10.38-3.5a4.03 4.03 0 0 0 .68-3.65c-.84-3.23-7.61-5.52-12.56-7.19-1.6-.54-2.97-1-3.82-1.4A283.52 283.52 0 0 1 9.9 51.07l-.61-.33a427.8 427.8 0 0 0-9.3-5v.22c3.01 1.56 6.08 3.24 9.2 4.95l.61.34c5.47 3 11.13 6.1 16.85 8.75.85.4 2.24.87 3.84 1.41 4.62 1.56 11.61 3.92 12.43 7.05a3.84 3.84 0 0 1-.65 3.48c-1.81 2.35-6.57 3.42-10.23 3.42-4.22 0-8.32-1.05-12.54-3.22-3.7-1.9-7.44-4.72-11.04-7.45-2.6-1.98-5.4-4.1-8.47-6.1v.24c3.02 1.98 5.78 4.07 8.35 6.02 3.61 2.73 7.34 5.57 11.07 7.47M118.32 4c.33-1.34.66-2.67.97-3.99h-.35c-.3 1.3-.62 2.6-.95 3.91a159.8 159.8 0 0 0-1.75 7.64c-1.71 8.7-3.18 20.1.62 31.18 1.55 4.5 5.4 8.17 8.81 11.41 3.03 2.89 5.64 5.38 5.4 7.48-.1.96-.8 1.82-2.14 2.61-.62.37-1.68.56-3.15.56-5.11 0-14.14-2.26-20.82-4.5-7.27-2.44-16.21-6.31-17.6-10.97-.44-1.48-.08-2.98 1.08-4.45a69.28 69.28 0 0 1 4.62-5.14c3.03-3.15 5.9-6.13 7.8-10.56 2.7-6.3 3.03-12.88.97-19.55-.5-1.61-1-3.1-1.44-4.41A67.5 67.5 0 0 1 98.78 0h-.35c.4 1.6.97 3.33 1.64 5.31.45 1.31.95 2.8 1.44 4.41a27.31 27.31 0 0 1-.96 19.32c-1.87 4.37-4.72 7.33-7.73 10.46-1.55 1.6-3.15 3.27-4.64 5.17-1.24 1.56-1.62 3.16-1.14 4.75 1.43 4.79 10.47 8.73 17.81 11.19 6.7 2.24 15.78 4.51 20.93 4.51 1.53 0 2.65-.2 3.32-.6 1.43-.86 2.19-1.8 2.3-2.87.26-2.26-2.4-4.8-5.5-7.75-3.37-3.21-7.2-6.86-8.72-11.28-3.78-11-2.32-22.35-.62-31 .51-2.6 1.15-5.16 1.76-7.63M68.2 155.2c.74 0 1.35.3 1.83.9 1.53 1.97 1.23 6.55.73 8.56-2.45 9.78-7.7 13.26-15.64 18.53-1.98 1.31-3.9 2.82-5.77 4.29-2.26 1.78-4.6 3.62-7.05 5.1-1.5.9-2.77 1.29-3.56 1.06a1.1 1.1 0 0 1-.74-.65c-.35-.77-.06-2.14.78-3.83 2.28-4.56 6.1-8.42 9.8-12.16.64-.63 1.26-1.26 1.86-1.88 4.5-4.63 8.5-8.85 11.88-13.62.28-.39.6-.91.93-1.47 1.2-2 2.86-4.73 4.8-4.83h.15Zm-5.12 4.73c-.33.55-.65 1.07-.92 1.45-3.38 4.76-7.37 8.97-11.86 13.6l-1.86 1.88c-3.7 3.75-7.54 7.63-9.84 12.2-.88 1.78-1.16 3.17-.79 4.01.17.39.46.64.87.76.17.05.36.07.57.07.82 0 1.91-.4 3.15-1.15 2.47-1.49 4.81-3.33 7.08-5.12 1.85-1.46 3.77-2.97 5.75-4.28 7.98-5.29 13.26-8.78 15.72-18.64.51-2.05.81-6.7-.77-8.73a2.43 2.43 0 0 0-2.14-.98c-2.05.1-3.73 2.9-4.96 4.93M21.5 68.22c1.33.69 5.07 1.9 7.78 1.9.97 0 1.7-.15 2.2-.47 1.05-.69 1.51-1.33 1.42-1.97-.22-1.4-3.27-2.25-5.73-2.93A18.98 18.98 0 0 1 24.8 64a287.16 287.16 0 0 1-17.1-8.9l-.62-.33c-2.4-1.32-4.76-2.6-7.08-3.84v.38c2.27 1.2 4.58 2.47 6.93 3.75l.6.34c5.54 3.04 11.27 6.18 17.13 8.9.52.24 1.4.48 2.43.77 2.24.62 5.3 1.47 5.49 2.66.07.49-.36 1.04-1.28 1.64-.43.28-1.11.42-2.01.42-2.62 0-6.36-1.2-7.63-1.86-3.33-1.7-6.88-4.4-10.33-7.01A123.17 123.17 0 0 0 0 53.02v.4c4.23 2.53 7.9 5.32 11.14 7.77 3.45 2.61 7.01 5.31 10.37 7.04m-10 126.8c.8-17.28 12.7-30.9 22.27-41.84l.75-.86c11.38-13.03 10.92-17.58 5.58-22.84a206.23 206.23 0 0 0-27.56-23.12A206.88 206.88 0 0 0 0 98.31v.39c4 2.37 8.16 5.04 12.35 7.95a205.92 205.92 0 0 1 27.53 23.07c5.18 5.12 5.6 9.57-5.6 22.4l-.75.85c-9.6 10.99-21.55 24.65-22.36 42.05-.75 16.33-6.9 21.12-11.17 22.47v.35c4.37-1.34 10.74-6.15 11.5-22.8m193.2 84.81c-1.95-4.17-9.87-5.05-16.17-5.05-2.2 0-4.6.1-7.12.32a117.53 117.53 0 0 0-25.7 5.27c-6.94 2.3-12.27 5.63-16.3 10.17a32.3 32.3 0 0 0-5.78 9.44h.2c3.87-9.52 10.98-15.79 21.94-19.42a117.41 117.41 0 0 1 25.66-5.26c2.5-.21 4.9-.32 7.1-.32 6.24 0 14.08.86 16 4.94 2.09 4.47-3.01 9.26-6.39 12.44l-1.57 1.5a57.72 57.72 0 0 0-5.32 5.82l-.22.3h.25l.13-.18c1.27-1.74 3.14-3.62 5.3-5.8l1.57-1.5c3.42-3.2 8.58-8.06 6.42-12.67M67.36 269.1c-2.96-.76-6.15-.81-9.23-.86a65.26 65.26 0 0 1-28.01-6.33 170.87 170.87 0 0 1-17.5-9.75 8.87 8.87 0 0 0-4.64-1.48c-2.79 0-5.67 1.83-7.98 4.88v.33c2.3-3.13 5.2-5 7.98-5 1.46 0 2.99.48 4.54 1.44 4.38 2.72 9.83 6.1 17.51 9.76a65.47 65.47 0 0 0 28.1 6.35c3.06.05 6.24.1 9.18.85 4.59 1.18 4.42 4.53 3.77 8.45-.77 4.69-1.42 9.33-.78 14.6.32 2.62.82 5.18 1.42 7.67h.2c-.6-2.5-1.1-5.07-1.42-7.7-.64-5.24 0-9.87.78-14.54.64-3.87.83-7.45-3.92-8.67M85.1 5.77c4.57 14.23 6.43 21.96-4.91 28.51a21.41 21.41 0 0 1-6.28 2.36c-1.96.42-4.1.63-6.39.63-21.08 0-50.03-17.62-65.59-27.08l-.53-.32L0 9.02v.4l1.22.74.53.32C17.33 19.96 46.34 37.6 67.51 37.6c2.3 0 4.48-.21 6.46-.63 2.34-.5 4.48-1.3 6.37-2.4 11.57-6.68 9.7-14.5 5.07-28.9-.59-1.83-1.2-3.73-1.75-5.67h-.35a189.6 189.6 0 0 0 1.78 5.77M58.5 3.74c.13.5.31 1.11.52 1.8.6 1.98.5 3.3-.32 3.96-.4.33-1 .5-1.77.5-3.25 0-8.67-2.91-10.45-3.86-.87-.47-1.52-.82-2.03-1.08L41.7 3.71A284.7 284.7 0 0 1 34.38 0h-.43c2.48 1.3 5.04 2.6 7.66 3.9l2.74 1.34c.5.26 1.16.6 2.03 1.07 1.8.96 7.24 3.88 10.54 3.88.82 0 1.46-.18 1.9-.53.88-.71 1.01-2.11.38-4.17-.2-.7-.4-1.3-.53-1.81-.32-1.2-.64-2.43-.94-3.68h-.2c.3 1.27.63 2.51.95 3.74m20.33 4.04c1.85 5.77 3.62 13 .85 17.76-1.37 2.37-3.77 3.93-7.13 4.65-1.51.32-3.2.48-5.02.48-19.23 0-47.15-16.99-62.16-26.12L2.6 2.88C1.74 2.36.88 1.88 0 1.43v.23c.84.43 1.67.9 2.48 1.39l2.77 1.68c15.02 9.13 42.97 26.14 62.26 26.14 1.84 0 3.54-.17 5.06-.49 3.42-.73 5.86-2.32 7.26-4.74 2.8-4.84 1.03-12.12-.83-17.92-.8-2.48-1.6-5.07-2.27-7.72h-.2C77.2 2.67 78 5.28 78.8 7.78M62.99 2.54c.12.45.3 1 .49 1.65.96 3.17 2.43 7.96 1.05 10.18-.57.9-1.44 1.49-2.6 1.75-.47.1-.99.15-1.55.15-4.87 0-12.19-3.92-16.11-6.02-.77-.41-1.42-.76-1.92-1.01l-.34-.17-1.08-.54-1.28-.63a273.5 273.5 0 0 1-15-7.9h-.4c4.73 2.7 9.88 5.42 15.3 8.08l1.3.63 1.07.54.34.17c.5.24 1.15.6 1.91 1 3.95 2.12 11.29 6.05 16.2 6.05.58 0 1.12-.05 1.6-.16a4.13 4.13 0 0 0 2.72-1.84c1.44-2.29-.04-7.13-1.02-10.34-.2-.64-.37-1.2-.49-1.65L62.53 0h-.2l.66 2.54m4.51-1.2c.95 3.55 1.93 7.23 2.03 11.02.14 4.91-1.78 7.72-5.68 8.35-.58.1-1.21.15-1.88.15-6.78 0-16.49-4.84-21.7-7.44l-1.4-.7-1.28-.63C29.48 8.12 21.96 4 15.5 0h-.38A256.02 256.02 0 0 0 37.5 12.27l1.28.63c.43.2.9.44 1.4.7 5.23 2.6 14.96 7.46 21.79 7.46a12 12 0 0 0 1.91-.15c4.02-.65 5.99-3.53 5.85-8.55-.1-3.82-1.09-7.5-2.04-11.08A304 304 0 0 1 67.36 0h-.21l.35 1.33m6.86 7.88.3.92c1.07 3.24 2.17 6.6.4 9.83a11.92 11.92 0 0 1-8.64 5.74c-.8.1-1.63.14-2.48.14-8.95 0-19.45-5.16-27.12-8.93l-1.28-.63C25.68 11.46 16.17 5.68 7.78.57L6.85 0h-.39l1.22.74c8.4 5.1 17.9 10.9 27.77 15.72l1.28.63c7.69 3.78 18.21 8.95 27.2 8.95.87 0 1.7-.05 2.5-.14a12.13 12.13 0 0 0 8.79-5.84c1.83-3.31.71-6.71-.37-10l-.3-.91A129.7 129.7 0 0 1 71.93 0h-.2c.76 3.19 1.69 6.27 2.63 9.21m-1.64 141.9c2.81 3.6 3.37 11.2 2.51 14.66-2.88 11.51-9.36 15.8-17.56 21.24l-1.24.82c-5 3.3-10.68 7.03-13.92 12.14-1.7 2.7-2.37 5.79-3.01 8.78-.63 2.92-1.28 5.94-2.91 8.52-1.17 1.84-2.52 3.72-3.73 3.72-.91 0-1.76-1.11-2.57-3.4a5.79 5.79 0 0 1-.35-2.18c.08-2.22 1.38-4.33 2.63-6.37 1.09-1.77 2.12-3.44 2.4-5.16.47-2.75-.1-5.37-.67-7.9-.7-3.14-1.35-6.1-.2-9.31 1.38-3.85 5.98-8.11 9.67-11.53 1.25-1.17 2.44-2.27 3.39-3.24 3.62-3.73 7.36-7.58 10.68-11.87.6-.78 1.29-1.86 2.01-3 2.02-3.2 4.54-7.2 7.34-7.88a5.03 5.03 0 0 1 5.54 1.96Zm-5.61-2.29c-2.93.72-5.48 4.77-7.54 8.03-.72 1.14-1.4 2.21-2 2.98-3.3 4.27-7.04 8.12-10.65 11.84-.94.97-2.13 2.06-3.38 3.22-3.72 3.45-8.35 7.74-9.75 11.67-1.19 3.3-.49 6.45.19 9.5.55 2.5 1.12 5.08.67 7.76-.28 1.67-1.3 3.3-2.36 5.04-1.28 2.08-2.6 4.23-2.68 6.54-.03.78.1 1.56.36 2.3.88 2.48 1.8 3.63 2.9 3.63 1.1 0 2.25-1.13 4-3.89 1.66-2.63 2.32-5.68 2.95-8.62.64-2.97 1.3-6.03 2.97-8.67 3.2-5.05 8.84-8.76 13.82-12.04l1.25-.82c8.26-5.47 14.78-9.8 17.7-21.44.76-3.09.56-10.93-2.57-14.95a5.36 5.36 0 0 0-5.88-2.08m3.63-6.85c.98 1.53 2.21 2.47 3.53 3.47 1.41 1.07 2.88 2.19 4.02 4.14 2.63 4.48 4.65 12.55 3.34 17.79-3.5 14-11.67 19.41-20.31 25.14-9.93 6.58-20.2 13.39-23.97 33.86-.91 4.94-2.41 7.56-4.35 7.56-3.03 0-6.71-6.3-7.86-11.73-1.98-9.4-1.33-20.6 1.95-33.3 2.18-8.41 8.4-14.55 14.43-20.5 3.14-3.08 6.38-6.28 8.99-9.74.63-.84 1.64-1.97 2.8-3.27 3.84-4.3 9.1-10.2 8.18-13.71a15.01 15.01 0 0 0-1.94-3.86c-.85-1.36-1.73-2.78-2.05-4.15-.4-1.75.23-2.06.77-2.33.3-.15.62-.3.7-.67.1-.49-.22-1.24-2.07-3.44-1.06-1.26-4.05-2.86-6.93-4.41-3.03-1.63-6.47-3.47-6.76-4.53-.65-2.42-.44-3.37-.16-3.74.16-.2.38-.3.69-.3 2.9 0 11.37 8.3 18.31 16.07l.14.14a7.8 7.8 0 0 0 3.46 1.45c1.42.3 2.66.57 4.14 2.7.7 1.02.59 2.24.46 3.54-.13 1.3-.26 2.64.49 3.82Zm-.57-7.62a6.03 6.03 0 0 0-4.43-2.9c-1-.21-2.05-.43-3.24-1.33l-.1-.11c-3.4-3.8-14.8-16.22-18.66-16.22-.46 0-.81.16-1.06.48-.51.67-.49 2.03.08 4.14.34 1.25 3.57 2.99 6.99 4.82 2.84 1.53 5.79 3.11 6.79 4.3.9 1.06 2.07 2.53 1.97 3.04-.03.14-.18.22-.45.35-.6.3-1.5.75-1.01 2.85.33 1.45 1.23 2.9 2.1 4.3.81 1.3 1.58 2.53 1.89 3.72.85 3.28-4.52 9.3-8.07 13.29a60.76 60.76 0 0 0-2.83 3.3c-2.6 3.44-5.82 6.62-8.94 9.7-6.07 5.98-12.35 12.16-14.56 20.71-3.3 12.77-3.96 24.04-1.96 33.5 1.07 5.06 4.75 12.1 8.32 12.1 2.22 0 3.84-2.67 4.8-7.93 3.74-20.28 13.93-27.03 23.77-33.56 8.73-5.78 16.97-11.24 20.52-25.42 1.33-5.35-.72-13.58-3.4-18.13-1.19-2.04-2.7-3.18-4.14-4.28-1.28-.97-2.48-1.9-3.42-3.35-.66-1.04-.54-2.25-.41-3.53.12-1.32.26-2.68-.55-3.84M0 91.07c22.48 12.72 46.7 32.96 51.12 43.02 2.65 6.05-3.77 13.27-11.9 22.4-9.24 10.4-20.74 23.32-21.45 38.83C16.89 214.23 7.52 222 0 224.35v.49c7.7-2.35 17.34-10.21 18.23-29.5.71-15.35 12.15-28.2 21.34-38.53 8.24-9.27 14.75-16.59 11.98-22.9C47.1 123.77 22.65 103.36 0 90.57v.5M113.24.04l.04-.04H113c-.42.45-.84.92-1.14 1.6-.82 1.94-.59 3.97-.36 5.93.13 1.1.26 2.22.2 3.33a37.06 37.06 0 0 1-.78 5.29c-.28 1.44-.57 2.92-.71 4.37-.85 8.82-.08 16.8 2.3 23.7.49 1.44 2.42 3.64 4.47 5.98 2.61 2.98 5.32 6.07 5.42 7.95.03.41-.08.74-.32 1-.71.75-2.6.89-5.64.4-2.2-.34-4.32-1.26-6.36-2.15-1.2-.52-2.44-1.06-3.67-1.47l-1.08-.36c-4.43-1.46-10.5-3.47-11.37-6.98-.42-1.67.4-3.58 2.41-5.68 3.19-3.31 6.48-6.73 8.7-11.92 2.14-4.98 4.6-14.67 3.66-19.91a6.73 6.73 0 0 0-1.08-2.5c-.58-.94-1.13-1.83-.88-3.43a5.7 5.7 0 0 1 1.05-2.5c.49-.73.92-1.4.8-2.65h-.2c.12 1.2-.28 1.81-.76 2.54-.42.63-.9 1.35-1.09 2.58-.26 1.67.3 2.6.9 3.56.43.69.87 1.4 1.06 2.43.93 5.2-1.51 14.84-3.64 19.8-2.21 5.16-5.5 8.56-8.66 11.86-2.07 2.15-2.9 4.13-2.47 5.87.9 3.62 7.03 5.64 11.5 7.12l1.09.36c1.22.4 2.45.95 3.65 1.46 2.05.9 4.18 1.82 6.41 2.18 1.2.19 2.22.28 3.06.28 1.37 0 2.27-.24 2.75-.75.28-.3.41-.69.38-1.16-.1-1.94-2.84-5.05-5.47-8.06-2.04-2.32-3.96-4.52-4.44-5.91-2.36-6.88-3.13-14.83-2.28-23.62.14-1.44.43-2.92.71-4.36.34-1.75.7-3.56.79-5.31a20.8 20.8 0 0 0-.21-3.36c-.24-2.03-.46-3.94.35-5.83.3-.7.75-1.18 1.18-1.64m-21.86 3.7c4.21 13.15 8.58 26.73-7.9 36.25a28.03 28.03 0 0 1-8.2 3.1c-2.41.52-5.03.78-7.77.78C45.23 43.87 17.37 27.3 0 16.75v.54c17.43 10.6 45.21 27.05 67.51 27.05 2.78 0 5.42-.27 7.86-.79a28.5 28.5 0 0 0 8.34-3.15c16.8-9.71 12.38-23.48 8.11-36.8L90.68 0h-.5l1.2 3.75M63.9 275.4c-2.42-2.25-6.05-2.44-9.25-2.6-.82-.05-1.6-.09-2.35-.16a69.78 69.78 0 0 1-24.2-6.54c-6.5-3.1-11.54-5.94-15.86-8.91a6.3 6.3 0 0 0-3.59-1.23c-2.73 0-5.3 2.14-6.88 5.73-.6 1.36-1.18 2.7-1.78 4.01v.48c.67-1.45 1.31-2.91 1.97-4.4 1.54-3.52 4.04-5.62 6.7-5.62 1.15 0 2.32.4 3.47 1.19 4.32 2.98 9.37 5.82 15.88 8.93a69.93 69.93 0 0 0 24.27 6.56c.75.07 1.53.11 2.36.15 3.16.17 6.75.36 9.13 2.55 2.75 2.55 2.36 7.38 2.02 11.64-.17 2.1-.33 4.08-.13 5.7.29 2.4.87 4.79 1.48 7.11h.2a53.68 53.68 0 0 1-1.48-7.13c-.2-1.6-.04-3.57.13-5.66.34-4.3.74-9.2-2.09-11.8m-62.3 11.57c-.6-.24-1.13-.45-1.61-.7v.22c.47.24.98.45 1.53.66l.87.36a59.99 59.99 0 0 1 10.3 5.36A185 185 0 0 0 24.25 300h.4a186.35 186.35 0 0 1-11.83-7.29 60.1 60.1 0 0 0-11.22-5.73m8.5 9.77c1.59 1.07 3.27 2.15 5.03 3.25h.38c-1.86-1.15-3.63-2.3-5.3-3.42A63.1 63.1 0 0 0 0 291.36v.21a62.7 62.7 0 0 1 10.1 5.18M6.23 138.79c-.33-2.15-1.81-4.07-4.54-5.87L0 131.79v.24l1.58 1.05c2.68 1.77 4.13 3.65 4.45 5.74.53 3.46-2.1 7.02-5.32 10.99-.22.27-.46.6-.71.95v.35c.31-.45.6-.85.86-1.17 3.26-4.01 5.91-7.61 5.37-11.15M5 298.89A46.97 46.97 0 0 0 0 296.26v.22c1.69.76 3.33 1.6 4.9 2.57.02 0 .82.5 1.56.94h.38l-1.83-1.11M45.46.66c1.25.63 2.96 1.5 4.47 1.5a2.84 2.84 0 0 0 1.75-.54c.5-.4.8-.97 1-1.62h-.34a2.81 2.81 0 0 1-.96 1.42c-.4.27-.88.4-1.45.4-1.43 0-3.1-.84-4.32-1.46l-.52-.25-.21-.11h-.76l.83.4.5.26m1.29 294.8a3.2 3.2 0 0 1-.52.03c-1.5 0-3.3-.9-4.88-1.69-.52-.25-1-.5-1.44-.68l-.66-.27c-1.5-.6-4-1.61-4.07-3.09-.01-.11.02-.2.1-.28.15-.16.54-.35 1.55-.35 1.54 0 3.61.42 4.6.62a23.09 23.09 0 0 0 1.34.23c1.75.25 4.4.64 5.28 2 .34.53.4 1.15.19 1.92-.27.92-.75 1.43-1.5 1.55Zm1.85-1.46c.25-.86.17-1.61-.23-2.23-.98-1.5-3.62-1.9-5.55-2.17l-.88-.14-.43-.08c-1-.2-3.1-.63-4.68-.63-.94 0-1.54.15-1.83.46a.74.74 0 0 0-.2.57c.08 1.73 2.73 2.79 4.3 3.42l.66.27c.42.18.9.43 1.41.68 1.63.81 3.48 1.73 5.06 1.73.2 0 .4-.02.58-.05.9-.15 1.5-.76 1.8-1.83m12.98-8.91c.32-1.96.65-3.99-.64-5.53-1.55-1.84-4.07-1.97-6.3-2.08l-.23-.01c-.79-.05-1.68-.1-2.54-.17a74.27 74.27 0 0 1-25.78-6.98c-2.54-1.21-5.03-2.6-7.45-3.93-1.32-.74-2.7-1.5-4.06-2.22l-.09-.05c-1.6-.85-3.25-1.73-4.95-1.73-.9 0-1.71.25-2.48.75-2.71 1.76-4.02 5.19-5.28 8.5A37.76 37.76 0 0 1 0 275.82v.42a34.27 34.27 0 0 0 1.97-4.52c1.25-3.29 2.54-6.68 5.2-8.42a4.22 4.22 0 0 1 2.37-.7c1.65 0 3.28.86 4.86 1.7l.09.05c1.36.72 2.73 1.48 4.06 2.21 2.41 1.34 4.91 2.73 7.46 3.94a74.48 74.48 0 0 0 25.84 7c.86.08 1.76.12 2.55.17h.23c2.19.12 4.66.25 6.15 2.02 1.24 1.47.92 3.45.6 5.37a34.14 34.14 0 0 0-.35 8.4c.28 2.26.77 4.43 1.3 6.54h.2a52.13 52.13 0 0 1-1.3-6.57c-.25-2.06-.06-4.36.12-6.6.04-.55.13-1.13.23-1.74M12.13 141.05c1.73-4.87-.01-6.83-7.86-12.03l-1.9-1.26L0 126.14v.25a571.52 571.52 0 0 0 4.16 2.8c7.74 5.13 9.46 7.05 7.78 11.79-1.53 4.29-4.48 7.92-7.61 11.77A110.27 110.27 0 0 0 0 158.33v.34c1.43-2.03 2.98-3.93 4.49-5.8 3.13-3.85 6.1-7.5 7.64-11.83m40.6 141.43c-2.11-.92-4.41-1.14-6.63-1.36-1.27-.12-2.58-.24-3.83-.5a78.32 78.32 0 0 1-18.19-6.08c-2.66-1.27-5.22-2.69-7.7-4.06-.35-.2-.76-.46-1.19-.73-1.43-.91-3.2-2.05-4.8-2.05-.6 0-1.13.16-1.58.48-1.22.85-1.79 2.56-2.3 4.08l-.36 1.05c-.22.57-.65 1.35-1.11 2.19-1.1 2-2.49 4.51-2 6.02.5 1.52 2.49 2.35 4.08 3.02l1 .43a55.12 55.12 0 0 1 7.2 4.05A205.03 205.03 0 0 0 33.94 300h.43a205.94 205.94 0 0 1-18.96-11.16 55.09 55.09 0 0 0-7.22-4.06l-1-.44c-1.56-.65-3.49-1.46-3.96-2.9-.47-1.42.88-3.88 1.97-5.86.49-.87.9-1.63 1.12-2.2.13-.33.25-.7.37-1.07.5-1.48 1.06-3.16 2.22-3.97.43-.3.92-.45 1.47-.45 1.53 0 3.29 1.12 4.7 2.01.43.28.84.55 1.2.75 2.48 1.37 5.04 2.79 7.7 4.06a78.5 78.5 0 0 0 18.24 6.1c1.26.26 2.57.38 3.85.5 2.2.21 4.49.43 6.56 1.34 3.67 1.6 3.66 4.73 3.64 8.05 0 1.1 0 2.23.12 3.31.26 2.11.66 4.09 1.12 5.99h.2c-.45-1.91-.86-3.9-1.12-6.01-.13-1.07-.12-2.2-.12-3.29.02-3.38.04-6.58-3.76-8.23m-8.93 17c-9.88-4.84-18.78-9.87-25.72-14.55-.92-.62-1.9-1.13-2.87-1.63-1.32-.68-2.7-1.4-3.86-2.38-1.58-1.34-1.99-2.66-1.32-4.27.53-1.27 1.4-1.89 2.7-1.89 2.16 0 5.04 1.75 7.14 3.03.82.5 1.54.94 2.1 1.2a83.19 83.19 0 0 0 19.33 6.47c1.5.3 2.94.44 4.33.58l.75.06c1.68.13 3.57.28 4.7 1.53 1.13 1.24 1.24 3.77 1.33 5.8.02.56.05 1.1.09 1.56l.02.25c.13 1.33.3 3.32-.17 4.77h.35c.46-1.5.28-3.47.16-4.8l-.03-.25c-.04-.46-.06-.99-.09-1.55-.09-2.08-.2-4.67-1.41-6-1.22-1.35-3.19-1.5-4.92-1.64l-.74-.07a40.75 40.75 0 0 1-4.3-.57 82.89 82.89 0 0 1-19.26-6.44c-.54-.26-1.25-.69-2.07-1.19-2.13-1.3-5.05-3.07-7.3-3.07-1.43 0-2.44.7-3.02 2.09-.72 1.75-.27 3.23 1.42 4.66 1.19 1 2.58 1.72 3.92 2.42.95.49 1.93 1 2.83 1.6 6.96 4.69 15.87 9.73 25.76 14.57l.48.24h.76l-1.1-.54M65.1 168.11c-.24 1.16-.93 2.59-1.9 3.92-1.02 1.38-3.1 3.72-5.62 3.77l-.03.17v-.17h-.12c-.24-.03-.28-.14-.3-.17-.07-.18-.05-.83 1.61-2.8l.05-.07 1.21-1.48c.62-.77 1.25-1.56 1.9-2.31l.42-.5c.62-.78 1.56-1.96 2.38-1.96.13 0 .23.05.3.15.24.3.2.96.1 1.45Zm-.39-1.93h-.04c-.95 0-1.91 1.2-2.61 2.08l-.4.49c-.67.75-1.3 1.55-1.92 2.32l-1.2 1.48-.05.06c-1.33 1.58-1.87 2.6-1.66 3.14.06.15.2.34.56.38h.2c2.66-.05 4.82-2.47 5.88-3.9 1-1.37 1.71-2.85 1.96-4.05.06-.28.22-1.24-.16-1.72a.72.72 0 0 0-.56-.28m48.25 56.35c-2.56-1.17-5.57-1.74-9.2-1.74-7.56 0-16.39 2.55-24.17 4.79-6.34 1.82-12.32 3.54-16.46 3.54-2.44 0-4.1-.59-5.06-1.8-1.16-1.46-1.35-3.84-.57-7.28 1.68-7.44 11.31-16.39 19.81-24.27 5.17-4.8 10.05-9.33 12.6-13 8.2-11.8 10.9-32.8 1.85-45.26-2.29-3.15-6.17-6.28-10.27-9.6-8.75-7.05-18.65-15.04-14.67-25.18 1.87-4.76 6.46-6.93 11.32-9.23 3.04-1.44 6.18-2.92 8.66-5.1 2.16-1.9 3.89-3.75 5.56-5.54 4.3-4.6 7.7-8.23 14.79-8.23 1.11 0 2.33.09 3.6.27 17.81 2.52 38.64 6.39 60.5 20.4 24.05 15.44 46.42 31.63 55.76 59.92 4.03 12.2 2.26 26.6-4.4 35.8-4.51 6.25-10.8 9.56-18.19 9.56-2.6 0-5.37-.42-8.2-1.24-8.84-2.56-14.43-7.8-17.1-16.05-2.38-7.38-2.26-16.46-2.15-25.24.18-14.08.36-28.64-9.6-37.07-4.75-4.03-4.87-4.1-7.62-3.42-1.2.3-2.82.7-5.57.96-2.06.2-3.53.24-4.7.28-4.02.14-4.02.14-9.84 5.4l-.07.08c-1.64 1.48-4 2.57-6.5 3.73-3.7 1.73-7.53 3.5-8.9 6.69-1.85 4.26-.18 16.46.91 21.7 1.3 6.2 5.26 11.92 8.76 16.97l.74 1.06c1.23 1.78 2.53 3.58 3.79 5.33 7.37 10.23 14.98 20.82 14.8 34.02-.12 8.53-9.46 18.61-18.16 19.6-.56.06-1.1.1-1.65.1-5.1 0-8.76-2.84-12.62-5.85-2.39-1.85-4.85-3.77-7.78-5.1Zm22.09 11.18c8.84-1 18.33-11.25 18.45-19.93.19-13.3-7.46-23.94-14.86-34.22a333.45 333.45 0 0 1-3.78-5.32l-.74-1.06c-3.48-5.02-7.43-10.7-8.71-16.85-1.1-5.2-2.75-17.31-.94-21.5 1.32-3.06 5.1-4.82 8.75-6.52 2.52-1.17 4.9-2.27 6.57-3.79l.08-.07c5.72-5.18 5.72-5.18 9.62-5.31 1.18-.05 2.65-.1 4.72-.29 2.78-.26 4.42-.67 5.62-.96a8.06 8.06 0 0 1 1.8-.33c1.2 0 2.2.86 5.53 3.67 9.84 8.33 9.65 22.81 9.47 36.81-.22 17.63-.45 35.85 19.49 41.62a30 30 0 0 0 8.3 1.25c7.5 0 13.88-3.35 18.46-9.69 6.72-9.3 8.5-23.8 4.44-36.1-9.37-28.4-31.79-44.63-55.9-60.1-21.9-14.05-42.78-17.92-60.62-20.45a26.2 26.2 0 0 0-3.65-.28c-7.24 0-10.68 3.68-15.03 8.34-1.67 1.78-3.4 3.63-5.54 5.51-2.44 2.16-5.56 3.63-8.58 5.06-4.92 2.32-9.57 4.52-11.49 9.4-4.07 10.37 5.94 18.45 14.77 25.58 4.09 3.3 7.95 6.41 10.2 9.52 8.98 12.35 6.3 33.17-1.84 44.87-2.54 3.65-7.4 8.17-12.56 12.95-8.53 7.92-18.2 16.9-19.9 24.44-.81 3.55-.6 6.03.63 7.57 1.03 1.3 2.77 1.92 5.32 1.92 4.19 0 10.2-1.73 16.55-3.55 7.77-2.24 16.57-4.77 24.08-4.77 3.58 0 6.54.56 9.06 1.7 2.9 1.32 5.34 3.22 7.71 5.07 3.91 3.04 7.6 5.9 12.83 5.9.55 0 1.12-.02 1.69-.09M300 1.43c-1-.52-2.02-1-3.06-1.43h-.54c1.23.5 2.43 1.05 3.6 1.66v-.23m-5.27 148.68-.27.41c-.29.44-.57.91-.85 1.37-1.16 1.91-2.36 3.9-3.98 3.9-.21 0-.43-.04-.65-.1a4.43 4.43 0 0 1-1.6-.98c-1.45-1.28-2.06-3.98-2.54-6.15l-.34-1.45a111.32 111.32 0 0 0-4.72-13.57c-.14-.34-.35-.8-.6-1.33-.93-1.96-2.47-5.26-1.85-6.51.5-1.01 1.25-1.5 2.3-1.5 2.87 0 7.06 3.65 9.56 5.83.66.58 1.2 1.04 1.54 1.3 1.11.8 2.18 1.59 3 2.16 8.19 5.68 5.48 9.8 1 16.62Zm-3.8-19.06c-.34-.24-.86-.7-1.53-1.27-2.53-2.22-6.78-5.92-9.77-5.92-1.17 0-2.04.57-2.6 1.69-.7 1.4.84 4.65 1.85 6.8l.6 1.31.73 1.84c1.41 3.7 2.88 7.54 3.96 11.7.12.43.23.92.34 1.44.5 2.21 1.12 4.97 2.65 6.32.6.53 1.18.88 1.72 1.04.25.08.5.12.75.12 1.81 0 3.06-2.07 4.26-4.06.28-.45.56-.92.85-1.35l.27-.41c4.59-7 7.36-11.22-1.08-17.09-.83-.57-1.89-1.34-3-2.16m5.46-7.48c-1.47-1.07-2.94-2.27-4.5-3.54-4.74-3.88-10.13-8.28-14.97-8.28a7.7 7.7 0 0 0-2.77.51c-8.55 3.23-7.32 12.27-5.83 17.37.91 3.12 2.1 6.2 3.23 9.18 1.33 3.48 2.7 7.07 3.66 10.73.57 2.2.86 4.53 1.14 6.78.86 6.9 1.68 13.41 10.88 13.41.72 0 1.51-.04 2.33-.12 1.05-.1 1.91-.27 2.64-.5 2.45-.79 3.18-2.27 4.29-4.52.33-.68.71-1.45 1.18-2.28.73-1.27 1.51-2.47 2.33-3.64v-.34a45.56 45.56 0 0 0-2.5 3.88c-.48.84-.86 1.61-1.2 2.3-1.08 2.2-1.8 3.65-4.16 4.4-.72.24-1.57.4-2.6.5-.81.08-1.6.12-2.31.12-9.03 0-9.8-6.13-10.68-13.23a53.12 53.12 0 0 0-1.15-6.81c-.96-3.67-2.33-7.27-3.66-10.75a121.97 121.97 0 0 1-3.23-9.16c-1.47-5.04-2.68-13.96 5.71-17.13.9-.34 1.77-.5 2.7-.5 4.77 0 10.13 4.38 14.85 8.23a106.73 106.73 0 0 0 7.33 5.59c.3.2.6.4.9.62v-.25l-.79-.54c-.73-.5-1.7-1.22-2.82-2.03m-5.26 148.93c-2.94 4.56-6.4 8.95-9.1 12.25-.14.19-.3.38-.47.57-1.2 1.41-2.7 3.16-1.64 4.92 1.02 1.7 3.94 2.05 6.06 2.3a49.2 49.2 0 0 1 14.02 3.95v-.22a49.42 49.42 0 0 0-12.94-3.8l-1.05-.13c-2.09-.25-4.95-.58-5.92-2.2-.98-1.64.46-3.33 1.62-4.69l.48-.57c2.7-3.31 6.16-7.7 9.1-12.27 2.61-4.06 4.45-8.26 6.4-12.7a21.2 21.2 0 0 1 2.31-4.03v-.33a21.21 21.21 0 0 0-2.49 4.28c-1.95 4.44-3.79 8.63-6.38 12.67M219.8 3.51c1.04 3.52 8.48 5.47 13.23 5.47 6.78 0 13.88-1.34 21.4-2.75 7.59-1.43 15.44-2.9 23.08-2.9 8.37 0 15.4 1.79 21.49 5.47l1 .61v-.39l-.83-.5c-6.14-3.72-13.23-5.53-21.66-5.53-7.67 0-15.54 1.48-23.15 2.91-7.5 1.41-14.59 2.74-21.33 2.74-4.74 0-11.95-1.98-12.91-5.22-.32-1.09.07-2.23 1.15-3.42h-.43c-1.02 1.2-1.38 2.38-1.04 3.51m56.23 23.11-2.56-.01-2.38-.01c-4.55 0-8.17.24-12.16 1.45-2.08.63-4.04 1.63-5.93 2.6-3.15 1.6-6.13 3.12-9.7 3.12-.6 0-1.19-.05-1.78-.13-2.63-.38-4.6-1.93-6.51-3.43-2.14-1.69-4.16-3.28-7-3.28-.26 0-.52.01-.79.04-1.75.18-4.55 1.75-7.26 3.28-1.75.98-3.4 1.9-4.56 2.33-1.7.63-2.97.93-3.9 1.15-2.8.67-3.16.92-4.52 6.08-.38 1.42-.65 2.75-.91 4.04-.98 4.79-1.76 8.57-6.86 12.18-3.44 2.43-7.8 3.61-13.35 3.61-5.5 0-11.23-1.15-16.3-2.16a87.4 87.4 0 0 0-7-1.23 46.13 46.13 0 0 0-4.46-.19c-4.9 0-10.63 1.8-11.03 4.37-.19 1.21.76 3.04 6.37 4.83l.63.2c21.38 6.86 36.3 15.81 51.47 30.9 4.18 4.15 7.38 6.1 10.06 6.1.63 0 1.24-.12 1.83-.34 2.84-1.06 4.92-4.65 7.32-8.81a87.12 87.12 0 0 1 4.31-6.93c8.06-11.34 19.61-19.64 32.54-23.34a40.3 40.3 0 0 1 11.07-1.65c11.51 0 19.64 5.63 27.33 11.44v-.42c-7.68-5.78-15.81-11.36-27.33-11.36-3.56 0-7.32.56-11.16 1.67-13 3.72-24.62 12.06-32.72 23.47-1.67 2.36-3.08 4.8-4.32 6.95-2.38 4.1-4.43 7.65-7.16 8.67-.55.2-1.12.3-1.71.3-2.59 0-5.7-1.9-9.83-6-15.21-15.12-30.16-24.09-51.6-30.96l-.63-.2c-4.2-1.35-6.38-2.93-6.14-4.47.34-2.14 5.43-4.08 10.7-4.08 1.7 0 3.35.06 4.42.18 1.84.2 4.33.7 6.97 1.22 5.09 1.02 10.84 2.18 16.37 2.17 5.61 0 10.04-1.2 13.54-3.67 5.21-3.69 6-7.52 7-12.38.26-1.28.53-2.61.9-4.03 1.36-5.14 1.64-5.2 4.27-5.83.94-.23 2.23-.53 3.94-1.16 1.2-.44 2.86-1.38 4.61-2.36 2.56-1.44 5.45-3.07 7.14-3.24.25-.03.5-.04.75-.04 2.72 0 4.7 1.56 6.8 3.2 1.93 1.54 3.94 3.12 6.66 3.5.6.1 1.22.14 1.83.14 3.65 0 6.8-1.6 9.85-3.16 1.88-.96 3.82-1.95 5.88-2.57 3.95-1.2 7.54-1.44 12.06-1.44a274.39 274.39 0 0 1 4.94.03c4.07 0 7.72.47 11.14 1.45A84.26 84.26 0 0 1 300 33.38v-.36a84.22 84.22 0 0 0-12.74-4.93 40.4 40.4 0 0 0-11.23-1.47m16.75 251.33c-2.16 2.6-4.6 5.53-4.49 8.35.09 2.16 2.19 2.53 4.04 2.85.44.08.86.15 1.26.25 1.9.45 4.14 1.24 6.41 2.17v-.21a45.6 45.6 0 0 0-6.36-2.16c-.4-.1-.83-.17-1.28-.24-1.86-.33-3.79-.66-3.87-2.67-.11-2.74 2.3-5.64 4.44-8.2a32.46 32.46 0 0 0 2.29-2.96 71.06 71.06 0 0 0 4.78-8.94v-.48a72.22 72.22 0 0 1-4.95 9.31c-.57.9-1.4 1.88-2.27 2.94m3.77-148.52c-.77-.54-1.82-1.3-2.91-2.1-1.57-1.15-3.08-2.38-4.7-3.7l-1.17-.99c-2.69-2.27-6.37-5.4-9.75-5.4-.94 0-1.8.25-2.58.73-5.85 3.62-2.33 12.26-.23 17.42.26.63.5 1.22.7 1.75 1.37 3.59 2.8 7.3 3.81 11.21.2.73.39 1.6.59 2.51.93 4.2 2.21 9.93 5.42 12a4.06 4.06 0 0 0 2.17.66c3.92 0 7.83-5.95 10.68-10.3.52-.79.99-1.5 1.42-2.12v-.35c-.48.67-1 1.47-1.58 2.36-2.83 4.31-6.71 10.22-10.52 10.22a3.65 3.65 0 0 1-2.06-.64c-3.14-2.02-4.41-7.71-5.33-11.87-.2-.92-.4-1.78-.6-2.52a107.18 107.18 0 0 0-3.81-11.24l-.7-1.75c-2.08-5.1-5.56-13.64.15-17.17.74-.46 1.57-.7 2.47-.7 3.31 0 6.96 3.1 9.62 5.36l1.19 1c1.6 1.3 3.12 2.54 4.7 3.7a169.93 169.93 0 0 0 6.12 4.28l.35.24v-.25l-.24-.16a384 384 0 0 1-3.2-2.18m-34.66 47.3c.38.5 1.09 1.18 2.87 1.32 6.66.55 16.73 1.37 25.23 9.12l.1.08a29.47 29.47 0 0 1 7.02 10c.48 1.09 1.26 1.72 2.15 1.72.24 0 .49-.05.73-.15v-.24c-.24.11-.49.19-.73.19-.8 0-1.52-.59-1.97-1.6-1.76-4-4.14-7.39-7.07-10.06l-.1-.09c-8.55-7.8-18.66-8.62-25.35-9.17-1.7-.14-2.37-.77-2.72-1.23a5.16 5.16 0 0 1-.86-3.35c.92-4.08 2.08-9.16 1.64-14.72-.73-9.4-4.49-17.49-8.12-25.3-2.92-6.28-6.23-13.4-5.08-16.63 2.04-5.77 10.4-14.05 13.9-17.33a11.14 11.14 0 0 1 7.85-3.15c1.7 0 3.18.36 4.12.66 6.13 1.97 14.81 6.5 24.49 12.72v-.23c-9.65-6.2-18.3-10.7-24.43-12.68-.95-.3-2.45-.67-4.18-.67-3.04 0-5.73 1.08-7.99 3.2-3.5 3.3-11.9 11.6-13.95 17.4-1.18 3.33 2.15 10.48 5.09 16.79 3.62 7.8 7.38 15.87 8.1 25.24.44 5.53-.71 10.59-1.64 14.66-.1.56.01 2.35.9 3.5m37.5 100.12c-1.07 1.76-2.28 3.76-2 5.93.3 2.13 1.27 3.04 2.6 3.71v-.22c-1.25-.65-2.12-1.52-2.4-3.52-.28-2.1.92-4.06 1.98-5.8l.2-.32.22-.4v-.42c-.13.24-.25.49-.4.72l-.2.32M212.54 10.34c5.75 3.62 12.46 5.37 20.5 5.37 7.4 0 15.15-1.46 22.64-2.86 7.29-1.37 14.83-2.8 21.84-2.8 7.1 0 13 1.48 18 4.51l2.75 1.67L300 17.3v-.54c-.5-.31-1-.62-1.5-.91l-2.75-1.67c-5.08-3.08-11.05-4.58-18.24-4.58-7.05 0-14.62 1.42-21.93 2.8-7.47 1.4-15.2 2.85-22.55 2.85-7.95 0-14.58-1.73-20.25-5.3-3.82-2.39-5.66-4.9-5.47-7.47.05-.82.32-1.65.79-2.47h-.52c-.43.8-.68 1.62-.74 2.43-.2 2.76 1.72 5.42 5.69 7.91m61.92 160.37c1.52.83 3.6 1.18 5.62 1.53 1.49.25 3.03.51 4.28.96.8.29 1.67.72 2.6 1.18 1.91.94 4.08 2.01 6.05 2.01a4.9 4.9 0 0 0 1.37-.19c2.82-.84 4.33-4.39 5.63-7.64v-.54l-.02.06c-1.32 3.32-2.82 7.08-5.67 7.93l-.26.07c-.33.07-.68.11-1.05.11-1.92 0-4.07-1.06-5.96-1.99-.93-.46-1.81-.9-2.62-1.18-1.27-.46-2.82-.73-4.32-.98-2-.34-4.07-.7-5.56-1.5-3.29-1.81-2.94-5.12-2.58-8.62.14-1.37.29-2.79.19-4.08-.86-11.1-4.98-19.95-8.97-28.52a14.87 14.87 0 0 1-.37-12 16.88 16.88 0 0 1 9.76-9.23c1.4-.54 2.87-.8 4.35-.8 6.43 0 12.47 4.93 17.8 9.28 1.51 1.23 2.94 2.4 4.3 3.4l.98.7v-.24l-.86-.63c-1.36-1-2.78-2.16-4.29-3.39-5.36-4.37-11.42-9.33-17.93-9.33-1.5 0-2.99.28-4.42.82a17.08 17.08 0 0 0-9.88 9.34c-1.59 3.9-1.45 8.23.38 12.17 3.98 8.55 8.1 17.39 8.95 28.44.1 1.28-.05 2.69-.19 4.05-.35 3.41-.72 6.94 2.69 8.8m1.58-137.34c-5.6 0-11.57 1.01-17.89 2.1-7.11 1.2-14.47 2.46-22.3 2.46-.57 0-1.13 0-1.67-.02a40.46 40.46 0 0 1-7.06-.9 25.4 25.4 0 0 0-4.74-.65c-3.47 0-6.01 1.83-8.8 6.3-1.33 2.16-2.31 4.73-3.26 7.22-1.67 4.4-3.4 8.97-7.22 11.67-1.32.93-3.84 1.65-6.5 2.4-4.66 1.34-9.95 2.84-10.66 6-.9 3.94 7.2 9.33 11.56 12.23.8.54 1.5 1 1.97 1.35 5.1 3.74 9.32 6.23 13.34 6.23.55 0 1.1-.04 1.62-.14 3.2-.57 6.11-2.84 9.15-7.12 8.94-12.6 21.78-21.8 36.17-25.93a47.03 47.03 0 0 1 12.93-1.9c11.5 0 20.01 4.64 27.33 9.81v-.24c-7.32-5.16-15.83-9.78-27.33-9.78-4.18 0-8.55.65-12.98 1.92-14.44 4.14-27.32 13.38-36.28 26-3 4.24-5.88 6.48-9.02 7.04-.52.1-1.05.14-1.6.14-3.95 0-8.14-2.47-13.21-6.2l-1.98-1.34c-4.31-2.88-12.34-8.22-11.48-12.04.7-3.03 5.91-4.52 10.52-5.83 2.68-.77 5.22-1.5 6.56-2.44 3.88-2.74 5.62-7.32 7.3-11.76.94-2.48 1.92-5.05 3.25-7.18 2.74-4.41 5.23-6.2 8.62-6.2 1.44 0 2.95.29 4.7.63a40.66 40.66 0 0 0 8.76.93c7.86 0 15.22-1.26 22.35-2.47 6.3-1.08 12.26-2.1 17.85-2.1 3.45 0 6.5.4 9.33 1.2 4.84 1.39 9.7 3.5 14.64 5.98v-.23a85.78 85.78 0 0 0-14.58-5.94 33.82 33.82 0 0 0-9.39-1.2m-5.9 140.94c1.36.34 2.7.65 3.99.95 6.96 1.61 12.98 3.01 19 8.46l.13.1c1.38 1.26 2.47 1.87 3.33 1.87.14 0 .27-.02.4-.04 1.3-.3 1.95-2.13 2.67-4.48l.35-1.1v-.65c-.19.56-.37 1.12-.54 1.69-.7 2.29-1.33 4.06-2.53 4.34-.86.2-2-.37-3.55-1.77l-.12-.1c-6.06-5.5-12.1-6.9-19.1-8.52-1.29-.3-2.62-.6-3.98-.95-4.89-1.22-4.06-5.82-3.26-10.27.35-1.94.7-3.95.58-5.63-.8-10.25-4.74-18.72-8.55-26.91-.46-.98-.95-1.94-1.42-2.87-2.45-4.8-4.56-8.95-1.54-14.06 2.28-3.84 5.69-6.99 8.98-10.03l1.77-1.64c1.27-1.2 3-1.8 5.15-1.8 8.21 0 20.84 8.74 28.11 14.01v-.25c-7.3-5.28-19.88-13.96-28.11-13.96-2.2 0-3.98.63-5.29 1.86l-1.76 1.64c-3.31 3.05-6.73 6.2-9.02 10.07-3.08 5.2-.84 9.6 1.53 14.25.47.93.96 1.88 1.42 2.86 3.8 8.18 7.74 16.63 8.53 26.85.13 1.65-.23 3.65-.58 5.58-.82 4.53-1.66 9.23 3.41 10.5m-139.04 89.07c-.7-1.34-1.35-2.6-.88-3.62.72-1.53 2.06-1.76 3.35-1.99 1.04-.18 2.11-.37 2.75-1.25 1.04-1.44 1.54-3.16 2.02-4.82.67-2.3 1.3-4.47 3.25-5.7 2.64-1.68 4.91-1.96 7.1-2.23 3.02-.37 5.86-.72 9.09-4.67 4.17-5.11 7.24-13.17 8.21-21.56 1.95-16.94-8.05-29.58-16.87-40.73-7.72-9.75-14.39-18.18-11.6-27.33 2.95-9.75 11.13-14.86 17.68-14.86 3.42 0 6.38 1.28 8.54 3.7 3.1 3.44 4.33 8.97 3.56 15.97-2.02 18.4-1.33 41.12 22.07 53.6 7.58 4.04 15.4 6 23.93 6 10.93 0 21.06-3.26 30-6.14 7.2-2.33 13.42-4.33 18.85-4.33 7.12 0 11.76 3.54 15.02 11.47 8.14 19.76.31 36.22-5.08 44.27-8.69 12.97-21.66 20.72-29.18 20.72-2.3 0-4.09-.67-5.3-1.98-11.6-12.55-26.44-18.9-44.1-18.9-5.4 0-11.15.58-17.1 1.75-2.6.51-5.42.95-8.4 1.42-7.58 1.19-16.18 2.53-22.44 5.37-1.37.62-3.45 2.65-5.87 5-3.54 3.47-7.56 7.39-9.98 7.39-.21 0-.41-.04-.6-.1-1.06-.38-1.7-.95-1.97-1.74-.67-2 1.38-5.09 3.02-7.56.98-1.48 1.83-2.77 1.99-3.62.2-1.1-.44-2.34-1.06-3.53Zm-1.26 6.94c-1.68 2.54-3.78 5.7-3.05 7.9.29.88 1.03 1.55 2.2 1.97.23.08.47.12.73.12 2.58 0 6.65-3.98 10.25-7.49 2.3-2.23 4.45-4.34 5.75-4.93 6.22-2.82 14.79-4.16 22.35-5.34 2.98-.47 5.8-.91 8.4-1.42a89 89 0 0 1 17.03-1.75c17.56 0 32.3 6.32 43.82 18.78 1.3 1.4 3.17 2.1 5.59 2.1 7.52 0 20.41-7.32 29.5-20.88 5.43-8.12 13.32-24.7 5.12-44.64-3.3-7.99-8.18-11.7-15.38-11.7-5.49 0-11.74 2-18.98 4.34-8.9 2.87-19 6.13-29.87 6.13a49.3 49.3 0 0 1-23.75-5.96c-23.2-12.38-23.87-34.94-21.87-53.22.78-7.11-.48-12.74-3.65-16.27a11.5 11.5 0 0 0-8.83-3.82c-6.69 0-15.04 5.2-18.06 15.13-2.83 9.34 3.9 17.84 11.67 27.68 8.78 11.1 18.73 23.67 16.8 40.45-.96 8.32-4 16.3-8.13 21.35-3.13 3.83-5.9 4.17-8.83 4.54-2.24.27-4.55.56-7.27 2.28-2.07 1.31-2.72 3.55-3.4 5.92-.48 1.63-.97 3.32-1.97 4.7-.55.76-1.5.93-2.5 1.1-1.33.23-2.84.5-3.63 2.2-.56 1.2.17 2.6.88 3.97.6 1.13 1.2 2.3 1.02 3.28-.15.78-.98 2.03-1.94 3.48m-41.39 1.1c3.01-2.72 7.77-5.1 13.28-7.87 3.85-1.92 9.02-6.66 8.71-10.53-.17-2.11-1.87-3.7-5.06-4.7a13.8 13.8 0 0 0-4.19-.59c-4.08 0-8.68 1.36-12.73 2.55-1.86.55-3.6 1.06-5.2 1.43-13.42 3.04-21.52 4.88-28.77 4.88-6.43 0-12.06-1.44-19.45-4.97a160.87 160.87 0 0 1-16.4-9.15c-6.09-3.77-8.93-5.44-12.54-5.44-1.67 0-3.68.38-6.09 1.14v.35a20.53 20.53 0 0 1 6.1-1.16c3.5 0 6.32 1.66 12.36 5.4 4.14 2.57 9.3 5.76 16.43 9.16 7.43 3.56 13.1 5 19.59 5 7.3 0 15.4-1.84 28.84-4.89 1.6-.37 3.36-.88 5.22-1.43 4.03-1.19 8.6-2.53 12.64-2.53 1.53 0 2.87.18 4.1.57 3.04.96 4.66 2.44 4.82 4.4.3 3.73-4.76 8.33-8.53 10.22-5.53 2.77-10.3 5.16-13.35 7.91-9.17 8.3-7.7 19.12-4.91 28.84h.35c-2.77-9.65-4.27-20.4 4.78-28.6m202.52-46.6c.86.55 2.25.86 3.92.86 1.49 0 3.25-.25 5.12-.82v-.49c-1.87.59-3.64.84-5.12.84-1.56 0-2.9-.28-3.67-.78-3.91-2.5-5.64-6.91-7.48-11.59-1.58-4.03-3.21-8.2-6.39-11.15v-.13h-.14c-3.65-3.22-8.57-4.78-15.04-4.78-6.3 0-12.94 1.5-18.27 2.73-3.64.83-6.79 1.54-8.81 1.54-1.19 0-1.91-.24-2.21-.74-.4-.67-.1-1.93.89-3.73 4.6-8.41 13.91-28.47 13.27-36.77-.51-6.55-3.66-13.3-6.7-19.85-4.4-9.47-8.97-19.26-5.65-28.62 3.79-10.67 20.46-29.75 32.32-31.37.7-.09 1.44-.14 2.22-.14 7.72 0 19.01 4.6 30.78 11.26v-.5c-11.77-6.64-23.05-11.22-30.78-11.22a17 17 0 0 0-2.28.14c-12.01 1.64-28.88 20.9-32.7 31.68-3.38 9.53 1.22 19.41 5.66 28.97 3.03 6.5 6.16 13.23 6.66 19.69.57 7.4-7.54 26.16-13.2 36.5-1.11 2.02-1.4 3.35-.9 4.2.4.65 1.25.97 2.62.97 2.08 0 5.25-.72 8.91-1.56 5.31-1.21 11.92-2.72 18.17-2.72 6.39 0 11.23 1.55 14.8 4.73 3.14 2.87 4.77 7.03 6.34 11.04 1.86 4.75 3.62 9.23 7.66 11.82m-3.89 30.43c-1.76 4.02-3.42 7.81-5.53 11.1-12.3 19.1-26 22.33-40.5 25.74l-3.38.74c-4.83 1.03-9.83 2.1-13.9 4.74a13.3 13.3 0 0 0-2.92 2.44h.43c.65-.7 1.54-1.43 2.67-2.17 4.02-2.6 8.99-3.66 13.79-4.68 1.12-.24 2.28-.49 3.4-.75 14.56-3.43 28.32-6.66 40.69-25.88 2.12-3.3 3.79-7.11 5.56-11.15 2.8-6.4 6-13.65 10.39-16.07a44 44 0 0 1 2.23-.79v-.34c-.75.23-1.54.5-2.37.83-4.52 2.48-7.73 9.79-10.56 16.24m-69.3 37.53c7.85-3.5 14.96-5.18 21.84-6.8 13.81-3.24 25.74-6.04 36.65-23.02 1.85-2.87 3.41-6.44 5.07-10.22 3.47-7.9 7.06-16.08 13.71-19.46 1.8-.7 3.43-1.23 4.96-1.63v-.48c-1.59.41-3.3.97-5.17 1.7-6.8 3.45-10.42 11.7-13.92 19.68-1.66 3.77-3.22 7.32-5.04 10.15-10.81 16.82-22.66 19.6-36.37 22.83-6.9 1.62-14.03 3.3-21.93 6.82-5.14 2.3-8.57 4.95-10 7.66h.53c1.43-2.54 4.75-5.04 9.66-7.23m1.55-15.95c-1.24-3.9-6.65-6.83-16.08-8.67a98.43 98.43 0 0 0-18.87-1.83 102.56 102.56 0 0 0-31.64 5.08c-15.95 5.3-25.16 14.12-29.3 28.6h.5c4.11-14.24 13.22-22.93 28.95-28.16a102.1 102.1 0 0 1 31.5-5.06c6.27 0 12.59.62 18.77 1.83 9.25 1.8 14.54 4.62 15.72 8.35.9 2.86-.6 6.35-4.45 10.37-4 4.17-8.03 8.37-11.65 12.67h.61c3.55-4.19 7.48-8.29 11.37-12.34 3.99-4.16 5.52-7.8 4.56-10.84m-34.33-47.07a8.03 8.03 0 0 1 4-1.05c2.58 0 5.16 1.2 7.64 2.34l.6.27c1.42.66 2.86.98 4.4.98 1.88 0 3.7-.47 5.64-.96l1.49-.37c1.08-.26 2.13-.39 3.2-.39 3.24 0 6.2 1.24 8.9 2.57a9.1 9.1 0 0 0 4.1 1c2 0 3.81-.7 5.72-1.43a24.75 24.75 0 0 1 4.49-1.41c1.46-.27 2.91-.44 4.31-.61 3.63-.43 7.05-.83 10.53-2.8l1.19-.7c1.64-.98 3.06-1.83 4.92-1.83.58 0 1.16.08 1.8.24a4.98 4.98 0 0 1 3.63 3.4c2.24 6.39-3.22 19.29-6.22 23.25-2.17 2.87-4.96 4.48-7.87 4.53h-.15c-2.89 0-5.68-1.57-7.84-4.44a29.36 29.36 0 0 1-2.82-5.04c-1.85-3.88-3.77-7.9-8.2-8.94a6.64 6.64 0 0 0-1.52-.2c-1.63 0-2.56.78-3.65 1.67-.65.53-1.32 1.09-2.23 1.55a7.32 7.32 0 0 1-3.39.85c-2.42 0-4.59-1.22-6.89-2.52-2.28-1.29-4.64-2.62-7.26-2.62h-.17c-1.28.03-2.36.3-3.41.55-.97.24-1.9.47-2.87.47-.96 0-1.86-.23-2.82-.7-.4-.2-.79-.41-1.16-.62-1.03-.58-2.01-1.14-3.16-1.14-.6 0-1.21.15-1.86.46-.5.25-1.09.83-1.7 1.44-.99.97-2.1 2.08-3.15 2.08-.25 0-.48-.06-.7-.19-.83-.45-1.24-1.27-1.25-2.44 0-2.76 2.32-6.47 3.73-7.25Zm-2.65 9.98c.28.16.57.23.87.23 1.19 0 2.35-1.16 3.38-2.18a7.6 7.6 0 0 1 1.62-1.37c.6-.28 1.16-.42 1.71-.42 1.06 0 1.96.5 3 1.09l1.17.63c1 .49 1.97.73 2.97.73 1.02 0 1.95-.23 2.95-.48 1.03-.25 2.1-.51 3.34-.54h.16c2.54 0 4.86 1.31 7.1 2.58 2.23 1.26 4.54 2.57 7.05 2.57 1.2 0 2.37-.3 3.54-.9.94-.47 1.66-1.06 2.3-1.58 1.03-.85 1.92-1.59 3.43-1.59.44 0 .9.06 1.44.19 4.28 1 6.16 4.94 7.98 8.75a30.1 30.1 0 0 0 2.85 5.1c2.23 2.95 5.11 4.58 8.11 4.58h.16c3-.06 5.9-1.72 8.13-4.67 3.03-4 8.54-17.07 6.26-23.56a5.3 5.3 0 0 0-3.85-3.61 7.62 7.62 0 0 0-1.89-.25c-1.95 0-3.4.87-5.09 1.88-.38.22-.77.46-1.19.69-3.42 1.94-6.8 2.34-10.4 2.76-1.4.17-2.86.34-4.33.6-1.65.31-3.12.88-4.55 1.44-1.88.72-3.66 1.41-5.6 1.41a8.8 8.8 0 0 1-3.95-.97c-2.74-1.35-5.74-2.6-9.05-2.6-1.1 0-2.17.13-3.28.4l-1.5.37c-1.9.49-3.71.95-5.55.95-1.49 0-2.88-.31-4.27-.95l-.59-.27c-2.52-1.17-5.12-2.37-7.79-2.37-1.47 0-2.83.36-4.15 1.1-1.67.92-3.9 4.81-3.9 7.53 0 1.28.5 2.23 1.41 2.73m-40.14 19.82a70.76 70.76 0 0 0 10.22-7.36 58.26 58.26 0 0 0 13.85-18.91 48.8 48.8 0 0 0 4.28-15.23c2.16-18.81-8.93-32.83-17.84-44.09-6.92-8.75-12.9-16.3-10.81-23.17 2.31-7.61 8.45-11.6 13.31-11.6 2.12 0 3.84.73 5.13 2.17 2.17 2.42 3.03 6.83 2.42 12.42-2 18.28-1.64 44.2 24.47 58.13a54.14 54.14 0 0 0 26.08 6.55c11.65 0 22.14-3.39 31.4-6.37 6.84-2.2 12.75-4.1 17.45-4.1 3.76 0 7.67 1.04 10.8 8.63 7.32 17.8.22 32.7-4.66 39.99-6.14 9.17-16.5 16.63-23.07 16.63a5.92 5.92 0 0 1-4.25-1.53c-7.53-7.2-14.53-11.79-22.04-14.41-6.46-2.27-13.59-3.23-23.83-3.23-11.05 0-22.54 1.79-32.38 5.03-11.7 3.87-19.2 4.17-21.23 4.17a9.8 9.8 0 0 1-2.11-.16c-.61-.16-.94-.36-.98-.58-.09-.58 1.54-1.59 3.79-2.98Zm-2.86 3.75c.43.11 1.2.17 2.16.17 2.03 0 9.56-.3 21.3-4.18 9.81-3.24 21.29-5.02 32.31-5.02 18.15 0 30.2 2.72 45.73 17.58a6.11 6.11 0 0 0 4.39 1.59c6.75 0 16.95-7.34 23.23-16.72 4.91-7.33 12.04-22.3 4.68-40.18-3.17-7.7-7.15-8.76-10.98-8.76-4.74 0-10.65 1.91-17.52 4.12-9.24 2.98-19.71 6.36-31.33 6.36a53.94 53.94 0 0 1-25.99-6.52c-26-13.88-26.36-39.71-24.36-57.94.62-5.65-.26-10.11-2.47-12.58a6.77 6.77 0 0 0-5.28-2.23c-4.94 0-11.16 4.03-13.5 11.75-2.11 6.96 3.9 14.55 10.85 23.35 8.88 11.23 19.94 25.2 17.79 43.94a48.6 48.6 0 0 1-4.26 15.16 58.09 58.09 0 0 1-13.8 18.85 70.6 70.6 0 0 1-10.2 7.34c-2.48 1.54-3.98 2.47-3.88 3.18.05.32.41.56 1.13.74m18.65-109.36c-.4 3.63-.3 6.28-.23 8.2.11 3.13.16 4.3-1.93 5.03-.49.17-1 .18-1.5.02-1.72-.51-4.08-3.34-5.87-7.05-1.9-3.92-2.54-7.5-1.73-9.57 1.25-3.14 5.04-6.65 8.48-6.65.95 0 1.33.29 1.6.6.98 1.08 1.7 4.67 1.18 9.42Zm-2.78-10.35c-3.57 0-7.5 3.61-8.79 6.86-.85 2.15-.2 5.83 1.74 9.84 1.83 3.78 4.27 6.68 6.07 7.22a2.7 2.7 0 0 0 1.71-.03c2.32-.8 2.27-2.23 2.15-5.35-.07-1.92-.17-4.54.23-8.15.53-4.85-.23-8.54-1.25-9.69-.33-.36-.78-.7-1.86-.7m81.08 94.53 1.96-.37c3.62-.68 6.47-1.22 10.72-2.4.52-.14.98-.22 1.36-.22.5 0 .86.13 1.07.38.29.34.27.86.2 1.24-.65 3.66-1.2 5.76-2.8 8.45-.46.8-.9 1.32-1.54 1.32-.53 0-1.2-.35-2.03-1.05a39.99 39.99 0 0 0-6.73-4.38c-.27-.15-.5-.27-.7-.4-.56-.3-.99-.54-1.74-.85-.5-.2-.77-.52-.74-.86.04-.4.45-.75.97-.86Zm-.38 2.08c.73.3 1.16.53 1.7.83l.71.4a39.72 39.72 0 0 1 6.66 4.33c.91.77 1.66 1.14 2.28 1.14.92 0 1.45-.77 1.88-1.5 1.61-2.75 2.18-4.87 2.84-8.59.08-.45.1-1.09-.28-1.54-.48-.58-1.44-.68-2.84-.29-4.22 1.17-7.07 1.71-10.68 2.4l-1.96.37c-.7.13-1.22.62-1.28 1.19-.02.25.02.88.97 1.26m-61.76.68a85.03 85.03 0 0 0 4.47-11.18c.83-2.69.94-5.03 1.02-6.74.09-2.08.14-3.23 1.3-3.23.64 0 1.6.33 3.04 1.03 4.47 2.18 17.45 6.68 29.02 6.68h.69c13.72-.23 26.36-3.93 35.6-6.64 4.9-1.44 8.79-2.58 11.57-2.87 1.66-.17 3 .77 4 2.76 3.5 7.07 1.35 25.03-5.75 34.42-4.04 5.34-8.36 8.4-11.85 8.4a5.43 5.43 0 0 1-4-1.75c-6.37-6.53-19.68-13.87-35.06-15.53-3.08-.33-6.69-.5-10.74-.5-10.39 0-20.08 1.09-20.48 1.14-.94.1-1.68.15-2.29.15-1.2 0-1.9-.2-2.18-.65-.53-.83.28-2.58 1.64-5.49Zm.54 6.34c.61 0 1.37-.05 2.3-.16.41-.04 10.1-1.12 20.47-1.12 4.04 0 7.65.16 10.72.5 15.33 1.64 28.59 8.95 34.94 15.46a5.62 5.62 0 0 0 4.14 1.8c3.55 0 7.93-3.08 12-8.47 7.15-9.44 9.31-27.51 5.77-34.63-.94-1.89-2.25-2.89-3.8-2.89l-.39.02c-2.8.29-6.69 1.43-11.61 2.88-9.22 2.7-21.85 6.4-35.54 6.62-11.7.2-25.08-4.44-29.63-6.65-1.48-.73-2.44-1.05-3.11-1.05-1.36 0-1.42 1.29-1.51 3.43-.08 1.7-.19 4.02-1.02 6.68-1.5 4.82-3.2 8.48-4.45 11.16-1.38 2.96-2.22 4.75-1.63 5.68.33.51 1.05.74 2.35.74m-13.77 3.19c7.01-6.85 11.6-14.28 13.65-22.08a36.05 36.05 0 0 0 .97-13.2c-.04-.45-.07-.78-.07-.97.02-1.54.67-1.72 1.16-1.72 1.1 0 2.96 1.07 5.11 2.3 1.13.65 2.42 1.39 3.76 2.07 8.64 4.37 17.21 6.31 27.81 6.31 12.38 0 23.24-3.5 32.83-6.59 6.47-2.08 12.05-3.88 16.02-3.88 1.93 0 4.11 0 6.48 5.75 6.01 14.6.12 26.7-3.4 33.92l-.83 1.7c-2.75 5.82-12.04 15.47-17.04 15.47a2.6 2.6 0 0 1-1.9-.72c-8.43-8.28-17.15-13.71-26.67-16.59-8.48-2.56-16.35-2.78-23.69-2.78-12.96 0-23.8 1.58-33.16 4.82-.81.28-1.58.44-2.18.44-.45 0-1.02-.09-1.2-.5-.15-.4-.06-1.4 2.35-3.75Zm-1.15 4.45a7.2 7.2 0 0 0 2.24-.45c9.34-3.23 20.16-4.8 33.1-4.8 16.11 0 32.08 1.47 50.22 19.3.52.52 1.2.78 2.04.78 5.07 0 14.45-9.72 17.22-15.58l.82-1.7c3.54-7.25 9.46-19.4 3.41-34.09-2.42-5.87-4.67-5.87-6.66-5.87-4 0-9.6 1.8-16.08 3.9-9.57 3.08-20.42 6.57-32.77 6.57-10.56 0-19.11-1.94-27.72-6.3-1.33-.67-2.62-1.4-3.75-2.05-2.27-1.3-4.06-2.33-5.2-2.33-.9 0-1.35.63-1.37 1.92 0 .2.03.53.08 1 1.23 12.65-3.67 24.46-14.57 35.1-1.9 1.86-2.7 3.2-2.39 3.97.17.41.65.63 1.38.63M123.92 0h-.5a67.01 67.01 0 0 0-2.16 11.85c-.74 7.52-1.4 17.37.15 26.86 1.12 6.91 3.37 10 7.3 10 2.51 0 5.42-1.22 8.8-2.62 2.34-.98 4.77-2 7.36-2.73l.75-.2c7.38-1.98 15.7-2.26 24.53-.83 2.36.38 4.76 1.05 7.09 1.69 3.38.93 6.88 1.9 10.43 2.05 1.93.09 3.3-.1 4.27-.59 2.84-1.41 1.46-4.94 0-8.67-.86-2.21-1.76-4.5-1.9-6.54-.78-10.88 5.3-20.8 13.33-30.27h-.61c-7.98 9.46-13.97 19.37-13.19 30.3.15 2.12 1.06 4.43 1.94 6.68 1.44 3.68 2.68 6.86.23 8.08-.9.44-2.23.63-4.05.55-3.5-.16-6.97-1.12-10.33-2.04a68.23 68.23 0 0 0-7.14-1.7c-8.9-1.44-17.28-1.16-24.72.84l-.75.2c-2.62.75-5.06 1.76-7.42 2.75-3.33 1.38-6.2 2.58-8.62 2.58-3.65 0-5.76-2.96-6.84-9.6-1.53-9.45-.88-19.25-.15-26.74.43-4.35 1.16-8.3 2.2-11.9m7.8 209c-.25.3-.55.44-.94.44-1.06 0-2.65-1.07-4.66-2.42-3.56-2.4-8.42-5.67-14.3-5.67-.74 0-1.47.06-2.2.16-1.69.23-2.7.34-3.39.34-.64 0-1-.1-1.08-.28-.23-.52 1.32-2.16 3.67-4.66l.72-.75c2.45-2.61 3.87-5.18 4.9-7.05.93-1.7 1.55-2.81 2.28-2.81.29 0 .62.16 1 .51 5.98 5.42 17.26 17.98 14 22.18Zm-13.78-22.44c-.44-.4-.84-.6-1.22-.6-.93 0-1.58 1.19-2.57 2.98a32.19 32.19 0 0 1-4.86 7l-.7.75c-2.8 2.94-4.06 4.3-3.75 5.01.14.33.57.48 1.4.48.7 0 1.72-.1 3.43-.34.7-.1 1.43-.15 2.14-.15 5.78 0 10.6 3.24 14.12 5.6 2.06 1.4 3.69 2.49 4.85 2.49.5 0 .9-.2 1.2-.58 3.69-4.74-9.23-18.27-14.04-22.64m9.3 16.65c.02.28-.04.39-.07.42-.01.02-.05.06-.17.06-.54 0-1.75-.73-3.14-1.56-2.7-1.62-6.4-3.84-9.95-3.9-.53 0-.77-.22-.76-.68.01-1.55 2.8-4.96 4.88-4.96.24 0 .46.05.66.15 2.66 1.33 8.32 7.57 8.55 10.47Zm-9.2-11.09c-2.34 0-5.34 3.68-5.36 5.43 0 .71.44 1.13 1.22 1.15 3.44.06 7.07 2.24 9.72 3.83 1.57.94 2.71 1.62 3.38 1.62.22 0 .39-.06.51-.2.16-.16.22-.42.19-.77-.25-3.2-6.33-9.63-8.8-10.86-.26-.13-.55-.2-.87-.2m-20.65-75.7c-4.22-2.34-6.35-4.45-6.5-6.47-.2-2.65 2.93-5.05 6.56-7.84a96.72 96.72 0 0 0 3.62-2.87c7.55-6.38 10.78-7.5 14.77-7.5 1.14 0 2.35.1 3.74.21l.65.06c15.12 1.22 26.1 7.22 26.68 8.26.11.2.09.31.06.38-.15.31-.98.5-2.37.8-3.12.67-8.93 1.93-17.64 6.8-8.63 4.82-14.2 13.88-15.88 20.73-.41 1.66-.83 2.48-1.28 2.48-.66 0-1.53-1.58-2.64-3.57-1.95-3.5-4.9-8.8-9.77-11.48Zm12.4 15.23c.58 0 1.04-.8 1.48-2.63 1.68-6.8 7.2-15.8 15.79-20.6 8.68-4.85 14.47-6.1 17.58-6.78 1.55-.34 2.33-.5 2.51-.91.07-.16.05-.34-.07-.56-.6-1.1-11.36-7.11-26.83-8.36l-.66-.06c-1.4-.11-2.6-.2-3.75-.2-4.04 0-7.3 1.12-14.9 7.54a95.02 95.02 0 0 1-3.61 2.87c-3.68 2.81-6.85 5.25-6.64 8 .16 2.13 2.26 4.23 6.6 6.63 4.82 2.65 7.75 7.92 9.7 11.4 1.22 2.2 2.04 3.66 2.8 3.67m-19.4-13.4c-4.76-3.33-7-6.06-7.06-8.6-.08-3.22 3.28-5.83 7.53-9.13 1.92-1.49 3.9-3.03 5.84-4.83 7.81-7.26 11.73-9.48 16.76-9.48.9 0 1.9.07 3.06.22 10.32 1.32 21.07 4.46 32.87 9.63 2.8 1.22 6.1 2.7 9.42 4.46.37.2.94.45 1.6.74 2.2.96 5.52 2.4 5.93 3.88.11.42.1.74-.07.95-.22.28-.64.34-.97.34-.7 0-1.54-.27-2.01-.53-.62-.34-1.07-.98-1.5-1.6-.65-.9-1.31-1.84-2.53-1.94-1.25-.11-1.67.53-2.09 1.14-.27.41-.53.8-1.04 1-.3.12-.58.18-.85.18-.71 0-1.26-.42-1.83-.86-.55-.43-1.13-.87-1.91-1.01a2.75 2.75 0 0 0-.49-.04c-1.38 0-2.83.98-4.24 1.92-1.1.75-2.14 1.45-3.14 1.71a57.91 57.91 0 0 0-13.43 5.21c-12.61 6.98-16.38 20.04-18.12 29.26-.26 1.36-.6 2.02-1.06 2.02-.9 0-2.34-2.3-4.33-5.48-3.4-5.46-8.56-13.71-16.34-19.16Zm20.67 24.84c.57 0 .97-.7 1.26-2.19 1.73-9.17 5.48-22.18 18.02-29.11a57.71 57.71 0 0 1 13.38-5.2 11.8 11.8 0 0 0 3.2-1.73c1.38-.93 2.81-1.9 4.13-1.9.16 0 .3.02.45.04.74.13 1.3.56 1.83.97.6.47 1.17.91 1.95.91.3 0 .6-.06.93-.2.56-.21.85-.65 1.13-1.07.4-.6.77-1.15 1.9-1.05 1.13.1 1.74.95 2.38 1.86.45.63.91 1.29 1.57 1.65.48.27 1.35.56 2.11.56.54 0 .92-.14 1.13-.42.2-.27.24-.64.1-1.12-.44-1.57-3.8-3.04-6.04-4.01-.65-.3-1.22-.54-1.59-.73a139.95 139.95 0 0 0-9.43-4.48c-11.82-5.17-22.59-8.32-32.93-9.64a24.35 24.35 0 0 0-3.08-.22c-5.1 0-9.04 2.23-16.9 9.53-1.92 1.8-3.9 3.34-5.83 4.82-4.3 3.34-7.69 5.97-7.6 9.29.06 2.61 2.33 5.4 7.14 8.77 7.75 5.42 12.9 13.65 16.3 19.1 2.1 3.35 3.48 5.57 4.49 5.57m4.44 73.53c-2.72-1.23-5.96-1.84-9.9-1.84-7.28 0-15.52 2.15-22.14 3.88-4.7 1.22-8.75 2.28-11.29 2.28-1.36 0-2.2-.3-2.57-.93-.51-.88-.13-2.43 1.16-4.75 3.09-5.52 8.5-10.48 13.74-15.28 4.3-3.94 8.36-7.65 11.15-11.6a52.73 52.73 0 0 0 9.71-26.59c.76-10.67-1.98-20.8-8.14-30.15-2.2-3.32-6.27-6.11-10.2-8.81-7.35-5.03-14.28-9.78-9.15-17.45 2.62-3.91 5-5.38 7.76-7.07 1.73-1.07 3.7-2.28 5.97-4.27A70.38 70.38 0 0 0 96.66 89c3.94-4.21 7.04-7.54 13.54-7.54 1.02 0 2.13.09 3.3.25 15.75 2.23 33.17 5.96 53.78 18.04 27.14 15.9 45.5 30.76 53.12 55.61 3.55 11.56 2.24 24.33-3.27 31.78a15.64 15.64 0 0 1-12.98 6.66c-2.91 0-6.1-.7-9.44-2.06-6.25-2.54-10.06-8.36-11.68-17.78-1.41-8.24-.95-18.16-.55-26.91.11-2.46.22-4.8.29-7.05.29-9.75-2.4-17.83-7.76-23.36-4.89-5.04-11.91-7.81-19.79-7.81-10.46 0-21.05 4.7-29.07 12.88-4.9 5-7.92 10.15-9.24 15.76-1.18 5.02-.97 10.28.64 16.1 3 10.82 10.25 21.59 17.93 32.98a419.7 419.7 0 0 1 8 12.17c5.86 9.42 4.85 16.05 2.96 19.96-2.06 4.27-6.3 7.36-10.79 7.87-.5.06-1.01.09-1.5.09-4.7 0-8.03-2.6-11.57-5.35-2.17-1.69-4.42-3.44-7.1-4.66Zm20.18 10.12c4.56-.52 8.86-3.65 10.95-7.98 1.9-3.95 2.94-10.66-2.98-20.16a422.2 422.2 0 0 0-8-12.17c-7.66-11.38-14.9-22.13-17.9-32.92-3.37-12.2-.66-22.26 8.55-31.67 7.98-8.15 18.52-12.82 28.93-12.82 7.82 0 14.8 2.75 19.65 7.75 5.33 5.49 7.99 13.51 7.7 23.22-.07 2.25-.18 4.58-.3 7.04-.4 8.76-.85 18.69.56 26.95 1.63 9.5 5.49 15.36 11.8 17.94a25.42 25.42 0 0 0 9.52 2.07c5.34 0 9.88-2.33 13.14-6.74 5.54-7.5 6.87-20.34 3.3-31.96-7.64-24.91-26.03-39.8-53.2-55.72-20.65-12.1-38.09-15.83-53.86-18.07-1.18-.16-2.3-.25-3.33-.25-6.58 0-9.72 3.35-13.69 7.6a70.17 70.17 0 0 1-5.05 5.04c-2.26 1.98-4.22 3.18-5.95 4.25-2.78 1.7-5.18 3.18-7.82 7.13-5.24 7.83 1.78 12.64 9.2 17.73 3.92 2.68 7.98 5.46 10.15 8.75 13.65 20.69 8.14 42.76-1.57 56.51-2.77 3.93-6.82 7.64-11.11 11.57-5.25 4.81-10.68 9.78-13.78 15.33-1.34 2.39-1.72 4-1.16 4.95.4.7 1.3 1.03 2.74 1.03 2.56 0 6.63-1.06 11.34-2.29 6.61-1.72 14.83-3.87 22.1-3.87 3.85 0 7.15.62 9.8 1.83 2.65 1.2 4.9 2.94 7.06 4.63 3.56 2.77 6.93 5.39 11.68 5.39.5 0 1.02-.03 1.53-.09m-20.07-15.18c-1.77-.97-4.22-1.44-7.49-1.44-4.15 0-8.93.77-13.14 1.45-3.46.55-6.45 1.03-8.59 1.03-1.32 0-2.18-.18-2.64-.57 0 0-.02-.01-.02-.06-.08-1.05 5.34-7.23 11.09-13.77 7.3-8.31 15.56-17.73 15.93-20.4.2-1.48-.42-2.61-1.02-3.7-.65-1.18-1.25-2.29-.92-3.8.25-1.17.95-1.83 1.68-2.52.96-.91 1.95-1.85 1.98-3.99.01-.84-.6-2.27-1.32-3.92-.66-1.53-1.4-3.26-1.73-4.76-.39-1.75-.11-2.88.83-3.44.2-.11.4-.17.58-.17 2.3 0 4.06 8.15 5 12.53.3 1.47.54 2.53.7 2.94 3.17 8.01 9.65 16.28 16.18 24.03 5.2 6.16 10.98 15.67 10.19 22.16a7.18 7.18 0 0 1-2.96 5.15c-1.36.99-3 1.48-4.9 1.48-5.19 0-11.35-3.58-16.3-6.45-1.12-.65-2.18-1.27-3.13-1.78Zm24.45 6.91a7.38 7.38 0 0 0 3.04-5.29c.8-6.55-5.02-16.11-10.24-22.31-6.52-7.73-12.98-15.99-16.14-23.97-.16-.4-.4-1.5-.7-2.91-1.02-4.75-2.72-12.7-5.19-12.7-.22 0-.46.08-.68.21-1.03.61-1.33 1.8-.93 3.66.33 1.5 1.08 3.25 1.75 4.8.7 1.62 1.31 3.03 1.3 3.83-.02 2.05-.99 2.96-1.92 3.84-.72.69-1.47 1.4-1.74 2.63-.35 1.58.3 2.78.94 3.93.59 1.06 1.2 2.17 1 3.58-.36 2.61-8.6 12-15.89 20.3-6.02 6.86-11.22 12.78-11.13 13.92 0 .08.04.15.1.2.5.41 1.4.61 2.76.61 2.15 0 5.15-.48 8.62-1.04 4.2-.67 8.98-1.44 13.11-1.44 3.23 0 5.65.46 7.4 1.41.95.52 2 1.13 3.12 1.78 4.97 2.89 11.16 6.48 16.4 6.48 1.94 0 3.63-.5 5.02-1.52m-8.03-3.94c-4.12 0-9.42-2.97-13-5.75-2.6-2.02-5.76-3-9.68-3-2.87 0-5.66.51-8.13.96-1.88.35-3.5.65-4.78.65-1.1 0-1.8-.22-2.24-.69a.87.87 0 0 1-.27-.67c.06-.96 1.63-2.28 3.81-4.1 5.27-4.41 14.09-11.8 15.55-25.45.18-1.63.44-2.36.87-2.36.73 0 2.06 1.84 4.27 4.88 2.34 3.22 5.89 8.1 10.97 13.82 2.92 3.29 8.76 11.84 8.18 17.26a4.54 4.54 0 0 1-1.83 3.34c-1 .73-2.26 1.1-3.72 1.1Zm5.74-4.42c.6-5.5-5.28-14.11-8.22-17.42a170.52 170.52 0 0 1-10.96-13.81c-2.32-3.2-3.6-4.96-4.43-4.96-.56 0-.87.74-1.07 2.54-1.45 13.57-10.23 20.93-15.48 25.32-2.3 1.92-3.81 3.2-3.88 4.24-.01.3.1.58.32.82.48.51 1.24.75 2.39.75 1.3 0 2.93-.3 4.82-.65 2.45-.45 5.24-.96 8.09-.96 3.87 0 7 .97 9.56 2.95 3.6 2.8 8.95 5.8 13.12 5.8 1.5 0 2.8-.39 3.84-1.14a4.72 4.72 0 0 0 1.9-3.48m56.92-74.27a.15.15 0 0 1 .12-.05c.09 0 .27.06.6.33 1.88 1.56 17.25 20.2 12.74 37.9-.67 2.6-2.01 4.04-3.79 4.04-1.28 0-2.72-.78-4.04-2.2-2.98-3.18-5.93-10.27-5.25-20.59.4-6.1-.05-11.28-.35-14.71-.22-2.52-.38-4.34-.03-4.72Zm.05 19.41c-.69 10.43 2.3 17.6 5.34 20.84 1.39 1.49 2.9 2.3 4.28 2.3 1.95 0 3.4-1.52 4.11-4.3 4.56-17.84-10.95-36.66-12.85-38.23-.55-.45-.93-.51-1.18-.24-.44.49-.3 2.08-.05 4.97.3 3.42.75 8.58.35 14.66m81.3-117.24c-5.21 0-10.99.99-17.1 2.03-7.31 1.25-14.87 2.54-23.1 2.54a72.31 72.31 0 0 1-3.22-.06c-1.25-.04-2.42-.07-3.56-.07-7.09 0-11.48 1.45-14.37 9.07-1.83 4.82-3.9 10.28-8.89 13.8-1.4 1-2.81 1.85-4.05 2.6-2.88 1.74-5.16 3.12-5.24 5.02-.08 1.74 1.68 3.84 5.72 6.8 3.87 2.84 7.05 4.22 9.73 4.22.25 0 .49 0 .73-.03 3.89-.36 6.5-3.58 9.8-7.65 1.5-1.85 3.21-3.95 5.2-5.95a71.63 71.63 0 0 1 30.78-18.26 51.65 51.65 0 0 1 14.2-2.1c11.35 0 20.1 4.11 27.34 8.85v-.24c-7.24-4.73-16-8.8-27.33-8.8-4.61 0-9.41.7-14.27 2.1a71.82 71.82 0 0 0-30.85 18.31c-2 2-3.71 4.1-5.22 5.96-3.28 4.04-5.86 7.23-9.67 7.58-.23.02-.47.03-.7.03-2.64 0-5.79-1.36-9.62-4.18-3.98-2.92-5.72-4.96-5.64-6.63.08-1.8 2.31-3.14 5.14-4.85 1.25-.76 2.66-1.6 4.07-2.61 5.03-3.56 7.11-9.05 8.95-13.9 2.86-7.51 7.2-8.94 14.2-8.94 1.13 0 2.3.04 3.54.07a297.27 297.27 0 0 0 3.23.06c8.25 0 15.81-1.3 23.13-2.54 6.1-1.04 11.88-2.03 17.07-2.03 3.01 0 5.65.34 8.05 1.02 5.17 1.48 10.46 3.9 15.92 6.72v-.22c-5.44-2.81-10.71-5.22-15.87-6.69a29.22 29.22 0 0 0-8.1-1.03m-87 87.33c.06-.07.14-.1.26-.1.42 0 1.19.46 2.22 1.15 6.77 4.5 24.75 25.07 19.68 47.97-.94 4.25-4.1 7-8.04 7-2.77 0-5.55-1.35-7.81-3.8-4.36-4.7-6.34-12.84-5.57-22.9.98-12.88-.05-20.99-.6-25.35-.3-2.24-.47-3.6-.14-3.97Zm.54 29.3c-.78 10.12 1.22 18.31 5.62 23.06 2.3 2.48 5.13 3.85 7.96 3.85 4.04 0 7.27-2.8 8.23-7.15 2.81-12.69-1.53-24.1-5.67-31.45-4.87-8.63-11.09-14.73-14.09-16.73-1.09-.73-1.86-1.18-2.33-1.18-.17 0-.31.06-.41.17-.39.44-.23 1.67.08 4.13.56 4.35 1.59 12.45.6 25.3m-5.92-38.07c.06-.06.13-.1.24-.1.54 0 1.7.77 3.64 2.02 17.01 11.04 33.32 31.5 28.05 55.81-1.7 7.85-7.21 13.13-13.72 13.13-3.39 0-6.57-1.47-9.19-4.26-5.1-5.43-7.5-15.32-6.73-27.85 1.14-18.72-.92-29.62-1.91-34.86-.42-2.2-.67-3.53-.38-3.89Zm2.1 38.73c-.78 12.6 1.63 22.54 6.78 28 2.66 2.84 5.88 4.33 9.33 4.33 6.6 0 12.2-5.34 13.91-13.28 2.55-11.73.36-23.27-6.49-34.3-6.93-11.18-16.53-18.41-21.64-21.73-2.6-1.68-3.71-2.39-4.14-1.87-.35.42-.12 1.63.33 4.05 1 5.23 3.05 16.12 1.91 34.8m-82.12-46.93c1.4-3.87 13.7-9.18 19.61-9.18a9.99 9.99 0 0 1 2.47.25c-.24.17-.9.45-1.54.73-2.89 1.27-8.26 3.62-10.87 8.54-1.64 3.1-2.83 4.3-4.27 4.3-1.17 0-2.6-.77-4.79-2.58-.7-.58-.9-1.26-.61-2.06Zm5.4 5.1c1.89 0 3.24-1.81 4.69-4.54 2.52-4.78 7.8-7.09 10.64-8.33 1.43-.63 1.97-.86 1.9-1.25-.06-.34-.42-.48-2.39-.61-5.9-.4-19.15 5.23-20.68 9.47-.36.98-.1 1.88.76 2.58 2.27 1.88 3.8 2.69 5.08 2.69m-2.86 4.28c-1.15-2.76-3.49-3.92-5.55-4.94-1.8-.9-3.38-1.69-3.6-3.35-.09-.64.33-1.53 1.2-2.6 3.6-4.37 13.58-10.29 17.81-10.55 1.07-.06 2.15-.1 3.2-.1 9.23 0 15.39 2.56 15.52 3.64.02.17-.27.26-.44.3-6.78 1.61-15.16 4.53-19.77 12.92-3.83 6.97-6.7 8.65-8.37 4.68Zm8.66-4.52c4.54-8.27 12.84-11.16 19.56-12.75.65-.16.7-.49.69-.67-.16-1.35-6.45-3.93-15.85-3.93a53 53 0 0 0-3.22.1c-4.3.26-14.41 6.25-18.05 10.68-.94 1.15-1.37 2.1-1.27 2.84.25 1.84 1.89 2.66 3.79 3.6 2 1 4.28 2.14 5.39 4.78.64 1.54 1.49 2.32 2.51 2.32 1.74 0 3.91-2.35 6.45-6.97m85.29 40.95c.17-.3.35-.47.5-.47.11 0 .23.14.29.23 3.3 4.91 3.37 13.22 2.15 15.51-.17.31-.35.48-.5.48-.22 0-.49-.27-.75-.73-3.4-5.94-2.9-12.94-1.7-15.02Zm2.43 16.22c.35 0 .66-.25.92-.73 1.3-2.43 1.27-10.86-2.17-15.99-.45-.66-1.1-.58-1.59.26-1.29 2.23-1.83 9.31 1.7 15.49.36.64.74.97 1.14.97m43.36 20.45c.48.69 1.64.98 3.89.98a82 82 0 0 0 5.02-.24c2.4-.16 5.13-.34 7.94-.34 8.92 0 14.93 1.9 18.94 5.97 3.72 2.87 5.78 7.54 7.6 11.67 2.2 5.01 4.1 9.34 8.3 9.34.45 0 .92-.05 1.4-.15.33-.07.67-.16 1.02-.26v-.35c-.38.12-.74.21-1.08.28-.46.1-.91.14-1.34.14-3.98 0-5.84-4.23-8-9.14-1.83-4.16-3.9-8.87-7.68-11.78-4.06-4.13-10.15-6.06-19.16-6.06-2.83 0-5.55.19-7.96.35-1.94.13-3.6.24-5 .24-2.07 0-3.22-.27-3.61-.84-.22-.3-.22-.73-.01-1.29 4.24-11.34 7.79-25.69 7.45-30.1-.6-7.75-4-15.06-7.3-22.13-4.02-8.65-7.82-16.82-5.4-23.63 3.35-9.47 18.68-25.9 26.99-27.04.4-.05.84-.08 1.32-.08 6.47 0 17.87 4.63 30.78 12.29v-.39c-12.9-7.62-24.29-12.23-30.78-12.23-.5 0-.96.03-1.37.08-8.4 1.15-23.88 17.72-27.26 27.26-2.46 6.94 1.37 15.17 5.42 23.88 3.28 7.04 6.67 14.33 7.26 22 .3 3.88-2.88 17.81-7.43 29.97-.25.67-.23 1.2.05 1.6m31.62 105.52c-.39 0-1.03.04-1.85.1-1.37.08-3.25.2-5.12.2-4.63 0-7.06-.76-7.21-2.26-.23-2.26 5.14-5.62 8.7-7.84a32.18 32.18 0 0 0 3.2-2.14 67.7 67.7 0 0 0 12.14-14.36c2.4-3.75 4.18-7.78 6.05-12.06a23.44 23.44 0 0 1 6.58-8.86v-.25c-3.01 2.34-5.32 5.75-6.76 9.03-1.87 4.27-3.64 8.3-6.04 12.03a67.46 67.46 0 0 1-12.11 14.32c-.56.49-1.77 1.24-3.17 2.12-3.81 2.38-9.03 5.65-8.79 8.03.17 1.65 2.6 2.45 7.41 2.45 1.88 0 3.76-.13 5.14-.21.8-.06 1.45-.1 1.83-.1 7.01 0 13.25 1.13 18.89 3.41h.54c-5.79-2.42-12.2-3.6-19.43-3.6M148.68 19.06c.9 0 1.93-.13 3.16-.4 1.23-.28 2.4-.54 3.45-.68 1.78-.24 3.5-.34 5.05-.43a10.5 10.5 0 0 0 4.8-1.44c6.21-3.62 8.8-11.05 9.63-14.07.2-.73.4-1.4.6-2.05h-.21c-.2.63-.38 1.3-.58 2-.82 3-3.39 10.36-9.54 13.95-1.45.85-3 1.32-4.73 1.41-1.53.1-3.26.2-5.05.44-1.06.14-2.22.4-3.46.67-1.22.27-2.24.4-3.12.4-1.47 0-2.5-.37-3.14-1.15-.94-1.16-1.08-3.22-.42-6.5l.1-.53c.9-4.5 2.42-7.98 4.83-10.69h-.26c-2.37 2.72-3.88 6.18-4.76 10.65l-.1.54c-.68 3.34-.53 5.45.46 6.65.68.83 1.75 1.23 3.29 1.23m127.35 23.55c-4.82 0-10.4.96-16.33 1.97-7.5 1.27-15.24 2.6-23.87 2.6l-1.88-.02-1.47-.04c-1.2-.04-2.35-.07-3.42-.07-9.34 0-9.8 5.14-10.3 10.57-.27 2.98-.54 6.07-2.19 8.69-.58.93-2.16 2.12-3.83 3.37-3.55 2.67-7.57 5.7-5.64 8.52.83 1.22 1.83 1.84 2.97 1.84.63 0 1.3-.19 2.02-.55 3.15-1.63 6.52-6.44 9.23-10.3 1.53-2.2 2.86-4.1 3.58-4.53a4.46 4.46 0 0 1 2.34-.52l.86.02.88.02c1.1 0 2.25-.13 3.3-1.08 1.26-1.15 1.42-2.64 1.57-4.08.14-1.3.27-2.52 1.13-3.55 2.6-3.1 11.72-5.27 17.76-6.7 1.77-.43 3.3-.8 4.45-1.12a56.25 56.25 0 0 1 15.48-2.27c11.14 0 20.06 3.65 27.33 8.02v-.39c-7.28-4.35-16.2-7.97-27.33-7.97-5.06 0-10.3.77-15.57 2.29-1.14.32-2.67.69-4.44 1.1-6.44 1.54-15.26 3.64-17.93 6.83-.93 1.1-1.07 2.44-1.2 3.73-.16 1.44-.3 2.8-1.47 3.86-.97.88-2.05 1-3.09 1l-.86-.02-.87-.02c-.77 0-1.68.07-2.5.56-.8.47-2.07 2.3-3.7 4.62-2.54 3.63-6.03 8.61-9.1 10.2-1.88.97-3.36.59-4.57-1.17-1.75-2.57 2.14-5.5 5.57-8.08 1.77-1.32 3.3-2.47 3.92-3.46 1.68-2.68 1.96-5.8 2.24-8.83.5-5.5.92-10.26 9.96-10.26 1.07 0 2.2.03 3.41.06l1.47.04 1.9.02c8.64 0 16.4-1.32 23.92-2.6 5.9-1.01 11.48-1.96 16.27-1.96 2.57 0 4.77.27 6.75.84 5.45 1.55 11.2 4.32 17.22 7.5v-.37c-5.98-3.16-11.7-5.9-17.13-7.46-2-.57-4.24-.85-6.84-.85M149.97 12.04c.5 1 1.61 1.5 3.28 1.5.44 0 .91-.04 1.42-.1 1.96-.27 3.78-.37 5.4-.47a6.24 6.24 0 0 0 2.75-.82c3.61-2.1 7.87-8.3 8.01-12.15h-.33c-.15 3.69-4.39 9.85-7.84 11.87a5.65 5.65 0 0 1-2.62.77c-1.61.1-3.44.2-5.41.46-2.3.31-3.8-.1-4.37-1.21-.78-1.51.15-4.42 2.41-7.6a14.21 14.21 0 0 1 5.1-4.29h-.7a14.21 14.21 0 0 0-4.67 4.1c-2.37 3.32-3.28 6.3-2.44 7.94m106 170.15c1.24 1.78 3.86 1.98 7.48 2.26l1.22.1c1.14.09 2.34.13 3.61.17 5.9.2 12.58.43 18.61 5.93l.07.06c3.35 2.93 5.34 8.1 7.1 12.64 1.76 4.59 3.3 8.55 5.72 8.55l.23-.02v-.2l-.23.02c-2.29 0-3.8-3.9-5.54-8.42-1.76-4.57-3.76-9.76-7.14-12.72l-.08-.06c-6.08-5.54-12.8-5.77-18.73-5.98a78.64 78.64 0 0 1-4.82-.27c-3.57-.27-6.15-.47-7.33-2.18-1.13-1.61-.97-4.63.51-9.8a37.43 37.43 0 0 0 1.55-13.34c-.66-8.57-4.24-16.27-7.7-23.71-3.62-7.77-7.04-15.11-5.25-20.15 2.97-8.4 17.33-23.2 23.28-24.02.13-.02.36-.04.7-.04 4.97 0 16.2 4.14 30.78 13.06v-.23c-14.56-8.9-25.8-13.03-30.78-13.03-.35 0-.59.02-.73.04-5.99.82-20.45 15.71-23.44 24.15-1.81 5.12 1.62 12.5 5.25 20.3 3.46 7.43 7.03 15.1 7.7 23.64.32 4.18-.19 8.52-1.55 13.28-1.52 5.3-1.66 8.28-.49 9.97m-146.08 47.77c-.66-.2-1.46-.29-2.43-.29-4.09 0-10.42 1.74-17.76 3.75-9.24 2.54-19.72 5.41-28.2 5.41-5.77 0-9.88-1.3-12.56-4-2.46-2.47-3.69-6.18-3.67-11.03.04-8.5 11.51-17.84 21.63-26.09 6.03-4.91 11.73-9.55 14.53-13.58 5.75-8.27 10.83-17.22 9.1-26.66-1-5.5-4.13-8.75-7.44-12.19-1.83-1.9-3.71-3.86-5.31-6.29a30.3 30.3 0 0 1-2.97-6.06c-1.38-3.5-2.46-6.28-7.78-8.73-1.57-.73-2.81-1.26-3.8-1.68-3.86-1.65-3.86-1.65-5.37-5.62-.32-.84-.71-1.85-1.21-3.09-1.94-4.77-3.45-5.7-5.41-5.7-.42 0-.84.03-1.3.08-.5.05-1.02.1-1.58.1-1.24 0-2.96-.21-5.32-1.85-1.8-1.24-2.56-2.38-2.25-3.37 1.21-3.89 18.18-5.34 21.55-5.34h.16l.06-.21.1.2c2.22-1.12 3.42-2.55 4.58-3.94 1.55-1.85 3-3.6 6.71-4.78 1.32-.42 2.44-.74 3.33-1 4.85-1.4 4.91-1.47 7-7.58l.25-.78c.4-1.14.08-1.94-.2-2.65-.36-.92-.66-1.71.57-3.16.67-.78 3.04-1.7 5.13-2.5 1.41-.55 2.75-1.06 3.46-1.5 1.1-.67 1.86-1.59 2.59-2.47.94-1.15 1.84-2.23 3.45-2.81 1.08-.4 2.42-.59 3.97-.59 3.95 0 8.6 1.24 12.33 2.23l2.38.62c12.12 3 23.65 8.45 34.8 13.73l1.15.54c26.5 12.53 46.53 26.54 61.23 42.82 9.87 10.94 16.24 21.59 19.48 32.56 3.8 12.89 1.07 28.61-6.79 39.12-4.08 5.45-11.31 11.95-22.65 11.95a32.8 32.8 0 0 1-9.08-1.35c-27.03-7.81-26.13-34.46-23.18-58.83.89-7.28-.48-13.2-3.95-17.11-2.93-3.31-7.37-5.14-12.49-5.14-9.41 0-21.43 6.48-25.15 18.47-4.26 13.76 4.84 25.48 13.64 36.82 9.38 12.09 19.08 24.58 13.67 40-3.13 8.88-14.77 20.51-24.53 21.62-.54.06-1.09.1-1.61.1-5.19 0-8.86-2.94-12.75-6.06-3.02-2.4-6.13-4.9-10.1-6.09Zm24.52 12.52c9.93-1.13 21.75-12.93 24.92-21.94 5.5-15.65-4.28-28.25-13.74-40.44-9.13-11.76-17.75-22.87-13.56-36.39 3.65-11.78 15.45-18.14 24.7-18.14 4.99 0 9.3 1.77 12.14 4.98 3.38 3.81 4.7 9.6 3.84 16.75-2.98 24.55-3.87 51.41 23.5 59.33 3.15.9 6.25 1.37 9.22 1.37 11.53 0 18.88-6.6 23.03-12.14 7.94-10.62 10.7-26.5 6.86-39.53-3.26-11.04-9.66-21.75-19.58-32.74-14.74-16.33-34.82-30.37-61.38-42.93l-1.15-.54c-11.17-5.29-22.72-10.75-34.89-13.77l-2.37-.61c-3.76-1-8.43-2.24-12.45-2.24-1.6 0-3 .2-4.13.6-1.73.63-2.7 1.82-3.65 2.96a9.99 9.99 0 0 1-2.47 2.37c-.68.42-2 .92-3.39 1.46-2.25.87-4.57 1.77-5.31 2.63-1.42 1.67-1.03 2.67-.65 3.64.27.7.53 1.36.2 2.33l-.27.78c-2.02 5.94-2.02 5.94-6.67 7.28-.9.26-2.02.59-3.35 1-3.84 1.23-5.4 3.11-6.93 4.93-1.17 1.4-2.27 2.72-4.36 3.79h-.18c-2.4 0-20.6 1.19-22 5.67-.38 1.2.44 2.51 2.43 3.89 2.5 1.72 4.39 1.92 5.59 1.92.59 0 1.12-.05 1.63-.1.44-.04.86-.08 1.25-.08 1.46 0 2.95.41 4.98 5.42.5 1.23.88 2.24 1.2 3.08 1.57 4.12 1.63 4.17 5.62 5.88 1 .42 2.23.95 3.8 1.67 5.14 2.38 6.2 5.07 7.53 8.48.7 1.8 1.5 3.85 3.02 6.15a44.36 44.36 0 0 0 5.36 6.35c3.26 3.4 6.34 6.6 7.32 11.95 1.7 9.28-3.34 18.13-9.03 26.32-2.76 3.97-8.43 8.59-14.43 13.48-10.2 8.3-21.76 17.73-21.8 26.45-.03 4.98 1.25 8.8 3.8 11.36 2.77 2.78 6.99 4.14 12.88 4.14 8.55 0 19.07-2.89 28.34-5.43 7.3-2 13.6-3.73 17.63-3.73.91 0 1.69.09 2.3.27 3.89 1.16 6.97 3.62 9.95 6.01 3.95 3.16 7.7 6.15 13.04 6.15.54 0 1.1-.03 1.66-.1m11.48-218.2c2.27 0 4.77-.56 6.98-1.05 1.13-.25 2.2-.49 3.05-.6 1.61-.22 3.18-.31 4.7-.4 3.15-.18 6.13-.35 8.49-1.7 1.9-1.08 3.3-2.86 4.25-5.45A95.63 95.63 0 0 1 180.17 0h-.23a96.27 96.27 0 0 0-6.78 15c-.94 2.54-2.3 4.3-4.16 5.35-2.32 1.32-5.28 1.5-8.4 1.67a60.5 60.5 0 0 0-4.72.4c-.86.12-1.93.35-3.07.6-2.2.5-4.68 1.05-6.93 1.05-2.2 0-3.77-.54-4.78-1.64-2.45-2.69-1.22-8.82-.56-12.12l.1-.52c.76-3.8 1.96-7.03 3.66-9.79h-.24a29.51 29.51 0 0 0-3.61 9.75l-.1.52c-.67 3.33-1.91 9.53.6 12.3 1.06 1.14 2.67 1.7 4.93 1.7M197.48 0h-.45c-.83.88-1.54 1.69-2.08 2.42-7.35 10-10.6 19.22-9.97 28.2.26 3.5-.17 5.82-1.3 7.08-.73.8-1.76 1.2-3.15 1.2-1.94 0-4.33-.74-6.87-1.53a38.5 38.5 0 0 0-6.91-1.69 47.12 47.12 0 0 0-5.16-.27c-5.65 0-11.02.9-16.7 1.85l-2.88.48-.07.01c-2 .32-4.26.7-6.46.7-4.16 0-6.82-1.39-8.14-4.23-2.75-5.92-1.98-13.06-1.3-19.36l.26-2.51c.45-4.6 1.25-8.7 2.42-12.35h-.35a59.98 59.98 0 0 0-2.4 12.31l-.26 2.52c-.69 6.34-1.46 13.52 1.33 19.53 1.38 2.97 4.14 4.41 8.44 4.41 2.23 0 4.5-.37 6.5-.7h.08l2.88-.48c5.67-.95 11.02-1.85 16.65-1.85 1.77 0 3.45.1 5.12.27 2.21.25 4.57.98 6.86 1.68 2.55.8 4.97 1.54 6.96 1.54 1.5 0 2.6-.43 3.4-1.3 1.19-1.34 1.64-3.74 1.39-7.33-.64-8.9 2.6-18.05 9.9-27.98.58-.78 1.36-1.66 2.27-2.62m-2.17 50.54c-2.26 1.6-5.36 2.37-9.46 2.37-4.82 0-10.22-1.08-14.98-2.04-2.8-.56-5.45-1.09-7.62-1.32-1.06-.11-3.9-.37-7.4-.37-6.5 0-14.83.88-17.63 5.07-1.22 1.82-1.27 4.11-.15 6.8.53 1.27 1.89 1.96 3.2 2.63 1.04.52 2.12 1.07 2.71 1.88.7.96 1.13 2.3 1.53 3.6.54 1.74 1.1 3.54 2.35 4.6a7.96 7.96 0 0 0 5.4 1.93c1.48 0 2.99-.3 4.44-.59 1.44-.28 2.93-.58 4.37-.58 1.38 0 2.58.28 3.67.84 2.65 1.36 3.76 3.2 4.84 4.98 1.4 2.32 2.74 4.5 7.11 5.53 9.16 2.14 11.67 4.38 17.73 9.8l2.54 2.24c2.18 1.92 3.8 4.1 5.35 6.22a42.47 42.47 0 0 0 4.68 5.62c2.27 2.19 4.42 3.16 6.49 4.1 2.76 1.26 5.37 2.45 7.74 6.51l.37.64c2.98 5.15 5.99 9.91 7.84 9.91a1 1 0 0 0 .76-.34c.67-.73.85-2.67.55-5.93-.17-1.92-1.55-3.62-2.89-5.28-1.44-1.78-2.8-3.46-2.72-5.32.1-2.23 1.45-3.33 2.88-4.49 1.04-.85 2.12-1.73 2.75-3.09 1.52-3.27 1.9-6.2 2.25-9.03.5-3.95.96-7.67 4.49-11.89a51.19 51.19 0 0 1 24.95-16.03 33.13 33.13 0 0 1 9.2-1.39c10 0 17.15 5.43 24.74 11.18l2.6 1.96v-.58l-2.32-1.75c-7.65-5.8-14.87-11.28-25.01-11.28-2.99 0-6.04.46-9.34 1.4a51.66 51.66 0 0 0-25.18 16.2c-3.62 4.31-4.1 8.1-4.6 12.12-.35 2.8-.71 5.69-2.2 8.9-.59 1.26-1.62 2.1-2.63 2.92-1.44 1.17-2.94 2.39-3.04 4.83-.1 2.03 1.39 3.87 2.82 5.64 1.3 1.6 2.63 3.25 2.79 5.02.35 3.83-.04 5.15-.43 5.57a.54.54 0 0 1-.42.2c-1.84 0-5.76-6.79-7.44-9.68l-.37-.64c-2.44-4.2-5.11-5.41-7.95-6.7-2.03-.93-4.14-1.88-6.36-4.02a41.95 41.95 0 0 1-4.62-5.56c-1.58-2.13-3.2-4.34-5.42-6.29-.92-.8-1.76-1.55-2.54-2.25-6.13-5.46-8.66-7.72-17.93-9.9-4.19-.97-5.47-3.08-6.82-5.31-1.11-1.84-2.26-3.73-5.03-5.16a8.28 8.28 0 0 0-3.88-.88c-1.48 0-3 .3-4.46.58a22.9 22.9 0 0 1-4.34.58c-2 0-3.63-.58-5.1-1.82-1.16-.97-1.7-2.7-2.21-4.37-.42-1.34-.85-2.72-1.6-3.75-.66-.9-1.79-1.47-2.88-2.02-1.3-.66-2.52-1.28-2.98-2.38-1.05-2.54-1.02-4.69.1-6.37 2.7-4.02 10.86-4.87 17.24-4.87 3.49 0 6.31.26 7.37.38 2.14.22 4.78.75 7.57 1.31 4.78.96 10.2 2.05 15.07 2.04 4.2 0 7.39-.8 9.73-2.45 5.83-4.13 4.16-10.35 2.54-16.37-1.73-6.42-3.51-13.07 3.67-17.4a6.6 6.6 0 0 1 3.42-.79c4.3 0 10.35 2.35 16.2 4.62 5.1 1.98 9.92 3.85 13.06 3.93l1.35.01c6.74 0 13.54-1.16 20.13-2.28 6.57-1.12 13.36-2.28 20.07-2.28 4.7 0 8.93.55 12.96 1.7A84.84 84.84 0 0 1 300 26.13v-.5a85.14 85.14 0 0 0-10.89-4.02 47.03 47.03 0 0 0-13.08-1.72c-6.75 0-13.56 1.16-20.15 2.29-6.57 1.12-13.35 2.27-20.05 2.27-.45.02-.9 0-1.34-.01-3.06-.07-7.83-1.93-12.9-3.9-5.89-2.28-11.98-4.64-16.37-4.64-1.51 0-2.71.27-3.66.85-7.49 4.51-5.65 11.33-3.88 17.93 1.65 6.13 3.2 11.92-2.36 15.86m-56.7-17.03c1.43 0 3.08-.18 5.53-.59 6.22-1.04 12.4-1.53 19.44-1.53 1.76 0 3.58.03 5.55.1l1.82.03c3.26 0 5.16-.4 6.56-1.37 1.68-1.16 2.67-3.19 3.33-6.79 1.5-8.27 4.82-15.7 10.43-23.36h-.25c-5.57 7.65-8.87 15.07-10.38 23.32-.64 3.55-1.61 5.54-3.24 6.67-1.37.94-3.24 1.33-6.45 1.33-.54 0-1.13-.02-1.82-.04-1.97-.06-3.78-.09-5.55-.09-7.05 0-13.24.49-19.47 1.53-2.44.41-4.09.59-5.5.59-4.02 0-6.9-1.35-7.9-7.92-.97-6.28-.11-12.93.77-17.4A43.6 43.6 0 0 1 133.84 0h-.21a43.5 43.5 0 0 0-2.34 7.94c-.88 4.5-1.74 11.17-.77 17.48.87 5.75 3.22 8.09 8.1 8.09m2.75-5.01c.62 0 1.3-.06 2.01-.18a120.2 120.2 0 0 1 16.86-1.56c1.37-.03 2.69 0 3.95.04.84.02 1.64.04 2.42.04 2.4 0 4.88-.18 6.8-1.53 1.59-1.11 2.72-2.96 3.46-5.65 2-7.3 4.88-13.76 8.74-19.66h-.24a68.7 68.7 0 0 0-8.7 19.6c-.72 2.65-1.83 4.46-3.38 5.55-1.87 1.31-4.31 1.5-6.68 1.5-.77 0-1.57-.03-2.42-.05-1.26-.03-2.58-.07-3.96-.04-5.9.15-11.57.67-16.88 1.56-3.05.51-5.31-.1-6.73-1.82-3.22-3.91-1.48-12.7-.55-17.41.65-3.3 1.62-6.25 2.9-8.89h-.22a36.51 36.51 0 0 0-2.88 8.85c-.94 4.75-2.68 13.6.6 17.58 1.13 1.37 2.78 2.07 4.9 2.07"/>
</svg>
