<svg xmlns="http://www.w3.org/2000/svg" fill="none" viewBox="0 0 473 302">
  <path fill="#244D0244" d="M400.6 260.4a13.3 13.3 0 0 0 2.6-17.8l-10.5 8.4a1.5 1.5 0 0 1-2.5-1l-1.9-12.7a13.3 13.3 0 0 0-6.5 21.2c4.7 5.7 13 6.6 18.8 2Zm7.8-25.8-18.5-8.4 1 7.5c4.6-.3 9.3 1.3 12.8 4.6l4.7-3.7Zm1.7-2.6 6-24.7-3.5-1.5-21.6 17.5 19.1 8.7Zm-18.7 4.7 1.5 10.2 8.3-6.6a13.3 13.3 0 0 0-9.8-3.6Zm36.3-15.4a13.3 13.3 0 1 0 20.7-16.7 13.3 13.3 0 0 0-22.8 3.5l7.6 3.3 6.2.5a1.5 1.5 0 0 1-.2 3l-6.5-.4-.5-.1-7.4-3.3c-.5 3.5.4 7.2 2.9 10.2Zm-45.9 16c1.9-1.5 4-2.5 6-3l-1.3-9.6-5-2.3-3.3 2.7a1.5 1.5 0 0 1-2-2.4h.1l11.6-9.3a1.5 1.5 0 0 1 2 2.3l-5.6 4.6 3.6 1.6 21.6-17.5c-1.5-.7-2.7-1.5-3-2.9-.2-1.4.4-2.4 1-3.4l1.3-2.5c.3-.6 0-1.3-.4-1.7-.5-.4-1.1-.6-2.5.5l-7.8 6.3a1.5 1.5 0 1 1-2-2.4l7.8-6.3c2.2-1.8 4.9-1.8 6.4-.5a4.4 4.4 0 0 1 1.2 5.5l-1.4 2.6-.5 1.3 1.2.7 12 5.2a16.4 16.4 0 1 1-.9 3l-3-1.3-6.2 26.2c-.1.4-.3.7-.6.9l-6.4 5.1a16.5 16.5 0 1 1-23.9-3.4ZM386.7 132a13.3 13.3 0 0 0 15.9-8.6l-13-3.4a1.5 1.5 0 0 1-.8-2.6l9-9.1a13.3 13.3 0 1 0-11 23.7Zm25.4-9.4-4.5-19.8-5.3 5.4c3 3.4 4.6 8.1 4 13l5.8 1.4Zm3.1-.1 23.3-10.2-.9-3.6-27-6.7 4.6 20.5Zm-15-12.1-7.3 7.2 10.3 2.7c.4-3.7-.8-7.2-3-10Zm34 19.7a13.3 13.3 0 1 0 26 6.4 13.3 13.3 0 0 0-16.6-16l2 8 3.3 5.2a1.5 1.5 0 1 1-2.6 1.7l-3.5-5.4-.2-.5-2-7.9a13.3 13.3 0 0 0-6.3 8.5ZM394 103c2.3.5 4.4 1.6 6.1 3l6.8-6.9-1.2-5.3-4.1-1a1.5 1.5 0 0 1 .7-3l14.5 3.6a1.5 1.5 0 0 1-.7 3l-7-1.8.9 3.9 27 6.7c-.4-1.6-.4-3 .5-4 1-1 2-1.2 3.2-1.4l2.9-.4c.6-.1 1-.7 1-1.3 0-.6 0-1.3-1.9-1.8L433 94a1.5 1.5 0 0 1 .7-3l9.7 2.4c2.8.7 4.3 2.8 4.2 4.9 0 2-1.5 3.9-3.7 4.2l-2.8.5c-.9 0-1.3.3-1.4.3l.2 1.4 3 12.7a16.4 16.4 0 1 1-3 1.1l-.7-3.1-24.7 10.7c-.3.2-.6.2-1 .1l-8-2A16.5 16.5 0 1 1 394 103ZM223.3 269.3c6.4 2.7 13.7 0 17-6l-12.4-5.4a1.5 1.5 0 0 1-.3-2.7l10.4-7.6a13.3 13.3 0 0 0-21.7 4.2c-3 6.8.2 14.6 7 17.5Zm26.5-5.3-1.3-20.3-6.1 4.5c2.4 4 3.2 8.8 1.8 13.4l5.6 2.4Zm3.1.3 24.6-6.3-.3-3.7-25.6-11 1.3 21Zm-13-14.3-8.3 6.1 9.8 4.3c1-3.6.3-7.3-1.5-10.4Zm30.6 24.8a13.3 13.3 0 1 0 24.5 10.4 13.3 13.3 0 0 0-13.8-18.4l.7 8.3 2.5 5.7a1.5 1.5 0 0 1-2.8 1.2l-2.7-5.9-.1-.5-.6-8.1a13.3 13.3 0 0 0-7.7 7.3Zm-35.6-33c2.2 1 4 2.3 5.6 4l7.8-5.7-.4-5.5-4-1.6a1.5 1.5 0 0 1 1.2-2.9L259 236a1.5 1.5 0 0 1-1.2 2.9L251 236l.2 4 25.6 10.8c0-1.6.1-3 1.2-4 1-.8 2.3-.8 3.4-.8h3c.5 0 1-.4 1.2-1 0-.7 0-1.4-1.6-2l-9.2-4a1.5 1.5 0 0 1 1.2-2.8l9.2 3.9c2.6 1 3.8 3.4 3.4 5.4-.4 2-2.1 3.7-4.3 3.7H280s-.2.4 0 1.4l.9 13.1a16.4 16.4 0 1 1-3 .6l-.3-3.2-26 6.8-1-.1-7.6-3.3a16.5 16.5 0 1 1-8.2-22.6ZM57.6 279.2c6.8-1.7 11-8.2 10-15l-13.1 3.1a1.5 1.5 0 0 1-1.9-2l3.7-12.2a13.3 13.3 0 0 0-14.8 16.4c1.8 7.2 9 11.5 16.1 9.7Zm18-20.1-13.2-15.5-2.2 7.3c4.3 1.7 7.9 5 9.6 9.6l5.9-1.4Zm2.7-1.6 15.8-20-2.4-2.7-27 6.7 13.6 16Zm-19-3.6-3 9.8 10.4-2.5c-1.4-3.4-4-6-7.4-7.3Zm39.4 1.3a13.3 13.3 0 1 0 25.9-6.4 13.3 13.3 0 0 0-22.2-6.5l5.5 6.3 5.5 3a1.5 1.5 0 0 1-1.5 2.7l-5.7-3.1-.4-.3-5.4-6.1c-1.9 3-2.6 6.7-1.7 10.4Zm-48.3-4.9c2.3-.5 4.6-.6 6.8-.2l2.8-9.2-3.5-4.2-4.2 1a1.5 1.5 0 0 1-.8-3l14.5-3.5a1.5 1.5 0 0 1 .8 3l-7 1.7 2.6 3 27-6.7c-1-1.2-1.7-2.5-1.4-3.9.3-1.3 1.3-2 2.2-2.7l2.3-1.7c.5-.4.6-1.1.3-1.6-.2-.6-.7-1.1-2.5-.7l-9.6 2.4a1.5 1.5 0 0 1-.8-3l9.7-2.4c2.7-.7 5.1.5 6 2.3 1 1.8.5 4.2-1.3 5.5L92 228c-.7.5-1 .9-1 1 0 0 0 .3.7 1l8.7 10a16.4 16.4 0 1 1-2 2.3l-2.2-2.5L79.5 261l-.9.6-8 1.9a16.5 16.5 0 1 1-20.2-13.2ZM262.4 104.2c7 0 12.8-5.3 13.4-12h-13.6c-.8 0-1.5-.8-1.5-1.6 0-.3 0-.5.2-.8l6.6-10.8a13.2 13.2 0 0 0-18.4 12c0 7.3 6 13.2 13.3 13.2ZM285 89.3l-9.2-17.8-3.9 6.4a16 16 0 0 1 7 11.4h6Zm3-.9L308 73.3l-1.7-3.2h-27.9l9.4 18.3Zm-17.7-7.9-5.2 8.6 10.7.1a13 13 0 0 0-5.5-8.7Zm38 10.6c0 7.2 6 13 13.3 13 7.4 0 13.4-5.8 13.4-13s-6-13-13.4-13c-2.4 0-4.6.6-6.6 1.7l3.9 7.2 4.5 4.2c.6.5.7 1.5.1 2.1-.6.6-1.6.6-2.2 0l-4.7-4.2-.4-.5-3.7-7a12.9 12.9 0 0 0-4.2 9.5Zm-45.8-16c2.4 0 4.7.4 6.7 1.3l5-8-2.5-4.8h-4.3c-.8 0-1.5-.7-1.5-1.5s.6-1.5 1.5-1.5h15c.8 0 1.5.6 1.5 1.4 0 .9-.7 1.6-1.5 1.6H275l1.8 3.4h27.8c-.7-1.4-1-2.7-.4-4 .6-1.2 1.7-1.6 2.8-2l2.7-1.1c.5-.2.8-.9.7-1.5-.1-.6-.5-1.2-2.3-1.2h-10c-.8 0-1.5-.6-1.5-1.5 0-.8.6-1.5 1.5-1.5h10c2.9 0 4.9 1.6 5.3 3.6.4 2-.5 4-2.6 4.9l-2.6 1-1.3.7s0 .4.5 1.3l6 11.4c2.4-1.3 5.1-2 8-2 9.1 0 16.5 7.2 16.5 16 0 8.9-7.4 16-16.5 16A15.9 15.9 0 0 1 311 78.8l-1.4-2.7L288 92c-.3.3-.7.4-1 .4l-8.2-.1a16.3 16.3 0 0 1-16.5 14.9c-9 0-16.4-7.2-16.4-16 0-9 7.4-16.1 16.4-16.1ZM126.7 53.5a13.3 13.3 0 0 0 15.9-8.6l-13.1-3.4a1.5 1.5 0 0 1-.7-2.5l9-9.2a13.3 13.3 0 0 0-20.8 7.5 13.3 13.3 0 0 0 9.7 16.2Zm25.4-9.3-4.5-19.8-5.3 5.4c3 3.4 4.6 8.1 4 13l5.8 1.4Zm3.1-.2L178.5 34l-.9-3.6-27-6.7 4.6 20.4Zm-15-12-7.3 7.2 10.3 2.7c.4-3.7-.8-7.3-3-10Zm34 19.6a13.3 13.3 0 1 0 26 6.5 13.3 13.3 0 0 0-16.6-16l1.9 8 3.4 5.2a1.5 1.5 0 0 1-2.6 1.7l-3.5-5.4-.3-.5-1.8-7.9a13.3 13.3 0 0 0-6.5 8.4Zm-40.3-27c2.3.6 4.4 1.7 6.1 3l6.8-6.8-1.2-5.3-4.1-1a1.5 1.5 0 0 1 .7-3l14.5 3.6a1.5 1.5 0 1 1-.8 3l-7-1.8 1 3.9 27 6.7c-.4-1.6-.4-3 .5-4 .9-1.1 2-1.2 3.2-1.4l2.9-.4c.6-.1 1-.7 1-1.3 0-.6-.1-1.3-1.9-1.8l-9.6-2.4a1.5 1.5 0 0 1 .7-3l9.7 2.4c2.7.7 4.3 2.8 4.2 4.9 0 2-1.5 3.9-3.7 4.2l-2.8.4-1.4.4.2 1.4 3 12.7a16.4 16.4 0 1 1-3 1.1l-.7-3.2-24.7 10.8c-.3.2-.7.2-1 .1l-8-2A16.5 16.5 0 1 1 134 24.6ZM160.2 184.7a13.3 13.3 0 0 0 3.6-17.7l-11 7.9a1.5 1.5 0 0 1-2.4-1.2l-1.2-12.8a13.3 13.3 0 0 0-7.6 20.8c4.4 6 12.7 7.3 18.6 3Zm9.2-25.4-18-9.4.6 7.6c4.6-.1 9.2 1.7 12.5 5.3l5-3.5Zm1.9-2.5 7.2-24.4-3.3-1.6-22.6 16.3 18.7 9.7Zm-19 3.8 1 10.2 8.6-6.2c-2.5-2.7-6-4-9.6-4Zm37-13.5a13.3 13.3 0 1 0 21.6-15.7 13.3 13.3 0 0 0-23 2.3l7.5 3.8 6.2.7a1.5 1.5 0 0 1-.4 3.1l-6.4-.8-.6-.1-7.2-3.7c-.7 3.5 0 7.3 2.3 10.4Zm-46.6 13.5c2-1.4 4-2.3 6.2-2.8l-.8-9.6-4.8-2.5-3.5 2.6a1.5 1.5 0 1 1-1.8-2.5l12-8.8a1.5 1.5 0 1 1 1.8 2.5l-5.8 4.2 3.6 1.8 22.5-16.3c-1.5-.8-2.6-1.7-2.8-3-.2-1.4.4-2.4 1-3.4l1.5-2.5c.4-.5.2-1.2-.3-1.6-.4-.4-1-.7-2.5.3l-8 5.9a1.5 1.5 0 0 1-2-2.5h.1l8-5.9c2.3-1.6 5-1.5 6.5-.1 1.5 1.3 2 3.7.9 5.6l-1.5 2.4c-.5.8-.6 1.2-.6 1.3 0 0 .1.3 1 .7l11.8 6a16.4 16.4 0 1 1-1 3l-3-1.6-7.6 25.9c0 .3-.3.6-.5.8l-6.7 4.7a16.5 16.5 0 1 1-23.7-4.6ZM16.7 117.5c6.9 1 13.3-3.5 14.8-10.2l-13.3-2a1.5 1.5 0 0 1-1-2.5l8-10a13.3 13.3 0 0 0-20 9.7c-.9 7.3 4.2 14 11.5 15Zm24.2-11.9-6.5-19.3-4.7 6c3.3 3 5.4 7.6 5.3 12.4l6 1Zm3.1-.5 22.1-12.5-1.2-3.5-27.6-3.9 6.7 19.9ZM27.7 94.7l-6.4 8 10.6 1.6c0-3.8-1.6-7.2-4.2-9.6Zm36 16a13.3 13.3 0 1 0 26.4 3.7 13.3 13.3 0 0 0-18-14.3l2.7 7.9 3.9 4.8a1.5 1.5 0 0 1-2.4 2l-4.1-5-.3-.5-2.6-7.7c-3 2-5 5.3-5.6 9ZM20.8 88c2.4.3 4.5 1 6.4 2.3l6-7.5-1.7-5.2-4.2-.6a1.5 1.5 0 0 1 .4-3l14.7 2a1.5 1.5 0 0 1-.3 3.1l-7.2-1 1.3 3.7 27.5 4c-.5-1.6-.6-3 .2-4.2.8-1.1 2-1.4 3-1.7l2.8-.7c.6-.2 1-.8 1-1.4 0-.6-.3-1.3-2.1-1.5L58.7 75a1.5 1.5 0 1 1 .5-3l9.8 1.3c2.8.4 4.6 2.3 4.7 4.4.2 2-1 4-3.2 4.6l-2.8.7c-.9.2-1.3.5-1.3.5l.3 1.3L71 97.2a16.4 16.4 0 1 1-2.8 1.4l-1-3-23.5 13.2c-.3.2-.6.3-1 .2l-8.1-1.2A16.5 16.5 0 1 1 20.8 88ZM269.6 181.3c7 1.2 13.5-3 15.2-9.7l-13.2-2.5a1.5 1.5 0 0 1-1-2.5l8.5-9.7a13.3 13.3 0 0 0-20.2 9 13.3 13.3 0 0 0 10.7 15.4Zm24.7-11-5.8-19.6-5 5.8c3.3 3.2 5.1 7.8 4.8 12.6l6 1.1Zm3.1-.5 22.5-11.7-1-3.6h-.1l-27.4-4.8 6 20.1Zm-16-11-6.6 7.8 10.5 2c.1-3.8-1.3-7.3-3.8-9.8Zm35.5 17.3a13.3 13.3 0 1 0 26.3 4.6 13.3 13.3 0 0 0-17.6-14.9l2.4 8 3.8 5a1.5 1.5 0 0 1-2.5 1.8l-3.9-5.2-.2-.5-2.5-7.7c-3 2-5.1 5-5.8 8.9ZM275 152c2.2.4 4.4 1.2 6.2 2.5l6.3-7.3-1.5-5.2-4.3-.8a1.5 1.5 0 0 1 .5-3l14.7 2.6a1.5 1.5 0 0 1-.5 3l-7-1.2 1 3.8 27.5 4.8c-.5-1.5-.6-3 .2-4 .9-1.2 2-1.4 3.2-1.7l2.8-.6c.6-.1 1-.7 1-1.4 0-.6-.3-1.3-2-1.6l-9.8-1.7a1.5 1.5 0 0 1 .4-3l9.9 1.7c2.8.5 4.5 2.5 4.6 4.5 0 2-1.3 4-3.4 4.5l-2.9.6c-.8.2-1.2.5-1.3.5l.2 1.3 4 12.6a16.4 16.4 0 1 1-2.8 1.3l-1-3.1-24 12.4c-.2.2-.6.2-1 .2l-8-1.5a16.5 16.5 0 1 1-13-20.2Z"/>
</svg>
