<svg xmlns="http://www.w3.org/2000/svg" fill="none" viewBox="0 0 1139 604"><g fill="#244D0260" clip-path="url(#a)"><path d="M1123.4 469.7a13.3 13.3 0 0 0 9.7-15.2L1120 458a1.5 1.5 0 0 1-1.9-2l3.5-12.3a13.3 13.3 0 0 0-14.6 16.7c2 7.1 9.3 11.3 16.4 9.4Zm17.7-20.4-13.6-15.2-2 7.3c4.3 1.5 8 4.9 9.7 9.4l5.9-1.5Zm2.6-1.7 15.4-20.2-2.4-2.7-27 7.2 14 15.7Zm-19-3.3-2.9 9.9 10.4-2.6c-1.5-3.5-4.3-6-7.6-7.3Zm39.3.7a13.3 13.3 0 1 0 25.8-6.9 13.3 13.3 0 0 0-22.3-6l5.6 6.1 5.5 3a1.6 1.6 0 0 1-1.4 2.7l-5.8-3-.4-.4-5.4-6c-1.9 3-2.6 6.8-1.6 10.5Zm-48.3-4c2.3-.7 4.6-.8 6.8-.4l2.6-9.3-3.6-4-4.1 1c-.9.3-1.7-.2-2-1-.2-.8.3-1.7 1.1-2l14.4-3.8c.8-.2 1.7.3 2 1.1.2.8-.3 1.7-1.1 2l-7 1.8 2.7 3 26.8-7.3c-1-1.2-1.8-2.4-1.5-3.8.3-1.4 1.3-2 2.2-2.8l2.3-1.7c.5-.4.6-1.1.3-1.7-.3-.5-.8-1-2.5-.6l-9.6 2.6c-.8.2-1.7-.2-2-1-.2-.9.3-1.7 1.1-2l9.7-2.6c2.7-.7 5.1.4 6 2.2 1 1.8.6 4.2-1.1 5.5l-2.3 1.8c-.7.5-1 1-1 1s0 .3.7 1l8.9 9.8a16.4 16.4 0 1 1-2 2.4l-2.3-2.4L1145 451c-.2.3-.5.5-.9.6l-8 2a16.5 16.5 0 1 1-20.3-12.7ZM1043.7 356.8a13.3 13.3 0 0 0 4.5-17.4l-11.4 7.2a1.5 1.5 0 0 1-2.3-1.2l-.5-12.9c-1.7.3-3.3 1-4.8 2-6.2 4-8 12.2-3.9 18.4 4 6.2 12.3 8 18.4 4Zm10.5-24.9-17.5-10.3.3 7.6c4.6.2 9 2.2 12.1 6l5.1-3.3Zm2-2.4 8.5-24-3.2-1.8L1038 319l18.1 10.6Zm-19.1 2.8.4 10.2 9-5.7a13.3 13.3 0 0 0-9.4-4.5Zm37.7-11.5a13.3 13.3 0 1 0-.7-13.4l7.2 4.1 6.1 1a1.5 1.5 0 0 1-.5 3.1l-6.4-1.1c-.2 0-.3 0-.5-.2l-7-4c-.9 3.5-.3 7.2 1.8 10.5Zm-47.3 11c2-1.2 4.2-2 6.4-2.4l-.4-9.6-4.7-2.8-3.6 2.4c-.7.4-1.7.2-2.1-.5a1.5 1.5 0 0 1 .4-2.1l12.5-8.1c.7-.5 1.7-.3 2.2.4.4.7.2 1.7-.5 2.1l-6 4 3.4 2 23.3-15.2c-1.4-.8-2.4-1.8-2.6-3.2-.1-1.3.6-2.3 1.3-3.3l1.6-2.3c.3-.5.2-1.3-.2-1.7-.5-.4-1-.8-2.6.2l-8.4 5.4c-.7.5-1.6.3-2-.4-.6-.7-.4-1.7.3-2.2l8.4-5.4c2.4-1.5 5-1.2 6.5.2a4.4 4.4 0 0 1 .5 5.6l-1.6 2.4-.7 1.2s.2.3 1.1.8l11.4 6.5a16.4 16.4 0 1 1-1.2 2.9l-2.8-1.6-9 25.4c0 .3-.3.6-.6.8l-7 4.4a16.5 16.5 0 0 1-28.1 16.9c-5-7.6-2.8-17.8 4.8-22.7ZM702 500.2c6.6-2.1 10.4-9 8.9-15.6l-13 4a1.5 1.5 0 0 1-1.9-1.8l2.9-12.5a13.3 13.3 0 0 0-13.7 17.4c2.3 7 9.8 10.8 16.8 8.5Zm16.6-21.3-14.3-14.5-1.7 7.4c4.4 1.4 8.2 4.5 10.2 9l5.8-1.9Zm2.5-1.8 14.4-21-2.6-2.5-26.5 8.6L721 477Zm-19.2-2.3-2.3 10 10.2-3.1a13.3 13.3 0 0 0-7.9-6.9Zm39.4-1.3a13.3 13.3 0 1 0 25.3-8.3 13.3 13.3 0 0 0-22.5-4.9l6 6 5.6 2.5a1.5 1.5 0 0 1-1.3 2.8l-6-2.7-.4-.3-5.7-5.7a13.3 13.3 0 0 0-1 10.6Zm-48.5-1.6c2.2-.7 4.5-1 6.8-.7l2-9.4-3.7-3.8-4 1.3a1.5 1.5 0 0 1-1-3l14.1-4.6a1.5 1.5 0 0 1 1 3l-6.8 2.2 2.7 2.8 26.5-8.6c-1.2-1.1-2-2.4-1.7-3.7.2-1.4 1.1-2.1 2-2.9l2.2-1.9c.5-.4.5-1.1.2-1.6-.3-.6-.8-1-2.5-.5l-9.5 3a1.5 1.5 0 1 1-1-2.9l9.5-3c2.7-1 5.2 0 6.2 1.8s.8 4.2-.9 5.6l-2.2 1.9c-.7.5-.9 1-1 1 0 0 .1.3.9 1l9.3 9.3a16.4 16.4 0 1 1-1.9 2.5l-2.3-2.3-15.2 22.2c-.2.3-.5.5-.8.6l-7.9 2.4a16.5 16.5 0 1 1-21-11.7ZM688 375c6.6 2.4 13.8-.7 16.7-6.9l-12.6-4.7a1.5 1.5 0 0 1-.5-2.7l10-8A13.3 13.3 0 0 0 680 358c-2.5 6.9 1 14.5 8 17Zm26.2-6.6-2.3-20.2-5.9 4.8c2.7 3.8 3.7 8.6 2.6 13.3l5.6 2.1Zm3.2.1 24.2-7.6-.5-3.7-26.2-9.5 2.5 20.8ZM703.6 355l-8 6.5 10 3.8c.8-3.6 0-7.3-2-10.3Zm31.9 23.2a13.3 13.3 0 1 0 25 9.1 13.3 13.3 0 0 0-14.7-17.7l1 8.3 2.9 5.5a1.5 1.5 0 0 1-2.8 1.4l-3-5.8v-.5l-1.1-8c-3.3 1.4-6 4-7.3 7.7Zm-37.3-31c2.2.8 4.2 2 5.8 3.5l7.5-6-.7-5.4-4-1.5a1.5 1.5 0 1 1 1-3l14 5.2a1.5 1.5 0 0 1-1 2.9l-6.7-2.5.4 4 26.2 9.5c-.2-1.6 0-3 1-4s2.1-1 3.3-1l2.9-.2c.6 0 1.1-.5 1.2-1.1 0-.6 0-1.3-1.7-2l-9.4-3.4a1.5 1.5 0 1 1 1-2.9l9.4 3.4c2.7 1 4 3.3 3.7 5.3-.2 2-1.9 3.7-4 3.8l-3 .2c-.9 0-1.3.1-1.4.2v1.3l1.7 13a16.4 16.4 0 1 1-3 .8l-.4-3.2-25.7 8.1h-1l-7.7-2.9a16.5 16.5 0 1 1-9.4-22.2ZM867.1 508c6.5 2.7 13.8 0 17-6l-12.4-5.5a1.5 1.5 0 0 1-.2-2.6l10.3-7.6a13.3 13.3 0 0 0-21.7 4.2c-2.9 6.8.2 14.6 7 17.4Zm26.5-5.3-1.3-20.3-6 4.5c2.4 3.9 3.2 8.8 1.8 13.4l5.5 2.4Zm3.2.3 24.5-6.4-.2-3.6-25.7-11 1.4 21Zm-13-14.3-8.3 6 9.7 4.3c1-3.5.4-7.3-1.5-10.3Zm30.6 24.8a13.3 13.3 0 1 0 24.5 10.4 13.3 13.3 0 0 0-13.8-18.4l.6 8.3 2.5 5.6a1.5 1.5 0 0 1-2.8 1.3l-2.6-6-.2-.4-.6-8.1a13.3 13.3 0 0 0-7.6 7.3Zm-35.6-33c2.1 1 4 2.3 5.5 4l7.8-5.8-.3-5.4-4-1.6a1.5 1.5 0 0 1 1.2-3v.1l13.7 5.8a1.5 1.5 0 0 1-1.1 2.9l-6.7-2.8.3 4 25.6 10.8c-.1-1.6.1-3 1.2-4 1-.8 2.2-.8 3.4-.8h2.9c.6 0 1.1-.5 1.2-1 .1-.7 0-1.4-1.6-2l-9.1-4a1.5 1.5 0 0 1 1.1-2.8l9.2 3.9c2.6 1 3.8 3.4 3.5 5.4-.4 2-2.2 3.6-4.4 3.6h-2.8l-1.4.1s-.2.3-.1 1.4l1 13a16.4 16.4 0 1 1-3 .6l-.3-3.1-26.1 6.7h-1l-7.6-3.3a16.5 16.5 0 1 1-8.1-22.7ZM1148.7 307.7c6.8-1.7 11-8.2 10-15l-13.1 3.1a1.5 1.5 0 0 1-1.9-2l3.7-12.2a13.3 13.3 0 0 0-14.8 16.4c1.8 7.1 9 11.5 16.1 9.7Zm18-20.1-13.2-15.5-2.2 7.3c4.3 1.6 7.9 5 9.6 9.6l5.9-1.4Zm2.7-1.7 15.8-19.8-2.4-2.8-27 6.7 13.6 16Zm-19-3.5-3 9.8 10.4-2.5c-1.4-3.4-4-6-7.4-7.3Zm39.4 1.3a13.3 13.3 0 1 0 3.7-12.9l5.5 6.3 5.5 3a1.5 1.5 0 1 1-1.5 2.7l-5.7-3.1-.4-.4-5.4-6c-1.9 3-2.6 6.7-1.7 10.4Zm-48.3-4.9c2.3-.6 4.6-.6 6.8-.2l2.8-9.3-3.5-4-4.2 1a1.6 1.6 0 1 1-.7-3l14.4-3.6a1.5 1.5 0 0 1 .8 3l-7 1.7 2.6 3 27-6.7c-1-1.3-1.8-2.5-1.4-3.9.3-1.3 1.3-2 2.2-2.7l2.3-1.7c.5-.4.6-1.1.3-1.7-.2-.5-.7-1-2.5-.6l-9.6 2.4a1.5 1.5 0 0 1-.8-3l9.7-2.4c2.7-.7 5.1.4 6 2.3 1 1.8.5 4.2-1.3 5.5l-2.3 1.7c-.7.5-1 .9-1 1 0 0 0 .3.7 1l8.7 10a16.4 16.4 0 1 1-2 2.3l-2.2-2.5-16.8 21.1c-.2.3-.5.5-.8.6l-8 1.9a16.4 16.4 0 1 1-20.2-13.2ZM899.9 306.5A13.3 13.3 0 0 0 904 289l-11.3 7.4a1.5 1.5 0 0 1-2.4-1.2l-.7-12.8a13.3 13.3 0 0 0-8.3 20.5 13.3 13.3 0 0 0 18.5 3.6Zm10-25-17.7-10 .4 7.5c4.6.1 9.1 2.1 12.3 5.8l5-3.4Zm2-2.5 8-24-3.2-1.9-23.1 15.6 18.3 10.3Zm-19.1 3.1.6 10.3 8.9-6c-2.5-2.7-6-4.2-9.5-4.3Zm37.5-12.2a13.3 13.3 0 1 0 22-14.9 13.3 13.3 0 0 0-23 1.6l7.4 4 6 1a1.5 1.5 0 0 1-.4 3l-6.4-1-.5-.2-7.1-3.9c-.8 3.5-.2 7.2 2 10.4Zm-47 12c1.9-1.4 4-2.2 6.2-2.6l-.5-9.6-4.7-2.7-3.6 2.4a1.5 1.5 0 0 1-1.8-2.5l12.4-8.4a1.5 1.5 0 0 1 1.8 2.6l-6 4 3.5 2 23-15.6c-1.4-.8-2.5-1.8-2.6-3.2-.2-1.3.5-2.3 1.1-3.3l1.6-2.4c.3-.5.2-1.2-.2-1.6-.5-.5-1.1-.8-2.6.2l-8.3 5.6a1.5 1.5 0 1 1-1.7-2.6l8.3-5.6c2.3-1.6 5-1.3 6.4.1a4.4 4.4 0 0 1 .7 5.6l-1.6 2.4-.7 1.3s.2.3 1.1.8l11.5 6.3a16.4 16.4 0 1 1-1.1 3l-2.8-1.7L914 282c0 .3-.3.6-.6.8l-6.8 4.5a16.5 16.5 0 1 1-23.5-5.5ZM753 283.3c6.2 3.1 13.7 1 17.4-4.9l-12-6.2a1.5 1.5 0 0 1 0-2.7l10.8-6.8a13.3 13.3 0 0 0-22 2.7 13.3 13.3 0 0 0 5.8 17.9Zm26.8-3.4.1-20.4-6.4 4.1c2.2 4 2.6 9 1 13.5l5.3 2.8Zm3.1.5 25-4.6V272L783 259.4v21Zm-12-15.2-8.7 5.5 9.5 5c1.2-3.6.8-7.3-.8-10.5Zm28.8 26.9a13.3 13.3 0 1 0 23.8 12.1 13.3 13.3 0 0 0-12.5-19.4v8.4l2.2 5.8a1.5 1.5 0 0 1-3 1l-2.2-6v-.6l-.1-8c-3.4 1-6.4 3.3-8.2 6.7Zm-33.2-35.4c2.1 1.1 4 2.6 5.3 4.3l8.2-5.1v-5.5l-3.8-1.9a1.5 1.5 0 1 1 1.4-2.8l13.2 6.8a1.5 1.5 0 1 1-1.4 2.8l-6.3-3.3v4l24.7 12.6c0-1.6.4-3 1.5-3.8 1.1-.9 2.3-.7 3.4-.6l3 .2c.5 0 1-.4 1.2-1 .2-.6.2-1.3-1.4-2.2l-8.9-4.5a1.5 1.5 0 0 1 1.4-2.8l8.9 4.6c2.5 1.3 3.6 3.7 3 5.7-.5 2-2.3 3.4-4.5 3.3l-2.9-.3h-1.4c0 .1-.2.4-.2 1.4v13.1a16.4 16.4 0 1 1-3.1.4V279l-26.4 5c-.3 0-.7 0-1-.2l-7.3-3.8a16.5 16.5 0 1 1-6.6-23.2ZM629.6 324.2a13.3 13.3 0 0 0 2.6-17.8l-10.5 8.4a1.5 1.5 0 0 1-2.5-1l-1.9-12.7a13.3 13.3 0 0 0-6.5 21.2c4.7 5.7 13 6.6 18.8 2Zm7.8-25.8L619 290l1 7.5c4.6-.3 9.3 1.3 12.8 4.6l4.7-3.7Zm1.7-2.6 6-24.7-3.4-1.5-21.7 17.5 19.1 8.7Zm-18.7 4.8 1.5 10.1 8.3-6.6a13.3 13.3 0 0 0-9.8-3.5Zm36.3-15.5a13.3 13.3 0 1 0 20.7-16.7 13.3 13.3 0 0 0-22.8 3.5l7.6 3.4 6.2.4a1.5 1.5 0 0 1-.2 3l-6.5-.4-.5-.1-7.4-3.3c-.5 3.6.4 7.3 2.9 10.2Zm-45.9 16c1.9-1.5 4-2.5 6-3l-1.3-9.6-5-2.3-3.2 2.7a1.5 1.5 0 0 1-2-2.4l11.6-9.3a1.5 1.5 0 0 1 2 2.3l-5.6 4.6 3.6 1.6 21.6-17.5c-1.5-.7-2.7-1.5-3-2.9-.2-1.3.4-2.4 1-3.4l1.3-2.5c.3-.6 0-1.3-.4-1.7-.5-.3-1.1-.6-2.5.5l-7.8 6.3a1.5 1.5 0 0 1-2-2.4l7.8-6.3c2.2-1.8 4.9-1.7 6.4-.5a4.4 4.4 0 0 1 1.2 5.5l-1.4 2.6-.5 1.3s.2.3 1.2.7l12 5.3a16.4 16.4 0 1 1-.9 3l-3-1.4-6.2 26.2c-.1.4-.3.7-.6.9l-6.4 5.1a16.5 16.5 0 1 1-23.9-3.4ZM415.3 524.8c6.9 0 12.5-5.5 13.1-12.6l-13.3-.1c-.9 0-1.6-.8-1.6-1.6 0-.3.1-.6.3-.8l6.5-11.4c-1.6-.7-3.3-1-5-1-7.3 0-13.2 6-13.2 13.7 0 7.6 5.9 13.8 13.2 13.8Zm22.1-15.7-9-18.8-3.9 6.8c3.8 2.7 6.4 7 7 12h6Zm3-1 20-16-1.7-3.3H431l9.3 19.4Zm-17.4-8.3-5.2 9.1 10.5.1c-.5-3.8-2.5-7-5.3-9.2Zm37.5 11.2c0 7.6 6 13.8 13.2 13.8 7.3 0 13.2-6.2 13.2-13.8 0-7.6-5.9-13.8-13.2-13.8-2.4 0-4.6.7-6.5 1.8l3.8 7.7 4.5 4.4c.6.6.6 1.6 0 2.2a1.5 1.5 0 0 1-2.1.1l-4.7-4.6-.3-.4-3.7-7.4a14 14 0 0 0-4.2 10Zm-45.2-17c2.3 0 4.5.6 6.6 1.5l4.9-8.6-2.5-5h-4.2c-.8 0-1.5-.7-1.6-1.6 0-.8.7-1.6 1.6-1.6h14.7c.9 0 1.6.7 1.6 1.6 0 .9-.7 1.6-1.5 1.6h-7.1l1.7 3.7h27.6c-.7-1.5-1-3-.5-4.2.7-1.3 1.8-1.8 2.8-2.2l2.7-1.2c.5-.2.8-1 .7-1.5-.1-.6-.5-1.3-2.3-1.3h-9.8c-.9 0-1.6-.7-1.6-1.6 0-.9.7-1.6 1.5-1.6h10c2.7 0 4.8 1.7 5.2 3.8.4 2-.5 4.3-2.6 5.2l-2.6 1.1-1.2.7s0 .4.4 1.4l6 12c2.3-1.4 5-2.2 8-2.2 8.9 0 16.2 7.7 16.2 17 0 9.4-7.3 17-16.3 17s-16.2-7.6-16.2-17c0-5.2 2.2-9.8 5.7-13l-1.4-3-21.2 17c-.3.2-.6.4-1 .4l-8.1-.1a16.6 16.6 0 0 1-16.2 15.7c-9 0-16.3-7.6-16.3-17 0-9.3 7.3-17 16.3-17ZM1016.5 104.3c6.8-1.7 11-8.3 10-15l-13.2 3c-.8.3-1.6-.2-1.8-1v-.9l3.7-12.3a13.3 13.3 0 0 0-14.9 16.4c1.8 7.2 9 11.6 16.2 9.8Zm18-20.2-13.2-15.4-2.2 7.3c4.3 1.6 7.9 5 9.5 9.5l6-1.4Zm2.7-1.6 15.8-19.9-2.5-2.8-27 6.8 13.7 16Zm-19-3.6-3 9.8 10.4-2.4c-1.4-3.5-4.1-6-7.4-7.4Zm39.4 1.4a13.3 13.3 0 1 0 25.8-6.5 13.3 13.3 0 0 0-22.1-6.4l5.5 6.3 5.4 3a1.5 1.5 0 0 1-1.5 2.7l-5.6-3.2c-.2 0-.3-.2-.5-.3l-5.3-6c-2 2.9-2.7 6.6-1.7 10.4Zm-48.3-5c2.3-.5 4.6-.5 6.8-.2l2.8-9.2-3.6-4.1-4.1 1a1.5 1.5 0 1 1-.8-3l14.5-3.6c.8-.2 1.6.3 1.9 1.1.2.9-.3 1.7-1.1 2l-7 1.7 2.6 3 27-6.8c-1.1-1.2-1.8-2.5-1.5-3.8.3-1.4 1.3-2 2.3-2.7l2.3-1.8c.4-.3.6-1 .3-1.6-.3-.5-.7-1-2.5-.6l-9.7 2.4a1.6 1.6 0 0 1-.7-3l9.7-2.4c2.7-.7 5 .4 6 2.2.9 1.9.5 4.2-1.3 5.5l-2.3 1.7-1 1s0 .3.7 1.1l8.7 9.9c2-1.9 4.4-3.3 7.2-4a16.4 16.4 0 1 1-9.3 6.3l-2.1-2.4-16.8 21c-.2.4-.5.5-.8.6l-8 2a16.5 16.5 0 0 1-32.1 6.7 16.4 16.4 0 0 1 11.9-20ZM859.6 97c6.4 2.7 13.7 0 17-6l-12.4-5.4a1.5 1.5 0 0 1-.3-2.7l10.4-7.6a13.3 13.3 0 0 0-21.7 4.2c-3 6.8.2 14.6 7 17.5Zm26.5-5.2-1.3-20.3-6.1 4.4c2.4 4 3.2 8.8 1.8 13.5l5.6 2.4Zm3.1.3 24.6-6.4-.3-3.7-25.6-10.9 1.3 21Zm-13-14.3-8.3 6 9.8 4.3c1-3.6.3-7.3-1.5-10.3Zm30.6 24.8a13.3 13.3 0 1 0 24.6 10.4 13.3 13.3 0 0 0-13.9-18.5l.7 8.3 2.5 5.7a1.5 1.5 0 1 1-2.8 1.2l-2.7-5.9-.1-.5-.6-8a13.3 13.3 0 0 0-7.7 7.3Zm-35.6-33c2.2 1 4 2.3 5.6 3.9l7.8-5.7-.4-5.4-4-1.7a1.5 1.5 0 1 1 1.3-2.9l13.7 5.9a1.5 1.5 0 1 1-1.2 2.8l-6.6-2.8.3 4 25.5 10.8c0-1.6.2-3 1.2-3.9 1-.9 2.3-.8 3.4-.8h3c.5 0 1-.5 1.2-1.1.1-.6 0-1.3-1.6-2l-9.2-4a1.5 1.5 0 1 1 1.2-2.8l9.2 4c2.6 1 3.8 3.4 3.4 5.4-.4 2-2.1 3.6-4.3 3.6h-4.3v1.5l1 13a16.4 16.4 0 1 1-3 .6l-.4-3.2-26 6.8h-1l-7.6-3.4a16.5 16.5 0 1 1-8.2-22.6ZM795.5 186.6c6.7-2.2 10.5-9 9-15.7l-13 4a1.5 1.5 0 0 1-2-1.8l3-12.5a13.3 13.3 0 0 0-13.7 17.4c2.2 7 9.7 10.9 16.7 8.6Zm16.6-21.3-14.3-14.5-1.7 7.4c4.4 1.3 8.2 4.5 10.2 8.9l5.8-1.8Zm2.6-1.9 14.3-20.9-2.6-2.6-26.5 8.6 14.8 15Zm-19.2-2.2-2.3 10 10.2-3.2a13.3 13.3 0 0 0-8-6.8Zm39.3-1.4a13.3 13.3 0 1 0 25.4-8.2 13.3 13.3 0 0 0-22.5-5l5.9 6 5.6 2.6a1.5 1.5 0 0 1-1.3 2.8l-5.9-2.8-.4-.3-5.8-5.7a13.3 13.3 0 0 0-1 10.6Zm-48.5-1.5c2.3-.8 4.6-1 6.8-.7l2.1-9.4-3.8-3.9-4 1.3a1.5 1.5 0 1 1-1-3l14.1-4.5a1.5 1.5 0 1 1 1 3l-6.8 2.1 2.8 2.8 26.4-8.5c-1.1-1.2-1.9-2.4-1.7-3.8.3-1.4 1.2-2.1 2-2.9l2.3-1.8c.4-.4.5-1.2.2-1.7s-.8-1-2.6-.5l-9.4 3.1a1.5 1.5 0 1 1-1-3l9.5-3c2.7-.9 5.1 0 6.2 1.9 1 1.7.7 4-1 5.5l-2.1 1.9-1 1s0 .3.8 1l9.4 9.3a16.4 16.4 0 1 1-1.9 2.5l-2.3-2.3L816 167c-.2.3-.5.5-.8.6l-7.8 2.5a16.5 16.5 0 1 1-21-11.7ZM1106.5 160.9c6.9 1 13.3-3.5 14.8-10.2l-13.3-2a1.5 1.5 0 0 1-1-2.5l8-10a13.3 13.3 0 0 0-20 9.7c-1 7.2 4.2 14 11.5 15Zm24.2-12-6.5-19.2-4.8 6c3.4 3 5.4 7.6 5.3 12.4l6 .9Zm3-.4 22.2-12.6-1.3-3.4-27.5-4 6.7 20Zm-16.2-10.5-6.4 8 10.5 1.6c0-3.7-1.5-7.1-4-9.6Zm36 16a13.3 13.3 0 1 0 8.3-10.5l2.8 7.9 3.9 4.8a1.5 1.5 0 1 1-2.5 2l-4-5.1-.3-.5-2.7-7.6c-2.9 2-5 5.2-5.5 9Zm-42.9-22.6c2.3.3 4.5 1.2 6.4 2.3l6-7.5-1.7-5.1-4.2-.6c-.9-.1-1.5-.9-1.4-1.7.1-.9.9-1.5 1.7-1.4l14.8 2a1.5 1.5 0 1 1-.4 3.2l-7-1 1.2 3.7 27.5 3.9c-.5-1.6-.7-3 .1-4.1.8-1.2 2-1.4 3.1-1.7l2.8-.7c.6-.2 1-.8 1-1.4-.1-.7-.4-1.3-2.2-1.6l-9.8-1.4c-.8 0-1.4-.8-1.3-1.7 0-.8.8-1.4 1.7-1.3l9.9 1.4c2.8.4 4.6 2.3 4.7 4.3.2 2-1.1 4.1-3.2 4.7l-2.8.7c-.9.2-1.3.4-1.3.5 0 0-.1.3.2 1.3l4.4 12.4a16.4 16.4 0 1 1-2.8 1.4l-1-3-23.5 13.2c-.3.2-.7.2-1 .2l-8.1-1.2a16.4 16.4 0 1 1-13.8-19.7ZM939 199.2a13.3 13.3 0 0 0 15.3-9.4L941 187a1.5 1.5 0 0 1-.9-2.5l8.6-9.6a13.3 13.3 0 0 0-20.4 8.6 13.3 13.3 0 0 0 10.5 15.7Zm24.8-10.7-5.5-19.6-5 5.7c3.1 3.3 5 8 4.5 12.7l6 1.2Zm3-.3 22.8-11.4-1-3.5-27.4-5.3 5.7 20.2Zm-15.6-11.3-6.9 7.6 10.5 2.2c.2-3.7-1.2-7.2-3.6-9.8Zm35 17.9a13.3 13.3 0 1 0 26.3 5 13.3 13.3 0 0 0-17.4-15.1l2.3 8 3.7 5c.5.7.4 1.7-.3 2.2-.7.5-1.7.3-2.2-.4l-3.8-5.2-.3-.5-2.2-7.8c-3 2-5.3 5-6 8.8Zm-41.6-24.9c2.3.5 4.4 1.4 6.3 2.7l6.4-7.2-1.5-5.2-4.2-.8a1.5 1.5 0 0 1 .6-3l14.6 2.8a1.5 1.5 0 1 1-.6 3l-7-1.4 1 3.8 27.4 5.3c-.5-1.5-.5-3 .3-4 .9-1.1 2-1.3 3.2-1.6l2.8-.5c.6-.2 1-.8 1-1.4 0-.6-.2-1.3-2-1.6l-9.7-2a1.5 1.5 0 1 1 .5-3l9.8 2c2.8.5 4.5 2.5 4.5 4.5s-1.3 4-3.5 4.5l-2.8.6c-.9.1-1.3.4-1.4.4l.3 1.3 3.6 12.6a16.4 16.4 0 1 1-2.9 1.3l-.8-3.2-24.1 12.1c-.3.2-.7.2-1 .1l-8-1.6a16.5 16.5 0 1 1-12.8-20.5ZM615.7 195.8a13.3 13.3 0 0 0 15.9-8.6l-13-3.4a1.5 1.5 0 0 1-.8-2.6l9-9.1a13.3 13.3 0 0 0-20.8 7.5 13.3 13.3 0 0 0 9.7 16.2Zm25.4-9.3-4.5-20-5.3 5.5c3 3.4 4.6 8.1 4 13l5.8 1.5Zm3.1-.2 23.3-10.2-.9-3.6-27-6.7 4.6 20.5Zm-15-12.1-7.3 7.3 10.3 2.6c.4-3.7-.8-7.2-3-10Zm34 19.7a13.3 13.3 0 1 0 26 6.4 13.3 13.3 0 0 0-16.6-16l2 8 3.3 5.2a1.5 1.5 0 0 1-2.6 1.7l-3.5-5.4-.2-.5-2-7.9a13.3 13.3 0 0 0-6.3 8.5Zm-40.3-27c2.3.6 4.4 1.6 6.1 3l6.8-6.9-1.1-5.3-4.2-1a1.5 1.5 0 0 1 .7-3l14.5 3.6a1.5 1.5 0 0 1-.7 3l-7-1.8.9 4 27 6.6c-.4-1.5-.4-3 .5-4 1-1 2-1.2 3.2-1.4l2.9-.4c.6-.1 1-.7 1-1.3 0-.6 0-1.3-1.9-1.8l-9.6-2.4a1.5 1.5 0 0 1 .7-3l9.7 2.4c2.8.7 4.3 2.9 4.2 4.9 0 2-1.5 4-3.7 4.2l-2.8.5c-.9 0-1.3.3-1.4.3l.2 1.4 3 12.7a16.4 16.4 0 1 1-3 1.1l-.7-3.1-24.7 10.7c-.3.2-.6.2-1 .1l-8-2a16.5 16.5 0 1 1-11.6-21.1ZM60 544a13.3 13.3 0 0 0 9.6-15.2l-13 3.4a1.5 1.5 0 0 1-1.9-2l3.5-12.3a13.3 13.3 0 0 0-14.6 16.7c2 7 9.2 11.3 16.4 9.4Zm17.6-20.4-13.5-15.2-2 7.3c4.3 1.5 8 4.9 9.7 9.4l5.8-1.5Zm2.7-1.7 15.4-20.2-2.5-2.7-26.9 7.2 14 15.7Zm-19-3.3-2.9 9.9 10.4-2.7c-1.5-3.4-4.3-6-7.6-7.2Zm39.3.7a13.3 13.3 0 1 0 25.8-6.9 13.3 13.3 0 0 0-22.3-6l5.6 6.1 5.5 3a1.5 1.5 0 1 1-1.4 2.7l-5.8-3-.4-.4-5.4-6c-2 3-2.6 6.8-1.6 10.5Zm-48.3-4c2.3-.7 4.6-.8 6.8-.4l2.6-9.3-3.6-4-4.2 1a1.5 1.5 0 0 1-.8-3l14.4-3.8a1.5 1.5 0 0 1 .9 3l-7 1.9 2.6 3 26.9-7.3c-1-1.2-1.8-2.4-1.5-3.8.3-1.4 1.3-2 2.2-2.8l2.3-1.7c.4-.4.6-1.1.3-1.7-.3-.5-.8-1-2.5-.6l-9.6 2.6a1.5 1.5 0 0 1-.9-3l9.7-2.6c2.7-.7 5.1.4 6 2.2 1 1.8.6 4.2-1.2 5.5l-2.2 1.8c-.8.5-1 .9-1 1 0 0 0 .3.7 1l8.8 9.8a16.4 16.4 0 1 1-2 2.4l-2.2-2.5-16.3 21.4c-.2.3-.5.5-.9.6l-8 2a16.5 16.5 0 1 1-20.3-12.8ZM1098.5-10a13.3 13.3 0 0 0 15.3-9.4l-13.2-2.7a1.5 1.5 0 0 1-.8-2.6l8.5-9.6a13.3 13.3 0 0 0-20.4 8.6 13.3 13.3 0 0 0 10.5 15.7Zm24.8-10.6-5.5-19.6-5 5.6c3.2 3.3 5 8 4.6 12.7l5.9 1.3Zm3.1-.4 22.7-11.3-1-3.6-27.4-5.3 5.7 20.2Zm-15.7-11.3-6.9 7.7 10.5 2.1c.2-3.7-1.2-7.2-3.6-9.8Zm35.1 17.9a13.3 13.3 0 1 0 8.8-10.1l2.4 8 3.6 5c.5.7.4 1.7-.3 2.2-.7.5-1.7.3-2.2-.4l-3.8-5.2-.2-.5-2.3-7.8c-3 2-5.3 5-6 8.8Zm-41.7-24.8c2.4.4 4.5 1.3 6.3 2.6l6.4-7.2-1.5-5.2-4.1-.8a1.5 1.5 0 0 1 .5-3l14.6 2.8c.9.1 1.4 1 1.3 1.8-.2.8-1 1.4-1.8 1.2l-7-1.3 1 3.8 27.3 5.3c-.4-1.6-.5-3 .3-4.1.9-1.1 2-1.3 3.2-1.5l2.8-.6c.6-.1 1-.8 1-1.4 0-.6-.2-1.3-2-1.6l-9.7-2a1.5 1.5 0 0 1 .5-3l9.8 2c2.8.5 4.5 2.5 4.5 4.6 0 2-1.3 4-3.5 4.4l-2.8.6-1.3.4s-.1.3.2 1.4l3.7 12.5a16.4 16.4 0 1 1-2.9 1.3l-1-3.1-24 12c-.3.2-.7.2-1 .2l-8-1.7a16.5 16.5 0 1 1-12.8-20.4ZM857.3 23c6.2-3 9-10.3 6.6-16.7L851.7 12a1.5 1.5 0 0 1-2.2-1.5l1-12.8a13.3 13.3 0 0 0-11.1 19.1 13.3 13.3 0 0 0 17.9 6.2ZM870.7-.4l-16.2-12.4-.6 7.6c4.5.7 8.7 3.3 11.3 7.4l5.5-2.6Zm2.3-2.2 11.3-22.7-3-2.2-25 12.2L873-2.6Zm-19.4.5L852.8 8l9.6-4.6c-2-3-5.3-5-8.8-5.6ZM892.4-9a13.3 13.3 0 1 0 24-11.7 13.3 13.3 0 0 0-23-1.7l6.7 5 6 1.8a1.5 1.5 0 0 1-1 3l-6.2-1.9-.5-.2-6.5-4.9c-1.2 3.3-1.1 7.2.5 10.6Zm-48.2 5.3c2.1-1 4.4-1.6 6.6-1.7l.8-9.6-4.3-3.3-3.8 1.9a1.5 1.5 0 1 1-1.4-2.8l13.4-6.5a1.5 1.5 0 0 1 1.4 2.7l-6.5 3.2 3.1 2.4 25-12.2c-1.3-1-2.2-2-2.2-3.5 0-1.3.9-2.2 1.6-3l2-2.3c.4-.4.3-1.1 0-1.6-.4-.5-1-1-2.6-.1l-9 4.3a1.5 1.5 0 0 1-1.4-2.7l9-4.4c2.6-1.3 5.1-.6 6.4 1 1.2 1.6 1.3 4-.1 5.6l-2 2.2-.8 1.1 1 1 10.5 7.8a16.4 16.4 0 1 1-1.5 2.7l-2.6-2-12 24.2c-.1.3-.4.6-.7.7l-7.4 3.5a16.5 16.5 0 1 1-22.5-8.6ZM710.6 46.3c5.7 4 13.4 2.9 17.8-2.4l-11-7.8a1.5 1.5 0 0 1 .3-2.7l11.8-5.3a13.3 13.3 0 0 0-22.1-.4c-4.3 6-2.9 14.4 3.2 18.6Zm27 .4 3-20.2-7 3.2c1.6 4.3 1.4 9.2-1 13.5l5 3.5Zm3 1 25.3-1.2.5-3.7-22.8-16-3 20.8Zm-9.8-16.8-9.3 4.2 8.6 6.2c1.7-3.3 1.9-7 .7-10.4Zm24.8 30.6a13.3 13.3 0 1 0 21.9 15.3 13.3 13.3 0 0 0-9.7-20.9l-1.1 8.3 1.3 6a1.5 1.5 0 0 1-3 .7l-1.4-6.4V64l1-8c-3.5.5-6.8 2.4-9 5.5Zm-28-39.6c2 1.4 3.5 3 4.7 5l8.8-4 .8-5.4-3.5-2.4a1.5 1.5 0 0 1 1.7-2.6l12.2 8.6a1.5 1.5 0 0 1-1.7 2.5l-5.9-4-.6 3.8 22.8 16c.2-1.6.7-3 2-3.6 1.2-.7 2.4-.4 3.5-.1l2.8.6c.6.1 1.2-.3 1.5-.8.2-.6.3-1.3-1.2-2.3l-8.1-5.7a1.5 1.5 0 0 1 1.7-2.6l8.2 5.7c2.3 1.7 3 4.2 2.2 6a4.4 4.4 0 0 1-5 2.7l-2.8-.6-1.4-.2s-.2.3-.3 1.3l-1.8 13c2.7.3 5.4 1.3 7.8 3a16.4 16.4 0 1 1-11-3l.5-3.2-26.9 1.2c-.3 0-.7 0-1-.3l-6.6-4.8a16.5 16.5 0 1 1-3.3-23.8ZM979 466.1a13.3 13.3 0 0 0 17.8-2.6l-11.1-7.7a1.5 1.5 0 0 1 .2-2.7l11.6-5.4a13.3 13.3 0 0 0-22.1 0A13.3 13.3 0 0 0 979 466Zm27 0 2.6-20.2-6.9 3.2c1.7 4.3 1.5 9.2-.7 13.5l5 3.5Zm3 .9 25.3-1.6.5-3.7-23.1-15.6-2.7 20.9Zm-10-16.6-9.4 4.4 8.8 6c1.6-3.3 1.8-7 .5-10.4Zm25.3 30.2a13.3 13.3 0 1 0 12-5.8l-1 8.2 1.5 6c.2 1-.4 1.7-1.2 2-.8.1-1.7-.4-1.9-1.2l-1.4-6.3v-.6l.9-8c-3.5.6-6.8 2.5-9 5.7Zm-28.7-39.1c2 1.3 3.5 3 4.7 4.8l8.8-4 .6-5.4-3.5-2.4a1.5 1.5 0 0 1 1.7-2.6l12.4 8.3c.7.5.9 1.4.4 2.2a1.5 1.5 0 0 1-2.2.4l-5.9-4-.5 4 23 15.5c.3-1.7.7-3 2-3.7 1.2-.6 2.3-.4 3.5-.1l2.8.5c.6.1 1.2-.3 1.4-.8.3-.6.4-1.3-1.1-2.3l-8.3-5.6c-.7-.4-.9-1.4-.4-2.1a1.5 1.5 0 0 1 2.1-.4l8.3 5.5c2.3 1.6 3 4.1 2.3 6a4.4 4.4 0 0 1-5 2.8l-2.7-.6-1.5-.2s-.2.3-.3 1.4l-1.5 13a16.4 16.4 0 1 1-3.1 0l.4-3.2-27 1.7-1-.3-6.7-4.7a16.5 16.5 0 1 1-3.7-23.7ZM986.7 26c6.3-3 9-10.3 6.6-16.7L981 15a1.5 1.5 0 0 1-2.2-1.6l1-12.8c-1.6.1-3.3.6-5 1.4a13.3 13.3 0 1 0 11.7 24ZM1000 2.6 984-9.8l-.6 7.6c4.6.7 8.8 3.3 11.4 7.4l5.4-2.6Zm2.3-2.2 11.3-22.7-3-2.2-25 12.2L1002.4.4ZM983 1l-.9 10.2 9.6-4.6c-2-3-5.3-5-8.7-5.6Zm38.8-6.9a13.3 13.3 0 1 0 24-11.7 13.3 13.3 0 0 0-23-1.7l6.6 5 6 1.8a1.5 1.5 0 1 1-1 3l-6.2-1.9-.4-.2-6.5-4.9c-1.3 3.3-1.2 7.2.5 10.6ZM973.6-.7c2.2-1 4.4-1.6 6.6-1.7l.8-9.6-4.3-3.3-3.8 1.9a1.5 1.5 0 0 1-1.4-2.8l13.4-6.5a1.5 1.5 0 0 1 1.4 2.8l-6.5 3.1 3.2 2.4 25-12.2c-1.4-1-2.3-2-2.2-3.4 0-1.4.8-2.3 1.6-3.2l1.9-2.1c.4-.5.3-1.2 0-1.7-.4-.5-1-1-2.6-.1l-9 4.3a1.5 1.5 0 0 1-1.4-2.7l9-4.4c2.6-1.3 5.1-.6 6.4 1 1.3 1.6 1.3 4-.1 5.6l-2 2.2-.8 1.1 1 1 10.6 7.8c1.5-2.2 3.6-4.1 6.2-5.4a16.4 16.4 0 1 1-7.8 8.1l-2.6-2-12 24.2c-.1.3-.4.6-.7.7L996.1 8a16.5 16.5 0 1 1-22.5-8.6ZM1101.4 562.7c6.9 1.2 13.4-3 15.2-9.7l-13.3-2.5a1.5 1.5 0 0 1-.9-2.5l8.4-9.7a13.3 13.3 0 0 0-20.2 9 13.3 13.3 0 0 0 10.8 15.4Zm24.6-11-5.8-19.6-5 5.8c3.3 3.2 5.2 7.8 4.9 12.6l6 1.1Zm3.1-.5 22.6-11.7-1.2-3.5-27.4-4.9 6 20.1Zm-15.9-11-6.7 7.8 10.5 2c.1-3.8-1.3-7.2-3.8-9.8Zm35.5 17.3a13.3 13.3 0 1 0 26.2 4.6 13.3 13.3 0 0 0-17.6-14.9l2.5 8 3.7 5a1.5 1.5 0 0 1-2.5 1.8l-3.9-5.2-.2-.4-2.4-7.8c-3 2-5.2 5-5.8 8.9Zm-42.1-24.1c2.3.4 4.4 1.3 6.3 2.5l6.3-7.3-1.6-5.2-4.2-.7c-.9-.2-1.4-1-1.3-1.8.2-.8 1-1.4 1.8-1.3l14.7 2.6c.8.2 1.4 1 1.3 1.8-.2.8-1 1.4-1.8 1.3l-7.1-1.3 1.1 3.8 27.4 4.8c-.5-1.5-.5-3 .3-4 .8-1.2 2-1.4 3.1-1.6l2.8-.7c.6-.1 1-.7 1-1.3 0-.6-.2-1.3-2-1.6l-9.8-1.8a1.5 1.5 0 0 1 .5-3l9.8 1.7c2.8.5 4.5 2.5 4.6 4.6 0 2-1.3 4-3.4 4.5l-2.8.6-1.3.4s-.1.3.2 1.4l3.9 12.5a16.4 16.4 0 1 1-2.8 1.3l-1-3.1-23.9 12.5c-.3.1-.7.2-1 .1l-8-1.5a16.4 16.4 0 1 1-13.1-20.2ZM875.2 407.3c7-.8 12-6.7 12-13.5l-13.5 1.2a1.5 1.5 0 0 1-1.5-2.1l5.4-11.7a13.3 13.3 0 0 0-17 14.2c.8 7.3 7.3 12.6 14.6 11.9Zm20.7-17.5-11-17.1-3.2 6.9c4 2.2 7.1 6 8.2 10.8l6-.6Zm2.9-1.2L917 371l-2-3-27.7 2.8 11.4 17.7Zm-18.4-6.2-4.3 9.3 10.7-1c-1-3.6-3.3-6.6-6.4-8.3Zm38.8 6.8a13.3 13.3 0 1 0 26.5-2.8 13.3 13.3 0 0 0-21-9.4l4.6 7 5 3.7a1.5 1.5 0 1 1-2 2.5l-5-4c-.2 0-.4-.2-.5-.3l-4.4-6.8a13.3 13.3 0 0 0-3.2 10.1Zm-47-11.5c2.3-.3 4.6 0 6.7.7l4-8.8-3-4.6-4.2.5a1.5 1.5 0 0 1-.3-3l14.8-1.6a1.5 1.5 0 0 1 .4 3l-7.2.8 2.2 3.3 27.6-2.9c-.9-1.4-1.4-2.7-.9-4 .5-1.3 1.6-1.8 2.6-2.4l2.6-1.4c.5-.3.7-1 .5-1.6-.2-.5-.6-1.1-2.4-1l-9.9 1.1a1.5 1.5 0 0 1-.3-3l9.9-1.1c2.8-.3 5 1.2 5.7 3 .6 2-.1 4.3-2 5.3l-2.6 1.4c-.8.4-1.1.8-1.2.8 0 0 0 .4.6 1.2l7.2 11a16.4 16.4 0 1 1-2.4 2l-1.7-2.7-19.5 18.6c-.3.2-.6.4-1 .4l-8.1.8a16.5 16.5 0 1 1-18.2-15.8ZM526.7 441.8a13.3 13.3 0 0 0 9.7-15.2l-13 3.4a1.5 1.5 0 0 1-2-2l3.6-12.3a13.3 13.3 0 0 0-14.6 16.7c2 7 9.2 11.3 16.3 9.4Zm17.7-20.4L531 406l-2 7.4c4.2 1.5 7.9 4.9 9.6 9.4l6-1.5Zm2.6-1.7 15.5-20.2-2.5-2.7L533 404l14 15.7Zm-19-3.3-2.8 9.9 10.3-2.7c-1.4-3.4-4.2-6-7.5-7.2Zm39.4.7a13.3 13.3 0 1 0 25.7-7 13.3 13.3 0 0 0-22.2-6l5.6 6.2 5.5 3a1.5 1.5 0 0 1-1.5 2.7l-5.7-3-.4-.4-5.5-6c-1.9 3-2.5 6.8-1.5 10.5Zm-48.4-4c2.3-.7 4.6-.8 6.8-.4l2.6-9.3-3.6-4-4 1a1.5 1.5 0 0 1-1-3h.1l14.4-3.8a1.5 1.5 0 0 1 .8 3l-7 1.9 2.7 2.9 26.9-7.2c-1.1-1.2-1.8-2.5-1.5-3.8.3-1.4 1.2-2 2.1-2.8l2.3-1.7c.5-.4.6-1.1.3-1.7-.2-.5-.7-1-2.5-.6l-9.6 2.6a1.5 1.5 0 1 1-.8-3l9.6-2.6c2.8-.7 5.2.4 6 2.2 1 1.8.6 4.2-1 5.5l-2.4 1.8c-.7.5-1 .9-1 1 0 0 0 .3.8 1l8.8 9.8a16.4 16.4 0 1 1-2 2.4l-2.2-2.5-16.4 21.4c-.2.3-.5.5-.8.6l-8 2A16.5 16.5 0 1 1 519 413ZM352.7 395.5c5.4 4.5 13.2 4 18-.8l-10.2-8.8a1.5 1.5 0 0 1 .5-2.6L373 379a13.3 13.3 0 0 0-22-2.4c-4.8 5.7-4 14 1.6 18.8Zm26.9 2.7 4.7-19.8-7.2 2.5c1.2 4.5.6 9.4-2.1 13.4l4.6 4Zm2.9 1.2 25.4 1.1.8-3.6-21.4-17.9-4.8 20.4Zm-8.3-17.5-9.7 3.4 8.1 7c2-3.2 2.5-7 1.6-10.4Zm22 32.7a13.3 13.3 0 1 0 20.5 17.1 13.3 13.3 0 0 0-7.8-21.7l-1.9 8.2.8 6.1a1.5 1.5 0 0 1-3 .4l-.9-6.4v-.5l1.8-8c-3.5.2-7 1.9-9.4 4.8Zm-24.3-42c1.8 1.6 3.2 3.4 4.1 5.4l9.1-3.1 1.3-5.3-3.3-2.8a1.5 1.5 0 1 1 2-2.4l11.4 9.6a1.5 1.5 0 1 1-2 2.4l-5.5-4.6-.9 3.8 21.3 18c.4-1.7 1-3 2.3-3.5 1.3-.5 2.4-.1 3.5.2l2.8.9c.5.1 1.2-.2 1.5-.7.3-.6.4-1.3-1-2.4l-7.6-6.4a1.5 1.5 0 1 1 2-2.4l7.6 6.4c2.2 1.8 2.7 4.4 1.7 6.2-1 1.8-3 2.9-5.2 2.2l-2.7-.9-1.4-.2s-.2.2-.5 1.2l-2.8 12.8a16.4 16.4 0 1 1-3.1-.3l.7-3.1-27-1.2-.9-.3-6.2-5.4a16.5 16.5 0 1 1-1.2-24ZM220.2 441.8a13.3 13.3 0 0 0 4.5-17.4l-11.4 7.2a1.5 1.5 0 0 1-2.3-1.3l-.5-12.8c-1.7.3-3.3 1-4.8 2a13.3 13.3 0 1 0 14.5 22.4Zm10.5-25-17.6-10.2.3 7.6c4.6.1 9.1 2.2 12.2 6l5.1-3.3Zm2-2.3 8.4-24-3.2-1.8-23.3 15.2 18.1 10.6Zm-19.1 2.8.4 10.2 9-5.7a13.3 13.3 0 0 0-9.4-4.5Zm37.6-11.6a13.3 13.3 0 1 0 22.4-14.5 13.3 13.3 0 0 0-23 1.1l7.2 4.2 6.1 1a1.5 1.5 0 0 1-.5 3.1l-6.4-1.1-.5-.2-7-4c-.9 3.4-.4 7.2 1.7 10.4ZM204 416.8c2-1.3 4.1-2 6.3-2.4l-.3-9.6-4.7-2.8-3.6 2.3a1.5 1.5 0 1 1-1.7-2.5l12.5-8.2a1.5 1.5 0 0 1 1.7 2.6l-6 4 3.4 2 23.3-15.2c-1.4-.8-2.4-1.8-2.6-3.2-.1-1.4.6-2.3 1.2-3.3l1.7-2.4c.3-.5.2-1.2-.3-1.6-.4-.5-1-.8-2.5.2L224 382a1.5 1.5 0 0 1-1.7-2.6l8.4-5.4c2.4-1.6 5-1.3 6.4.2a4.4 4.4 0 0 1 .6 5.6l-1.6 2.4-.7 1.2s.2.3 1.1.8l11.4 6.5c1.2-2.4 3.1-4.5 5.6-6a16.4 16.4 0 1 1-6.8 9l-2.8-1.7-9 25.4c-.1.3-.3.6-.6.8l-7 4.4a16.5 16.5 0 1 1-23.3-5.9ZM-32.6 482.4c6.6-2.2 10.4-9 8.8-15.7l-12.8 4a1.5 1.5 0 0 1-2-1.8l2.8-12.5a13.3 13.3 0 0 0-13.7 17.4c2.4 7 9.9 10.8 16.9 8.6ZM-16 461l-14.4-14.4-1.6 7.4c4.4 1.3 8.2 4.4 10.2 8.8l5.8-1.8Zm2.5-1.8 14.4-21-2.7-2.5-26.5 8.6 14.8 15Zm-19.2-2.2-2.3 10 10.2-3.2a13.3 13.3 0 0 0-8-6.8Zm39.4-1.4a13.3 13.3 0 1 0 25.3-8.3 13.3 13.3 0 0 0-22.5-4.8l6 5.8L21 451a1.5 1.5 0 1 1-1.3 2.8L14 451c-.2 0-.4-.2-.5-.3L7.7 445a13.3 13.3 0 0 0-1 10.6Zm-48.5-1.5c2.2-.8 4.5-1 6.7-.8l2.2-9.4-3.8-3.8-4.1 1.3a1.5 1.5 0 1 1-1-3l14.2-4.5a1.5 1.5 0 0 1 1 2.9l-6.9 2.2 2.8 2.8 26.5-8.6c-1.2-1.1-2-2.3-1.7-3.7.2-1.4 1.1-2.1 2-2.9l2.2-1.9c.5-.4.5-1 .2-1.6-.3-.5-.8-1-2.5-.5l-9.5 3a1.5 1.5 0 0 1-1-2.8l9.5-3.1c2.7-1 5.2 0 6.2 1.8s.8 4.2-.9 5.6l-2.2 1.9c-.7.5-1 1-1 1s.1.3.9 1l9.3 9.3a16.4 16.4 0 1 1-1.9 2.5l-2.3-2.3-15.2 22.2c-.2.3-.5.5-.9.6l-7.8 2.5a16.5 16.5 0 1 1-21-11.7ZM452.3 333c6.4 2.8 13.7.1 17-6l-12.4-5.3a1.5 1.5 0 0 1-.3-2.7l10.4-7.6a13.3 13.3 0 0 0-21.7 4.2c-3 6.8.2 14.6 7 17.5Zm26.5-5.2-1.3-20.3-6.1 4.5c2.4 4 3.2 8.8 1.8 13.4l5.6 2.4Zm3.1.3 24.6-6.3-.3-3.7-25.6-10.9 1.3 21Zm-13-14.3-8.3 6.1 9.8 4.3c1-3.6.3-7.3-1.5-10.4Zm30.6 24.8A13.3 13.3 0 1 0 524 349a13.3 13.3 0 0 0-13.8-18.4l.7 8.3 2.5 5.7a1.5 1.5 0 0 1-2.8 1.2l-2.7-5.9-.1-.5-.6-8a13.3 13.3 0 0 0-7.7 7.2Zm-35.6-33c2.2 1 4 2.3 5.6 4l7.8-5.7-.4-5.4-4-1.7a1.5 1.5 0 1 1 1.3-2.9l13.7 5.8a1.5 1.5 0 0 1-1.2 3v-.1l-6.6-2.8.2 4 25.6 10.8c0-1.6.1-3 1.2-4 1-.8 2.3-.8 3.4-.8h3c.5 0 1-.4 1.2-1 0-.6 0-1.4-1.6-2l-9.2-4a1.5 1.5 0 1 1 1.2-2.8l9.2 3.9c2.6 1.1 3.8 3.4 3.4 5.4-.4 2-2.1 3.7-4.3 3.7H509c0 .1-.2.4 0 1.4l.9 13.1a16.4 16.4 0 1 1-3 .6l-.3-3.2-26 6.8-1-.1-7.6-3.3a16.5 16.5 0 1 1-8.2-22.6ZM286.6 343c6.8-1.7 11-8.2 10-15l-13.1 3.1a1.5 1.5 0 0 1-1.9-2l3.7-12.2a13.3 13.3 0 0 0-14.8 16.4c1.8 7.2 9 11.5 16.1 9.7Zm18-20.1-13.2-15.4-2.2 7.2c4.3 1.7 7.9 5 9.6 9.6l5.9-1.4Zm2.7-1.6 15.8-20-2.4-2.7-27 6.7 13.6 16Zm-19-3.6-3 9.8 10.4-2.5c-1.4-3.4-4-6-7.4-7.3Zm39.4 1.3a13.3 13.3 0 1 0 25.9-6.4 13.3 13.3 0 0 0-22.2-6.4l5.5 6.2 5.5 3a1.5 1.5 0 1 1-1.5 2.7l-5.7-3.1-.4-.3-5.4-6.1c-1.9 3-2.6 6.7-1.7 10.4Zm-48.3-4.9c2.3-.5 4.6-.6 6.8-.2l2.8-9.2-3.5-4.1-4.2 1a1.5 1.5 0 0 1-.8-3L295 295a1.5 1.5 0 0 1 .8 3l-7 1.7 2.6 3 27-6.7c-1-1.2-1.7-2.5-1.4-3.8.3-1.4 1.3-2 2.2-2.8l2.3-1.7c.5-.4.6-1 .3-1.6-.2-.6-.7-1.1-2.5-.7l-9.6 2.4a1.5 1.5 0 0 1-.8-3l9.7-2.4c2.7-.7 5.1.5 6 2.3 1 1.8.5 4.2-1.3 5.5l-2.3 1.7c-.7.5-1 .9-1 1 0 0 0 .3.7 1l8.7 10a16.4 16.4 0 1 1-2 2.3l-2.2-2.5-16.7 21.1-.9.6-8 1.9a16.5 16.5 0 1 1-20.2-13.2ZM140.7 255.9a13.3 13.3 0 0 0 18-1.5L148 246a1.5 1.5 0 0 1 .4-2.6l12-4.7a13.3 13.3 0 0 0-22-1.6 13.3 13.3 0 0 0 2.2 18.8Zm27 1.8 4-20-7.2 2.8c1.4 4.4 1 9.3-1.6 13.4l4.7 3.8Zm2.9 1 25.3.3.7-3.7-22-17.1-4 20.6Zm-9-17.1-9.5 3.7 8.3 6.7c1.9-3.3 2.3-7 1.3-10.4Zm23.2 31.9a13.3 13.3 0 1 0 21 16.4 13.3 13.3 0 0 0-8.5-21.4l-1.6 8.2 1 6a1.5 1.5 0 0 1-3 .6l-1-6.4v-.6l1.5-8c-3.6.4-7 2.1-9.4 5.2Zm-25.8-41c1.8 1.4 3.3 3.1 4.4 5.1l9-3.5 1-5.3-3.4-2.6a1.5 1.5 0 0 1 2-2.5l11.7 9.2a1.5 1.5 0 1 1-2 2.4l-5.6-4.4-.7 3.9 21.9 17.1c.3-1.6.9-2.9 2.1-3.5 1.3-.6 2.4-.2 3.5.1l2.8.8c.6.1 1.2-.2 1.5-.8.3-.5.4-1.2-1-2.3l-7.8-6.2a1.5 1.5 0 0 1 1.8-2.4l7.9 6.1c2.2 1.8 2.8 4.3 1.9 6.2-.9 1.8-3 3-5.1 2.4l-2.8-.8c-.9-.3-1.3-.2-1.4-.3 0 0-.2.3-.4 1.3l-2.4 13c2.6.3 5.3 1.4 7.6 3.2a16.4 16.4 0 1 1-10.8-3.4l.7-3.2-27-.2c-.3 0-.7-.2-1-.4l-6.4-5.1a16.5 16.5 0 1 1-2-24ZM82.7 376.7a13.3 13.3 0 0 0 4.2-17.5l-11.3 7.4a1.5 1.5 0 0 1-2.3-1.2l-.8-12.8a13.3 13.3 0 0 0-8.3 20.5 13.3 13.3 0 0 0 18.5 3.6Zm10-25.1-17.7-10 .4 7.6c4.6 0 9.2 2 12.3 5.7l5-3.3Zm2-2.5 8-24-3.2-1.8-23 15.6 18.2 10.3Zm-19 3.2.5 10.2 8.9-5.8c-2.5-2.8-6-4.3-9.5-4.4ZM113 340a13.3 13.3 0 1 0 22-15 13.3 13.3 0 0 0-23 1.6l7.4 4 6.1 1a1.5 1.5 0 0 1-.5 3l-6.4-1-.5-.1-7-4c-.9 3.5-.3 7.3 1.9 10.5ZM66 352c2-1.3 4-2.2 6.3-2.6l-.6-9.6-4.7-2.6-3.6 2.4a1.5 1.5 0 0 1-1.7-2.6l12.3-8.3a1.5 1.5 0 1 1 1.8 2.5l-6 4 3.5 2 23-15.6c-1.4-.8-2.4-1.7-2.6-3.1-.2-1.4.5-2.4 1.2-3.3l1.5-2.4c.4-.5.2-1.3-.2-1.7-.4-.4-1-.8-2.6.3l-8.2 5.5a1.5 1.5 0 0 1-1.8-2.5l8.3-5.6c2.3-1.6 5-1.3 6.4 0a4.4 4.4 0 0 1 .7 5.7l-1.6 2.4c-.5.7-.6 1.2-.6 1.2s.1.3 1 .8l11.6 6.3a16.4 16.4 0 1 1-1.1 3l-3-1.6L97 352c-.1.4-.4.6-.6.8l-6.9 4.6a16.5 16.5 0 1 1-23.4-5.5ZM491.4 168c7 0 12.8-5.2 13.4-12h-13.6c-.8 0-1.5-.8-1.5-1.6 0-.3 0-.5.2-.8l6.6-10.7c-1.5-.7-3.3-1-5-1-7.4 0-13.4 5.8-13.4 13 0 7.3 6 13 13.3 13ZM514 153l-9.2-17.8-3.9 6.4a16 16 0 0 1 7 11.4h6Zm3-.9 20.1-15.1-1.7-3.2h-27.9l9.5 18.3Zm-17.7-7.9L494 153l10.7.1a13 13 0 0 0-5.5-8.7Zm38 10.6c0 7.3 6 13 13.3 13 7.4 0 13.4-5.8 13.4-13s-6-13-13.4-13c-2.4 0-4.6.6-6.6 1.7l3.9 7.2 4.5 4.2c.7.5.7 1.5.1 2.1-.6.6-1.6.7-2.2 0l-4.7-4.2-.4-.5-3.7-7a12.9 12.9 0 0 0-4.2 9.5Zm-45.8-16c2.4 0 4.7.4 6.7 1.3l5-8-2.5-4.8h-4.3c-.8 0-1.5-.7-1.5-1.5s.6-1.5 1.5-1.5h15c.8 0 1.5.6 1.5 1.5 0 .8-.7 1.5-1.5 1.5H504l1.8 3.4h27.8c-.7-1.4-1-2.7-.4-4 .6-1.2 1.7-1.6 2.8-2l2.7-1c.5-.3.8-1 .7-1.6-.1-.6-.5-1.2-2.3-1.2h-10c-.8 0-1.5-.6-1.5-1.5 0-.8.6-1.5 1.5-1.5h10c2.9 0 4.9 1.7 5.3 3.6.4 2-.5 4-2.6 5l-2.6 1c-.9.3-1.2.6-1.3.6 0 0 0 .4.5 1.3l6 11.4c2.4-1.3 5.1-2 8-2 9.1 0 16.5 7.2 16.5 16 0 8.9-7.4 16.1-16.5 16.1-9 0-16.4-7.2-16.4-16 0-5 2.3-9.4 5.9-12.4l-1.5-2.8-21.4 16c-.3.3-.6.4-1 .4h-8.2a16.3 16.3 0 0 1-16.5 14.8c-9 0-16.4-7.2-16.4-16 0-9 7.4-16.1 16.4-16.1ZM355.7 117.3a13.3 13.3 0 0 0 15.9-8.6l-13.1-3.4a1.5 1.5 0 0 1-.7-2.5l9-9.1a13.3 13.3 0 0 0-20.8 7.5 13.3 13.3 0 0 0 9.7 16.1Zm25.4-9.3-4.5-19.8-5.3 5.4c3 3.4 4.6 8.1 4 13l5.8 1.4Zm3.1-.2 23.3-10.1-.9-3.6-27-6.7 4.6 20.4Zm-15-12-7.3 7.2 10.3 2.7c.4-3.7-.8-7.2-3-10Zm34 19.6a13.3 13.3 0 1 0 26 6.5 13.3 13.3 0 0 0-16.6-16l1.9 8 3.4 5.2a1.5 1.5 0 1 1-2.6 1.7l-3.5-5.4-.3-.5-1.8-7.9a13.3 13.3 0 0 0-6.5 8.4Zm-40.3-27c2.3.6 4.4 1.7 6.1 3l6.8-6.8-1.2-5.3-4.1-1a1.5 1.5 0 0 1 .7-3l14.5 3.6a1.5 1.5 0 0 1-.7 3l-7-1.8.9 3.9 27 6.7c-.4-1.6-.4-3 .5-4s2-1.2 3.2-1.4l2.9-.4c.6-.1 1-.7 1-1.3 0-.6-.1-1.3-1.9-1.8l-9.6-2.4a1.5 1.5 0 0 1 .7-3l9.7 2.4c2.7.7 4.3 2.8 4.2 4.9 0 2-1.5 3.9-3.7 4.2l-2.8.4-1.4.4.2 1.4 3 12.7a16.4 16.4 0 1 1-3 1.1l-.7-3.1-24.7 10.7c-.3.2-.7.2-1 .1l-8-2A16.5 16.5 0 1 1 363 88.4ZM143.7 147.4c6.8-1.7 11-8.3 10-15l-13.2 3.1a1.5 1.5 0 0 1-1.8-2l3.7-12.3a13.3 13.3 0 0 0-14.8 16.4c1.7 7.2 9 11.6 16 9.8Zm18-20.1-13.3-15.5-2.1 7.3c4.3 1.6 7.8 5 9.5 9.6l6-1.4Zm2.7-1.7 15.8-19.9-2.5-2.7-27 6.7 13.7 16Zm-19-3.6-3 9.9 10.4-2.5c-1.4-3.4-4.1-6-7.4-7.4Zm39.3 1.4a13.3 13.3 0 1 0 26-6.4 13.3 13.3 0 0 0-22.2-6.5l5.5 6.3 5.4 3a1.5 1.5 0 0 1-1.5 2.7l-5.7-3.1-.4-.4-5.3-6c-2 3-2.7 6.7-1.8 10.4Zm-48.2-4.9c2.3-.6 4.6-.6 6.8-.2l2.8-9.3-3.6-4-4.1 1a1.5 1.5 0 0 1-.8-3l14.5-3.6a1.5 1.5 0 0 1 .7 3l-7 1.7 2.6 3 27-6.7c-1-1.3-1.7-2.5-1.4-3.9.3-1.3 1.3-2 2.2-2.7l2.3-1.7c.5-.4.6-1.1.4-1.7-.3-.5-.8-1-2.5-.6l-9.7 2.4a1.5 1.5 0 0 1-.8-3l9.7-2.4c2.8-.7 5.2.4 6 2.3 1 1.8.5 4.1-1.2 5.5l-2.3 1.7c-.8.5-1 .9-1 1 0 0 0 .2.7 1l8.6 10a16.4 16.4 0 1 1-2 2.3l-2.2-2.5-16.7 21.1c-.2.3-.5.5-.9.5l-8 2a16.5 16.5 0 1 1-20.1-13.2ZM-13.2 140.1c6.4 2.7 13.7 0 17-6l-12.4-5.4A1.5 1.5 0 0 1-9 126l10.4-7.5a13.3 13.3 0 0 0-21.7 4.2c-3 6.7.2 14.5 7 17.4Zm26.5-5.2L12 114.6 5.9 119c2.4 3.9 3.2 8.7 1.8 13.4l5.6 2.4Zm3 .3 24.7-6.4-.3-3.7L15 114.2l1.3 21Zm-13-14.3-8.2 6 9.8 4.3c1-3.6.3-7.3-1.5-10.3ZM34 145.7A13.3 13.3 0 1 0 58.5 156a13.3 13.3 0 0 0-13.8-18.5l.6 8.3 2.6 5.7A1.5 1.5 0 0 1 45 153l-2.7-6-.1-.5-.6-8a13.3 13.3 0 0 0-7.7 7.3Zm-35.6-33c2.2 1 4 2.3 5.6 4l7.7-5.8-.3-5.4-4-1.7a1.5 1.5 0 1 1 1.3-2.8l13.7 5.8a1.5 1.5 0 0 1-1.2 2.9l-6.6-2.9.2 4 25.6 10.9c0-1.7.1-3 1.2-4 1-.9 2.3-.8 3.4-.8H48c.6 0 1.1-.5 1.3-1 0-.7 0-1.4-1.7-2.1l-9.1-3.9a1.5 1.5 0 0 1 1.2-2.9l9.2 4c2.6 1 3.8 3.4 3.4 5.4-.4 2-2.1 3.6-4.3 3.6h-3l-1.3.1s-.2.3 0 1.4l.9 13a16.4 16.4 0 1 1-3 .6l-.3-3.2-26 6.8h-1l-7.6-3.4a16.5 16.5 0 1 1-8.2-22.6ZM389.2 248.5a13.3 13.3 0 0 0 3.6-17.7l-11 7.9a1.5 1.5 0 0 1-2.4-1.2l-1.2-12.8a13.3 13.3 0 0 0-7.6 20.8c4.4 6 12.7 7.3 18.6 3Zm9.2-25.4-18-9.4.6 7.6c4.6-.1 9.2 1.7 12.5 5.3l5-3.5Zm1.9-2.5 7.2-24.4-3.3-1.6-22.6 16.3 18.7 9.7Zm-19 3.8 1 10.2 8.6-6.2c-2.5-2.7-6-4-9.6-4Zm37-13.5a13.3 13.3 0 1 0 21.6-15.7 13.3 13.3 0 0 0-23 2.3l7.5 3.8 6.2.7a1.5 1.5 0 0 1-.4 3.1l-6.4-.8-.6-.1-7.2-3.7c-.7 3.5 0 7.3 2.3 10.4Zm-46.6 13.5c2-1.4 4-2.3 6.3-2.8l-1-9.6-4.7-2.4-3.5 2.5a1.5 1.5 0 0 1-1.9-2.5l12.1-8.8a1.5 1.5 0 0 1 1.9 2.5l-5.8 4.2 3.5 1.8L401 193c-1.5-.7-2.6-1.7-2.8-3-.2-1.4.4-2.4 1-3.4l1.5-2.5c.4-.5.2-1.2-.3-1.6-.4-.4-1-.7-2.5.3l-8 5.9a1.5 1.5 0 1 1-1.9-2.5l8-5.9c2.4-1.6 5-1.5 6.5-.1s2 3.7.9 5.6l-1.5 2.4c-.5.8-.6 1.2-.6 1.3 0 0 .1.3 1 .8l11.8 5.8a16.4 16.4 0 1 1-1 3l-3-1.5-7.6 25.9c0 .3-.3.6-.5.8l-6.7 4.8a16.5 16.5 0 1 1-23.7-4.7ZM245.7 181.3c6.9 1 13.3-3.5 14.8-10.2l-13.3-2a1.5 1.5 0 0 1-1-2.5l8-10a13.3 13.3 0 0 0-20 9.7c-.9 7.3 4.2 14 11.5 15Zm24.2-11.9-6.5-19.3-4.7 6c3.4 3 5.4 7.6 5.3 12.4l6 1Zm3.1-.5 22.1-12.5-1.2-3.5-27.6-3.9 6.7 20Zm-16.3-10.4-6.4 8L261 168c0-3.8-1.6-7.2-4.2-9.6Zm36 16a13.3 13.3 0 1 0 26.4 3.7 13.3 13.3 0 0 0-18-14.3l2.7 7.9 3.9 4.8a1.5 1.5 0 0 1-2.4 2l-4.1-5-.3-.5-2.6-7.7c-3 2-5 5.3-5.6 9Zm-42.9-22.6c2.4.3 4.5 1.1 6.4 2.3l6-7.5-1.7-5.2-4.2-.6a1.5 1.5 0 0 1 .4-3l14.7 2a1.5 1.5 0 1 1-.4 3.1l-7-1 1.2 3.7 27.5 4c-.5-1.6-.6-3 .2-4.2.8-1.1 2-1.4 3-1.7l2.8-.7c.6-.2 1-.8 1-1.4 0-.6-.3-1.3-2.1-1.5l-9.9-1.4a1.5 1.5 0 0 1 .4-3l10 1.3c2.7.4 4.5 2.4 4.6 4.4.2 2-1 4-3.2 4.6l-2.8.7c-.9.2-1.3.5-1.3.5l.3 1.3L300 161a16.4 16.4 0 1 1-2.8 1.4l-1-3-23.5 13.2c-.3.2-.6.3-1 .2l-8.1-1.2a16.5 16.5 0 1 1-13.8-19.7ZM-37.4 251c7.1 0 12.9-5.4 13.5-12.2l-13.7-.2c-.9 0-1.5-.7-1.5-1.5 0-.3 0-.5.2-.8l6.7-11c-1.6-.6-3.4-1-5.2-1-7.4 0-13.5 6-13.5 13.3 0 7.4 6 13.3 13.5 13.3Zm22.7-15.2-9.3-18.1-4 6.5c4 2.6 6.6 6.8 7.1 11.5l6.2.1Zm3-1 20.4-15.4-1.7-3.2h-28.2l9.5 18.7Zm-17.8-8-5.3 8.8 10.8.1c-.5-3.7-2.6-6.8-5.5-8.9Zm38.4 10.8c0 7.4 6 13.3 13.5 13.3 7.4 0 13.5-6 13.5-13.3 0-7.3-6-13.3-13.5-13.3-2.5 0-4.7.7-6.7 1.8l3.9 7.4 4.6 4.2c.6.5.6 1.5 0 2.1-.5.7-1.5.7-2.2.1l-4.8-4.4-.3-.4-3.8-7.2a13.2 13.2 0 0 0-4.2 9.7Zm-46.3-16.3c2.4 0 4.7.5 6.8 1.4l5-8.3-2.5-4.8h-4.3c-.9 0-1.6-.7-1.6-1.6 0-.8.7-1.5 1.5-1.5h15.1c.9 0 1.6.6 1.6 1.5s-.7 1.6-1.5 1.6h-7.3l1.8 3.5H5.4c-.8-1.5-1.1-2.8-.5-4 .6-1.3 1.8-1.7 2.9-2.2l2.7-1c.5-.3.8-1 .7-1.6-.1-.6-.5-1.2-2.3-1.2h-10c-1 0-1.7-.7-1.7-1.5 0-.9.7-1.6 1.6-1.6h10c3 0 5 1.7 5.5 3.7.4 2-.6 4.1-2.6 5l-2.7 1-1.3.7s0 .4.5 1.3l6 11.6A16.7 16.7 0 0 1 39 237.6c0 9-7.5 16.4-16.6 16.4-9.2 0-16.7-7.3-16.7-16.4 0-5 2.3-9.5 6-12.5l-1.5-2.9-21.7 16.4c-.3.2-.6.3-1 .3h-8.3A16.6 16.6 0 0 1-37.4 254c-9.1 0-16.6-7.3-16.6-16.4 0-9 7.5-16.3 16.6-16.3ZM570.4 87.3A13.3 13.3 0 0 0 580 72l-13 3.3a1.5 1.5 0 0 1-1.9-1.9l3.5-12.4A13.3 13.3 0 0 0 554 77.8c2 7.2 9.2 11.4 16.4 9.5ZM588 66.8l-13.5-15.2-2 7.3c4.3 1.6 7.9 5 9.7 9.4l5.8-1.5Zm2.7-1.7L606 45l-2.5-2.7-26.9 7.2 14 15.6ZM571.6 62l-2.8 9.9 10.4-2.7c-1.5-3.4-4.3-6-7.6-7.2Zm39.4.7a13.3 13.3 0 1 0 25.7-7 13.3 13.3 0 0 0-22.2-6l5.6 6.2 5.5 2.9a1.5 1.5 0 0 1-1.5 2.7l-5.7-3-.4-.3-5.5-6c-1.8 3-2.5 6.7-1.5 10.5Zm-48.3-4c2.2-.7 4.5-.8 6.7-.4l2.7-9.3-3.6-4-4.2 1a1.5 1.5 0 0 1-.8-3l14.4-3.8a1.5 1.5 0 0 1 .8 3l-7 1.8 2.7 3 26.9-7.2c-1.1-1.2-1.8-2.5-1.5-3.8.3-1.4 1.2-2.1 2.2-2.8l2.3-1.8c.4-.3.5-1 .3-1.6-.3-.6-.8-1-2.6-.6l-9.6 2.6a1.5 1.5 0 0 1-.8-3l9.6-2.6c2.8-.7 5.2.4 6.1 2.2 1 1.8.6 4.2-1.2 5.5l-2.3 1.7-1 1s0 .3.8 1.1l8.8 9.7a16.4 16.4 0 1 1-2 2.4l-2.2-2.4-16.4 21.4c-.2.3-.5.5-.8.6l-8 2a16.5 16.5 0 1 1-20.3-12.8ZM438 21.2c6.6-2.5 10-9.5 8-16.1l-12.6 4.7a1.5 1.5 0 0 1-2-1.7l2.2-12.7c-1.7 0-3.5.3-5.1 1a13.3 13.3 0 1 0 9.6 24.9ZM453.5-1l-15-13.7-1.4 7.5c4.5 1.1 8.5 4 10.7 8.3l5.7-2Zm2.4-2 13.3-21.6-2.8-2.4-26 10L456-3Zm-19.3-1.2L435 6l10-3.8a13.3 13.3 0 0 0-8.3-6.4ZM476-7.6a13.3 13.3 0 1 0 24.9-9.6 13.3 13.3 0 0 0-22.8-3.6l6.2 5.5L490-13a1.5 1.5 0 0 1-1.2 2.9l-6-2.4-.4-.3-6-5.4c-1.6 3.2-2 7-.5 10.6Zm-48.5 1c2.2-.8 4.5-1.2 6.7-1l1.6-9.5-4-3.7-4 1.5a1.5 1.5 0 0 1-1.1-2.8l13.9-5.4a1.5 1.5 0 1 1 1.1 2.9l-6.7 2.6 3 2.6 26-10c-1.3-1-2.1-2.2-2-3.6.2-1.4 1-2.2 1.9-3l2-2c.5-.4.6-1.1.2-1.6-.3-.5-.8-1-2.5-.4l-9.3 3.6a1.5 1.5 0 1 1-1.1-2.9l9.3-3.5c2.6-1 5.1-.2 6.2 1.5 1.1 1.7 1 4-.6 5.6l-2 2-1 1s.1.4 1 1l9.7 8.8a16.4 16.4 0 1 1-1.8 2.6l-2.4-2.2-14 23c-.2.3-.5.5-.8.6l-7.7 3a16.5 16.5 0 1 1-21.6-10.7ZM281.5 31.8a13.3 13.3 0 0 0 15.3-9.4l-13.2-2.7a1.5 1.5 0 0 1-.8-2.6l8.5-9.6a13.3 13.3 0 0 0-20.4 8.6 13.3 13.3 0 0 0 10.6 15.7Zm24.8-10.6-5.5-19.6-5 5.6c3.2 3.3 5 8 4.6 12.8l6 1.2Zm3.1-.4 22.7-11.3-1-3.6L303.8.6l5.6 20.2ZM293.7 9.5l-6.8 7.7 10.4 2.1c.2-3.7-1.2-7.2-3.6-9.8Zm35.1 18a13.3 13.3 0 1 0 26.2 5 13.3 13.3 0 0 0-17.4-15.2l2.4 8 3.6 5a1.5 1.5 0 0 1-2.5 1.8l-3.8-5.2-.2-.5-2.3-7.7c-3 1.8-5.2 5-6 8.7Zm-41.7-25c2.4.5 4.5 1.4 6.3 2.7l6.4-7.2-1.4-5.2-4.2-.8a1.5 1.5 0 1 1 .5-3l14.7 2.8a1.5 1.5 0 0 1-.6 3l-7-1.3 1 3.8 27.3 5.3c-.4-1.6-.5-3 .3-4.1 1-1.1 2-1.3 3.2-1.5l2.8-.6c.6-.1 1-.7 1-1.4 0-.6-.2-1.3-2-1.6l-9.7-1.9a1.5 1.5 0 0 1 .5-3l9.8 1.9c2.8.5 4.5 2.5 4.5 4.6 0 2-1.3 4-3.4 4.4l-2.9.6-1.3.4s-.1.3.2 1.4l3.7 12.5a16.4 16.4 0 1 1-2.9 1.3l-.9-3.1-24 12c-.4.2-.7.2-1 .2l-8.1-1.7A16.5 16.5 0 1 1 287 2.6ZM-15.6 66.1c6.3-3 9-10.3 6.6-16.7l-12.2 5.8a1.5 1.5 0 0 1-2.1-1.6l1-12.8c-1.7.1-3.3.6-5 1.4a13.3 13.3 0 1 0 11.7 24ZM-2 42.7l-16.2-12.3-.6 7.5c4.5.7 8.7 3.3 11.3 7.4l5.5-2.6Zm2.3-2.2 11.3-22.7-3-2.2-25 12.2L.2 40.5Zm-19.4.5-.8 10.2 9.6-4.6c-2-3-5.3-5-8.8-5.6ZM19.6 34a13.3 13.3 0 1 0 24-11.6 13.3 13.3 0 0 0-23-1.7l6.7 5 5.9 1.8a1.5 1.5 0 0 1-.9 3l-6.2-2-.5-.2-6.5-4.9c-1.2 3.4-1.2 7.2.5 10.6Zm-48.2 5.3c2.1-1 4.4-1.6 6.6-1.7l.8-9.6-4.3-3.3-3.9 2a1.5 1.5 0 0 1-1.4-2.9l13.4-6.5a1.5 1.5 0 1 1 1.4 2.8l-6.4 3.1 3.1 2.4 25-12.2c-1.3-1-2.2-2-2.2-3.4s.9-2.3 1.6-3.2l2-2.1c.3-.5.3-1.2 0-1.7-.5-.5-1-1-2.7-.1l-8.9 4.3a1.5 1.5 0 0 1-1.4-2.7l9-4.4c2.5-1.2 5.1-.6 6.4 1 1.2 1.6 1.3 4-.2 5.6L7.4 9 6.6 10s.1.3 1 1l10.5 7.8a16.4 16.4 0 1 1-1.5 2.7l-2.6-2L2 43.9c-.2.3-.4.6-.7.7L-6.2 48a16.5 16.5 0 1 1-22.4-8.6ZM117.6 46.5c6.2-3 9-10.4 6.6-16.8L112 35.5a1.5 1.5 0 0 1-2.2-1.5l1-12.8a13.3 13.3 0 0 0-11.1 19.1 13.3 13.3 0 0 0 17.9 6.2ZM131 23l-16.2-12.3-.6 7.6c4.6.7 8.8 3.3 11.4 7.3L131 23Zm2.3-2.1L144.6-2l-3-2.2-25 12.2L133.3 21Zm-19.3.4-1 10.2 9.7-4.5c-2-3.1-5.3-5-8.7-5.7Zm38.8-6.8a13.3 13.3 0 1 0 24-11.7 13.3 13.3 0 0 0-23-1.7l6.6 5 6 1.8a1.5 1.5 0 0 1-1 3l-6.2-2c-.1 0-.3 0-.4-.2L152.3 4c-1.3 3.3-1.2 7.1.5 10.6Zm-48.3 5.2c2.1-1 4.4-1.6 6.6-1.6l.8-9.6-4.3-3.3-3.8 1.8a1.5 1.5 0 0 1-1.4-2.7l13.4-6.6a1.5 1.5 0 0 1 1.4 2.8l-6.5 3.2L114 6l25-12.1c-1.4-1-2.3-2.1-2.2-3.5 0-1.4.8-2.3 1.6-3.1l1.9-2.2c.4-.5.3-1.2 0-1.7-.4-.5-1-.9-2.6 0l-9 4.3a1.5 1.5 0 1 1-1.3-2.8l9-4.4c2.5-1.2 5-.6 6.3 1 1.2 1.6 1.3 4-.1 5.7l-2 2.1-.8 1.2 1 1 10.5 7.8a16.4 16.4 0 1 1-1.5 2.7l-2.6-2-12 24.1c-.1.4-.4.6-.7.8l-7.4 3.5a16.5 16.5 0 1 1-22.5-8.7ZM498.6 245c7 1.3 13.5-3 15.2-9.6l-13.2-2.5a1.5 1.5 0 0 1-1-2.5l8.5-9.7a13.3 13.3 0 0 0-20.2 9 13.3 13.3 0 0 0 10.7 15.4Zm24.7-11-5.8-19.5-5 5.8c3.3 3.2 5.1 7.8 4.8 12.6l6 1.1Zm3.1-.4 22.5-11.7-1-3.6h-.1l-27.4-4.8 6 20.1Zm-16-11-6.6 7.8 10.5 2c.1-3.8-1.3-7.3-3.8-9.8Zm35.5 17.3a13.3 13.3 0 1 0 26.3 4.6 13.3 13.3 0 0 0-17.6-14.9l2.4 8 3.8 5a1.5 1.5 0 0 1-2.5 1.8l-3.9-5.2-.2-.5-2.5-7.7c-3 2-5.1 5-5.8 8.9Zm-42-24.1c2.2.4 4.4 1.3 6.2 2.5l6.3-7.3-1.5-5.2-4.3-.7a1.5 1.5 0 0 1 .5-3.1l14.7 2.6a1.5 1.5 0 0 1-.5 3l-7-1.2 1 3.8 27.5 4.8c-.5-1.5-.6-3 .2-4 .9-1.2 2-1.4 3.2-1.7l2.8-.6c.6-.1 1-.7 1-1.4 0-.6-.3-1.2-2-1.6l-9.8-1.7a1.5 1.5 0 0 1 .4-3l9.9 1.7c2.8.5 4.5 2.5 4.6 4.5 0 2-1.3 4-3.4 4.5l-2.9.7c-.8.1-1.2.4-1.3.4l.2 1.3 4 12.6a16.4 16.4 0 1 1-2.8 1.3l-1-3.1-24 12.4c-.2.2-.6.2-1 .2l-8-1.5a16.5 16.5 0 1 1-13-20.2ZM241.6 523.9c6.9 1 13.3-3.5 14.8-10.2l-13.3-2a1.5 1.5 0 0 1-1-2.5l8-10a13.3 13.3 0 0 0-20 9.7c-1 7.2 4.2 14 11.5 15Zm24.2-12-6.5-19.2-4.8 6c3.4 3 5.4 7.5 5.3 12.4l6 .9Zm3.1-.4 22-12.6-1.1-3.4-27.6-4 6.7 20ZM252.6 501l-6.4 8 10.5 1.6c0-3.7-1.5-7.1-4-9.6Zm36 16a13.3 13.3 0 1 0 26.4 3.7 13.3 13.3 0 0 0-18.1-14.2l2.7 7.9 4 4.8a1.5 1.5 0 0 1-2.4 2L297 516l-.3-.5-2.7-7.6c-2.9 2-5 5.2-5.5 9Zm-42.9-22.6c2.3.3 4.5 1.2 6.4 2.3l6-7.5-1.7-5.1-4.2-.6a1.5 1.5 0 0 1 .3-3l14.8 2a1.5 1.5 0 0 1-.4 3l-7-1 1.2 3.8 27.5 3.9c-.5-1.6-.7-3 .1-4.1.8-1.2 2-1.4 3.1-1.7l2.8-.8c.6-.1 1-.7 1-1.3-.1-.7-.4-1.3-2.1-1.6l-9.9-1.4a1.5 1.5 0 1 1 .4-3l9.9 1.4c2.8.3 4.6 2.3 4.7 4.3.2 2-1.1 4-3.2 4.6l-2.8.8c-.9.2-1.3.4-1.3.5 0 0-.1.3.2 1.3l4.4 12.4a16.4 16.4 0 1 1-2.8 1.4l-1-3.1-23.5 13.3c-.3.2-.7.2-1 .2l-8.1-1.3a16.5 16.5 0 1 1-13.8-19.7ZM153.1 613.9c6.5 2.7 13.8 0 17-6l-12.3-5.4a1.5 1.5 0 0 1-.3-2.7l10.3-7.6a13.3 13.3 0 0 0-21.7 4.2c-2.9 6.8.3 14.6 7 17.5Zm26.6-5.3-1.3-20.3-6.2 4.5c2.5 4 3.3 8.8 2 13.4l5.5 2.4Zm3 .3 24.6-6.3-.2-3.7-25.7-10.9 1.4 21Zm-13-14.3-8.2 6.1 9.7 4.3c1-3.6.4-7.3-1.5-10.4Zm30.7 24.8a13.3 13.3 0 1 0 24.5 10.4 13.3 13.3 0 0 0-13.8-18.4l.6 8.3 2.6 5.7a1.5 1.5 0 1 1-2.9 1.2l-2.6-5.9-.1-.5-.6-8a13.3 13.3 0 0 0-7.7 7.2Zm-35.6-33c2.1 1 4 2.3 5.5 4l7.8-5.7-.3-5.4-4-1.7a1.5 1.5 0 0 1 1.2-2.9l13.7 5.8a1.5 1.5 0 0 1-1.1 3v-.1l-6.6-2.8.2 4 25.6 10.8c-.1-1.6.1-3 1.2-4 1-.8 2.2-.8 3.4-.8h2.9c.6 0 1.1-.4 1.2-1 .2-.6 0-1.4-1.6-2l-9.1-4a1.5 1.5 0 0 1 1.1-2.8l9.2 3.9c2.7 1.1 3.9 3.4 3.5 5.4-.4 2-2.2 3.7-4.3 3.7H210c0 .1-.2.4-.1 1.4l1 13.1a16.4 16.4 0 1 1-3 .6l-.3-3.2-26.1 6.8-1-.1-7.5-3.3a16.5 16.5 0 1 1-8.2-22.6ZM-24 589.7c5.7 4 13.4 2.9 17.8-2.4l-11-7.8a1.5 1.5 0 0 1 .3-2.7l11.7-5.3a13.3 13.3 0 0 0-22.1-.4c-4.2 6-2.8 14.4 3.3 18.6Zm27 .4 3-20.2-7 3.2c1.6 4.3 1.4 9.2-1 13.5l5 3.5Zm3 1 25.3-1.2.5-3.7-22.8-16L6 591Zm-9.8-16.8-9.4 4.2 8.7 6.2c1.7-3.3 1.9-7 .7-10.4ZM21 605a13.3 13.3 0 1 0 21.8 15.3 13.3 13.3 0 0 0-9.6-20.9l-1.2 8.3 1.3 6a1.5 1.5 0 0 1-3 .7l-1.3-6.4v-.5l1-8c-3.5.5-6.8 2.4-9 5.5Zm-28-39.6c2 1.4 3.5 3 4.7 5l8.8-4 .7-5.4-3.5-2.4a1.5 1.5 0 0 1 1.8-2.6l12.2 8.6a1.5 1.5 0 1 1-1.8 2.5l-5.8-4-.6 3.8 22.8 16c.2-1.6.7-3 2-3.6 1.2-.7 2.3-.4 3.5-.1l2.8.6c.6.1 1.2-.3 1.4-.8.3-.6.4-1.3-1.1-2.3l-8.2-5.7a1.5 1.5 0 1 1 1.8-2.6l8.2 5.7c2.3 1.7 3 4.2 2.2 6a4.4 4.4 0 0 1-5 2.7l-2.8-.6-1.4-.2s-.2.3-.4 1.4l-1.7 13c2.7.2 5.4 1.2 7.7 2.8a16.4 16.4 0 1 1-10.8-2.9l.4-3.2-27 1.2c-.3 0-.6 0-.9-.3l-6.7-4.8A16.5 16.5 0 1 1-7 565.3ZM973.9 636.5c6.5-2.5 9.9-9.5 8-16.1l-12.6 4.7a1.5 1.5 0 0 1-2.1-1.7l2.2-12.7c-1.7 0-3.4.3-5 1a13.3 13.3 0 1 0 9.6 24.9Zm15.4-22.2-15-13.7-1.3 7.5c4.4 1.1 8.4 4 10.6 8.4l5.7-2.2Zm2.5-2 13.2-21.6-2.8-2.4-26 10 15.6 14Zm-19.3-1.1-1.8 10 10-3.7a13.3 13.3 0 0 0-8.2-6.3Zm39.2-3.5a13.3 13.3 0 1 0 2.1-13.2l6.3 5.5 5.7 2.3a1.5 1.5 0 0 1-1.1 2.9l-6-2.4c-.2 0-.4-.2-.5-.3l-6-5.4c-1.6 3.2-1.9 7-.5 10.6Zm-48.5 1c2.2-.8 4.5-1.2 6.7-1l1.7-9.5-4-3.7-4 1.5a1.5 1.5 0 0 1-1.2-2.8l14-5.4a1.5 1.5 0 0 1 1 2.9l-6.6 2.6 2.9 2.6 26-10c-1.3-1-2-2.2-2-3.6.2-1.4 1.1-2.2 2-3l2-2c.5-.4.5-1.1.2-1.6-.4-.5-1-1-2.6-.3l-9.3 3.5a1.5 1.5 0 1 1-1-2.9l9.2-3.5c2.6-1 5.1-.2 6.3 1.5 1 1.7 1 4-.6 5.6l-2.1 2-1 1s.1.4 1 1l9.7 8.8a16.5 16.5 0 1 1-1.8 2.6l-2.4-2.2-14 23-.8.7-7.7 2.8a16.5 16.5 0 1 1-21.6-10.6ZM343.3 613c5.7 4 13.4 3 17.8-2.3l-11-7.8a1.5 1.5 0 0 1 .3-2.7l11.7-5.3a13.3 13.3 0 0 0-22.1-.4c-4.2 6-2.8 14.3 3.3 18.6Zm27 .5 3-20.2-7 3.1c1.6 4.4 1.4 9.3-1 13.6l5 3.5Zm3 1 25.3-1.2.5-3.7-22.8-16-3 20.8Zm-9.8-16.8-9.4 4.2 8.7 6.2c1.7-3.3 1.9-7 .7-10.4Zm24.8 30.6a13.3 13.3 0 1 0 21.8 15.3 13.3 13.3 0 0 0-9.6-21l-1.1 8.3 1.3 6.1a1.5 1.5 0 0 1-3 .7l-1.4-6.4v-.5l1-8c-3.5.5-6.8 2.4-9 5.5Zm-28-39.6c2 1.3 3.5 3 4.7 5l8.8-4 .8-5.4-3.5-2.4a1.5 1.5 0 0 1 1.7-2.6L385 588a1.5 1.5 0 0 1-1.7 2.5l-6-4-.5 3.8 22.8 16c.2-1.6.7-3 2-3.6 1.2-.7 2.3-.4 3.5-.1l2.8.6c.6.1 1.2-.3 1.5-.8.2-.6.3-1.3-1.2-2.4l-8.1-5.7a1.5 1.5 0 0 1 1.7-2.5l8.2 5.7c2.3 1.6 3 4.2 2.2 6a4.4 4.4 0 0 1-5 2.7l-2.8-.6-1.4-.2s-.2.3-.3 1.3l-1.8 13c2.7.3 5.4 1.2 7.7 3a16.4 16.4 0 1 1-10.8-3l.4-3.2-26.9 1.2c-.3 0-.7 0-1-.3l-6.7-4.8a16.5 16.5 0 1 1-3.3-23.8ZM686.3 663.9c6.3-3 9-10.4 6.6-16.8l-12.2 5.8a1.5 1.5 0 0 1-2.2-1.5l1.1-12.8a13.3 13.3 0 0 0-11.1 19.1 13.3 13.3 0 0 0 17.8 6.2Zm13.5-23.5-16.2-12.3-.6 7.6c4.5.7 8.7 3.3 11.3 7.3l5.5-2.6Zm2.2-2.1 11.3-22.7-3-2.3-25 12.3 16.7 12.7Zm-19.3.4-.9 10.3 9.7-4.6c-2.1-3.1-5.3-5-8.8-5.7Zm38.8-6.8a13.3 13.3 0 1 0 24-11.7 13.3 13.3 0 0 0-23-1.7l6.6 5 6 1.8a1.5 1.5 0 0 1-1 3l-6.1-2c-.2 0-.3 0-.5-.2l-6.5-4.8c-1.3 3.3-1.2 7.1.5 10.6Zm-48.2 5.2c2.1-1 4.3-1.5 6.6-1.6l.8-9.6-4.3-3.3-3.9 1.8a1.5 1.5 0 1 1-1.3-2.7l13.3-6.6a1.5 1.5 0 0 1 1.4 2.8l-6.4 3.2 3.1 2.4 25-12.2c-1.3-1-2.2-2.1-2.2-3.5s.8-2.3 1.6-3.1l2-2.2c.3-.4.3-1.2-.1-1.7-.4-.4-1-.9-2.6 0l-9 4.3a1.5 1.5 0 0 1-1.3-2.8l9-4.4c2.5-1.2 5-.6 6.3 1 1.3 1.6 1.4 4 0 5.7l-2 2.1c-.6.7-.8 1.1-.8 1.2 0 0 .1.3 1 1l10.5 7.8a16.4 16.4 0 1 1-1.5 2.7l-2.6-2-12 24.2c-.2.3-.4.5-.8.7l-7.4 3.5a16.5 16.5 0 1 1-22.4-8.7ZM782.6 594.4a13.3 13.3 0 0 0 10.4-14.6l-13.2 2.6a1.5 1.5 0 0 1-1.8-2l4.2-12.1a13.3 13.3 0 0 0-15.4 15.9 13.3 13.3 0 0 0 15.8 10.2Zm18.7-19.4-12.7-16-2.5 7.2c4.3 1.8 7.7 5.4 9.3 10l5.9-1.2Zm2.7-1.6 16.5-19.3-2.4-2.9L791 557l13.1 16.4Zm-18.9-4.2-3.3 9.7 10.5-2.1c-1.3-3.5-4-6.2-7.2-7.6Zm39.3 2.7a13.3 13.3 0 1 0 26.1-5.5 13.3 13.3 0 0 0-21.9-7.2l5.3 6.4 5.3 3.2a1.6 1.6 0 0 1-1.6 2.7l-5.5-3.4c-.2 0-.3-.2-.4-.3l-5.2-6.3c-2 3-2.9 6.6-2 10.4Zm-48-6.6c2.3-.5 4.6-.4 6.8 0l3-9.1-3.3-4.3-4.2 1a1.5 1.5 0 0 1-.7-3l14.6-3.2a1.5 1.5 0 0 1 .7 3l-7 1.5 2.4 3.1 27.2-5.8c-1-1.2-1.6-2.5-1.3-3.8.4-1.4 1.4-2 2.4-2.7l2.3-1.6c.5-.4.7-1.1.4-1.7-.2-.5-.7-1-2.4-.7l-9.8 2a1.5 1.5 0 1 1-.6-3l9.7-2c2.8-.6 5.1.6 6 2.5.8 1.8.3 4.2-1.5 5.4l-2.4 1.6-1 1s0 .3.7 1.1l8.3 10.2a16.4 16.4 0 1 1-2.1 2.3l-2.1-2.6L805 577c-.2.3-.5.5-.9.5l-8 1.7a16.5 16.5 0 1 1-19.7-13.9ZM578.7 547.5c5.2 4.6 13 4.5 18-.2l-9.9-9.1a1.5 1.5 0 0 1 .6-2.6l12.3-3.8a13.3 13.3 0 0 0-22-3.1c-4.9 5.4-4.4 13.8 1 18.8Zm26.8 3.7 5.4-19.7-7.3 2.3c1 4.5.3 9.3-2.6 13.3l4.5 4Zm2.9 1.3 25.3 2 .9-3.6-20.7-18.7-5.5 20.3Zm-7.7-17.8-9.8 3 7.9 7.3c2-3.1 2.7-6.8 1.9-10.3Zm20.9 33.4a13.3 13.3 0 1 0 19.8 17.8 13.3 13.3 0 0 0-7-22l-2.2 8.2.6 6.1a1.5 1.5 0 0 1-3.1.3l-.6-6.5v-.5l2.1-7.8c-3.5 0-7 1.5-9.6 4.4Zm-23-42.7c1.8 1.5 3.2 3.4 4 5.4l9.3-2.8 1.4-5.2-3.2-2.9a1.5 1.5 0 1 1 2.1-2.3l11 10a1.5 1.5 0 0 1-2 2.3l-5.3-4.8-1 3.8 20.6 18.6c.4-1.6 1-2.8 2.4-3.3 1.3-.5 2.4-.1 3.5.3l2.7 1c.6.1 1.2-.2 1.5-.7.4-.5.5-1.2-.8-2.4l-7.4-6.7a1.5 1.5 0 0 1 2-2.3l7.5 6.7c2 1.9 2.4 4.5 1.4 6.2a4.4 4.4 0 0 1-5.2 2l-2.8-1-1.3-.2s-.3.2-.5 1.2L635 561a16.4 16.4 0 1 1-3.1-.4l.9-3.1-26.9-2.1c-.3 0-.7-.2-1-.4l-6-5.6a16.5 16.5 0 1 1-.3-24ZM484.2 616.8a13.3 13.3 0 0 0 6.3-16.9l-12.1 6a1.5 1.5 0 0 1-2.2-1.5l.8-12.8a13.3 13.3 0 0 0-10.8 19.3 13.3 13.3 0 0 0 18 5.9Zm13-23.7-16.4-12-.5 7.5c4.6.7 8.8 3.2 11.5 7.2l5.4-2.7Zm2.2-2.2 11-22.9-3-2.1-24.9 12.6 17 12.4Zm-19.3.8-.7 10.2 9.6-4.7c-2.1-3-5.4-5-8.9-5.5Zm38.7-7.5a13.3 13.3 0 1 0 23.7-12.1 13.3 13.3 0 0 0-23-1.3l6.8 4.9 6 1.7a1.5 1.5 0 0 1-.9 3l-6.2-1.8-.5-.3-6.6-4.7c-1.2 3.3-1 7.1.7 10.6Zm-48.1 6c2-1 4.3-1.6 6.5-1.7l.7-9.6-4.4-3.2-3.8 2a1.5 1.5 0 1 1-1.4-2.9l13.2-6.7a1.5 1.5 0 0 1 1.5 2.7l-6.4 3.3 3.2 2.3 24.7-12.6c-1.3-1-2.2-2-2.2-3.4s.8-2.3 1.5-3.2l1.9-2.2c.4-.4.3-1.2 0-1.6-.4-.5-1-1-2.6-.1l-8.9 4.5a1.5 1.5 0 0 1-1.4-2.7l8.9-4.6c2.5-1.2 5-.7 6.4 1 1.2 1.5 1.4 3.9 0 5.5l-2 2.2-.7 1.2s.1.3 1 1L517 569a16.4 16.4 0 1 1-1.5 2.8l-2.6-2-11.6 24.4c-.1.3-.4.5-.7.7l-7.3 3.6a16.5 16.5 0 1 1-22.6-8.2Z"/></g><defs><clipPath id="a"><path fill="#fff" d="M0 0h1139v604H0z"/></clipPath></defs></svg>