<svg xmlns="http://www.w3.org/2000/svg" fill="none" viewBox="0 0 506 280">
  <path fill="#244D0244" d="m336 105-.7 4.3c0 .7-.3 1.4-.5 2h2.6l.6-1.6a1.6 1.6 0 0 1 3 1.3v.3h4l.6-1.6a1.6 1.6 0 0 1 3 1.3l-.2.4a17 17 0 0 1 15.2 16.8c0 6.2-5 11.3-11.3 11.3H307v-35.8c0-4.8 3.9-8.7 8.7-8.7h11.7c5.3 0 9.4 4.7 8.6 10Zm1.7 28a1.6 1.6 0 0 1 2.8 1.6l-.3.5h3.9l1.2-2a1.6 1.6 0 0 1 2.8 1.7l-.2.3h3.2l1.2-2a1.6 1.6 0 0 1 3 1.4 7 7 0 0 0 4-6.3c0-7-5.7-12.6-12.7-12.6l-1.2 3a1.6 1.6 0 0 1-3-1.2l.7-1.8h-4l-1.2 3a1.6 1.6 0 0 1-3-1.2l.7-1.8h-7.3l2.5-6 .2-1 .7-4.3c.4-2.6-1.7-5-4.3-5h-11.7c-2.4 0-4.3 2-4.3 4.4V135h2.1l1.2-2a1.6 1.6 0 0 1 2.8 1.7l-.2.3h3.9l1.1-1.8a1.6 1.6 0 0 1 2.8 1.6v.2h3.1l1.1-1.8a1.6 1.6 0 0 1 2.8 1.6l-.1.2h4.4l1.3-2.1ZM415.6 31.8l.5 4.4v2l2.5-.7.2-1.6a1.6 1.6 0 0 1 3.2.4v.3l3.8-1 .3-1.7a1.6 1.6 0 0 1 3.2.5v.4a17 17 0 0 1 19 12.3c1.6 6-2 12.2-8 13.8l-43.7 11.7-9.4-34.5a8.7 8.7 0 0 1 6.2-10.7l11.3-3a8.7 8.7 0 0 1 10.9 7.4Zm8.9 26.6a1.6 1.6 0 0 1 3.1.9l-.1.5 3.7-1 .7-2.3a1.6 1.6 0 0 1 3.1 1l-.1.3 3-.8.7-2.3a1.6 1.6 0 0 1 3.2.6 7 7 0 0 0 2.3-7.1 12.6 12.6 0 0 0-15.5-8.9l-.4 3.3c-.1.8-1 1.5-1.8 1.3-1 0-1.6-.9-1.4-1.8l.2-1.9-3.8 1-.5 3.3a1.6 1.6 0 0 1-3.2-.4l.3-2-.8.3L411 44l.7-6.4v-1l-.5-4.4a4.4 4.4 0 0 0-5.4-3.7l-11.3 3c-2.3.7-3.7 3-3 5.3l8.2 30.4 2-.6.6-2.2a1.6 1.6 0 0 1 3.2 1l-.1.2 3.7-1 .6-2a1.6 1.6 0 0 1 3.2.9v.2l3-.9.6-2a1.6 1.6 0 0 1 3.1.8v.2l4.2-1 .7-2.5ZM466 118.8l-2.6 3.5-1.4 1.4 2.2 1.3 1.4-1a1.6 1.6 0 0 1 2 2.5l-.3.2 3.5 2 1.3-1.1a1.6 1.6 0 0 1 2 2.5l-.3.3a17 17 0 0 1 5.2 22.1c-3 5.5-9.9 7.4-15.4 4.4l-39.5-22 17.3-31.3a8.7 8.7 0 0 1 11.8-3.4l10.2 5.7c4.6 2.6 5.9 8.7 2.7 12.9ZM454 144a1.6 1.6 0 0 1 1.6 2.8l-.5.3 3.4 1.9 2-1.2a1.6 1.6 0 0 1 1.7 2.8l-.4.2 2.8 1.6 2.1-1.2a1.6 1.6 0 0 1 1.9 2.6 7 7 0 0 0 6.6-3.5c3.3-6 1.1-13.8-5-17.1l-2.5 2c-.7.5-1.8.4-2.3-.3-.6-.7-.5-1.7.3-2.3l1.4-1.2-3.4-1.9-2.6 2a1.6 1.6 0 0 1-2-2.5l1.5-1.2-.7-.4-5.7-3.1 5-4 .7-.8 2.7-3.5c1.6-2 1-5.1-1.3-6.4L451 104a4.3 4.3 0 0 0-6 1.7L430 133.2l1.8 1 2-1.1a1.6 1.6 0 0 1 1.6 2.8l-.2.2 3.3 1.9 1.9-1.1a1.6 1.6 0 0 1 1.6 2.8l-.1.1 2.8 1.6 1.8-1.1a1.6 1.6 0 0 1 1.7 2.8l-.2.1 3.8 2.1 2.2-1.2ZM461.1 202.6l2.1 3.9c.4.6.6 1.2.8 1.8l2-1.5-.3-1.6a1.6 1.6 0 0 1 3.1-.9l.1.4 3.2-2.4-.4-1.7a1.6 1.6 0 0 1 3.1-.8l.1.4a17 17 0 0 1 22.3 4.3c3.8 5 2.8 12-2.2 15.8l-36.2 27.2-21.6-28.5a8.7 8.7 0 0 1 1.7-12.2l9.4-7a8.7 8.7 0 0 1 12.8 2.8Zm18.2 21.3a1.6 1.6 0 0 1 3.3-.3v.6l3.1-2.4-.2-2.3a1.6 1.6 0 0 1 3.2-.4v.4l2.6-1.9-.2-2.4a1.6 1.6 0 0 1 3.2-.6 7 7 0 0 0-.6-7.5c-4.2-5.5-12-6.6-17.6-2.4l.8 3.1a1.6 1.6 0 0 1-3.2.9l-.5-1.9-3.1 2.4.8 3.2a1.6 1.6 0 0 1-3.2.8l-.5-1.9-.6.5-5.2 3.9-1.6-6.2-.4-1-2-3.8a4.4 4.4 0 0 0-6.5-1.4l-9.3 7a4.3 4.3 0 0 0-1 6l19 25.1 1.7-1.2-.2-2.3a1.6 1.6 0 0 1 3.2-.3v.3l3.2-2.3-.2-2.2a1.6 1.6 0 0 1 3.2-.3v.2l2.6-2-.3-2.1a1.6 1.6 0 0 1 3.3-.4v.3l3.5-2.7-.3-2.5ZM357.6 217.8l.5 4.4v2l2.5-.7.2-1.6a1.6 1.6 0 0 1 3.2.4v.3l3.8-1 .3-1.7a1.6 1.6 0 0 1 3.2.5v.4a17 17 0 0 1 19 12.3c1.6 6-2 12.2-8 13.8l-43.7 11.7-9.3-34.5a8.7 8.7 0 0 1 6-10.6l11.4-3a8.7 8.7 0 0 1 10.9 7.3Zm8.9 26.6a1.6 1.6 0 0 1 3.1.9l-.1.5 3.7-1 .7-2.3a1.6 1.6 0 0 1 3.1 1l-.1.4 3-.9.7-2.3a1.6 1.6 0 0 1 3.2.6 7 7 0 0 0 2.3-7.1 12.6 12.6 0 0 0-15.5-8.9l-.4 3.3a1.6 1.6 0 0 1-3.2-.5l.2-1.8-3.8 1-.5 3.2a1.6 1.6 0 0 1-3.2-.4l.3-1.9-.8.2-6.2 1.7.7-6.4v-1l-.5-4.4a4.4 4.4 0 0 0-5.4-3.7l-11.3 3c-2.3.7-3.7 3-3 5.4l8.2 30.3 2-.6.7-2.1a1.6 1.6 0 0 1 3 .8v.4l3.7-1 .6-2a1.6 1.6 0 0 1 3.2.8v.2l3-.9.6-2a1.6 1.6 0 0 1 3.1.8v.3l4.2-1.2.7-2.4ZM251.5 187.6l.5 4.3v2l2.5-.6.2-1.6a1.6 1.6 0 0 1 3.3.4v.3l3.8-1 .2-1.6a1.6 1.6 0 0 1 3.2.4v.5a17 17 0 0 1 19 12.5c1.5 6-2.2 12.1-8.2 13.7L232 228l-9-34.6a8.7 8.7 0 0 1 6.3-10.5l11.3-3a8.7 8.7 0 0 1 10.8 7.6Zm8.7 26.6a1.6 1.6 0 0 1 3.1 1l-.2.5 3.8-1 .7-2.2a1.6 1.6 0 0 1 3.1.9l-.1.4 3-.8.8-2.3a1.6 1.6 0 0 1 3.2.7 7 7 0 0 0 2.3-7.2 12.6 12.6 0 0 0-15.4-9l-.4 3.2c-.2 1-1 1.5-1.9 1.4-.9-.1-1.5-1-1.4-1.8l.3-2-3.9 1-.4 3.3a1.6 1.6 0 0 1-3.2-.5l.2-1.8-.7.2-6.3 1.6.9-6.4v-1l-.5-4.4a4.4 4.4 0 0 0-5.4-3.7l-11.3 2.9c-2.3.6-3.7 3-3.1 5.2l7.9 30.5 2-.6.7-2.2a1.6 1.6 0 0 1 3.1 1v.3l3.7-1 .6-2a1.6 1.6 0 0 1 3.1.9v.2l3-.8.7-2a1.6 1.6 0 0 1 3 .8v.2l4.3-1 .7-2.5ZM149.8 226.5l-2.6 3.5c-.4.6-.9 1-1.4 1.5l2.3 1.2 1.3-1a1.6 1.6 0 0 1 2 2.5l-.2.2 3.5 1.9 1.3-1.1a1.6 1.6 0 0 1 2 2.5l-.2.3a17 17 0 0 1 5.4 22c-3 5.5-9.7 7.6-15.3 4.6l-39.8-21.4 16.8-31.6a8.7 8.7 0 0 1 11.8-3.5l10.2 5.5c4.7 2.5 6 8.6 3 12.9Zm-11.7 25.4a1.6 1.6 0 0 1 1.7 2.8l-.5.3 3.4 1.9 2-1.2a1.6 1.6 0 0 1 1.7 2.8l-.3.2 2.8 1.5 2-1.3a1.6 1.6 0 0 1 2 2.7 7 7 0 0 0 6.5-3.6c3.3-6.2 1-13.8-5.2-17.1l-2.5 2a1.6 1.6 0 0 1-2-2.5l1.4-1.2-3.5-1.9-2.5 2a1.6 1.6 0 0 1-2.1-2.4l1.5-1.2-.7-.4-5.7-3 5-4.2.6-.7 2.6-3.5c1.6-2.2 1-5.2-1.4-6.5l-10.3-5.5a4.3 4.3 0 0 0-5.9 1.8L114 241.4l2 1 1.9-1.2a1.6 1.6 0 0 1 1.7 2.8l-.3.2 3.4 1.9 1.8-1.1a1.6 1.6 0 0 1 1.7 2.8h-.2l2.8 1.6 2-1.1a1.6 1.6 0 0 1 1.6 2.8h-.2l3.8 2.1 2.2-1.3ZM34.6 196l-.3 4.4c0 .6-.2 1.3-.4 2l2.6-.2.5-1.6a1.6 1.6 0 0 1 3.1 1v.3l3.9-.3.5-1.6a1.6 1.6 0 0 1 3.1 1l-.1.5A17 17 0 0 1 63.9 217c.5 6.2-4.2 11.6-10.4 12l-45.2 3.4-2.7-35.7c-.3-4.8 3.3-9 8-9.3l11.7-.8c5.3-.4 9.7 4 9.3 9.3Zm3.8 27.8a1.6 1.6 0 0 1 2.9 1.4l-.3.5 4-.2 1-2.2a1.6 1.6 0 0 1 2.9 1.5l-.2.4 3.2-.2 1-2.2a1.6 1.6 0 0 1 3 1.2 7 7 0 0 0 3.7-6.6c-.6-6.9-6.6-12-13.6-11.6l-1 3.1a1.6 1.6 0 0 1-3-1l.5-1.8-4 .3-1 3a1.6 1.6 0 0 1-3-1l.5-1.8h-.8l-6.4.5 2-6 .2-1 .3-4.4c.2-2.7-2-4.9-4.7-4.7l-11.6.8a4.3 4.3 0 0 0-4 4.7l2.3 31.3 2.1-.1 1-2a1.6 1.6 0 0 1 3 1.4l-.2.3 4-.3.9-1.9a1.6 1.6 0 0 1 2.9 1.5v.1l3-.2 1-2a1.6 1.6 0 0 1 3 1.5l-.1.2 4.3-.3 1.2-2.2ZM89.6 120.8l-1.9 4-1 1.7 2.5.8 1-1.3a1.6 1.6 0 0 1 2.6 2l-.3.3 3.9 1.1 1-1.3a1.6 1.6 0 0 1 2.6 2l-.3.4a17 17 0 0 1 9.8 20.5c-1.8 6-8 9.3-14 7.5l-43.4-13 10-34.2a8.7 8.7 0 0 1 10.9-5.8l11.2 3.3a8.7 8.7 0 0 1 5.4 12Zm-6.3 27.3a1.6 1.6 0 0 1 2.2 2.4l-.5.4 3.8 1.1 1.7-1.6a1.6 1.6 0 0 1 2.2 2.4l-.3.3 3 1 1.8-1.7a1.6 1.6 0 0 1 2.4 2.2 7 7 0 0 0 5.7-4.9c2-6.6-1.8-13.6-8.5-15.6l-2 2.5c-.6.7-1.7.8-2.4.2-.7-.6-.8-1.6-.2-2.3l1.2-1.5-3.8-1-2 2.4a1.6 1.6 0 0 1-2.6-2l1.2-1.5-.8-.2-6.1-1.9 4-5 .5-.9 1.8-4a4.4 4.4 0 0 0-2.7-6l-11.1-3.3c-2.3-.7-4.8.6-5.4 3l-9 30 2.1.7 1.7-1.6a1.6 1.6 0 0 1 2.2 2.5l-.3.2 3.8 1 1.5-1.4a1.6 1.6 0 0 1 2.2 2.4v.2l3 .9 1.6-1.5a1.6 1.6 0 0 1 2.2 2.4l-.2.2 4.2 1.2 1.9-1.7ZM225.3 112.5l-1.8 4-1 1.7 2.4.8 1-1.4a1.6 1.6 0 0 1 2.6 2l-.2.3 3.9 1.1 1-1.3a1.6 1.6 0 0 1 2.6 2l-.3.4a17 17 0 0 1 10 20.3c-1.6 6-7.9 9.5-13.9 7.8l-43.5-12.5 9.7-34.4a8.7 8.7 0 0 1 10.7-6l11.2 3.3a8.7 8.7 0 0 1 5.6 12Zm-6 27.4a1.6 1.6 0 0 1 2.2 2.4l-.4.4 3.7 1 1.8-1.6a1.6 1.6 0 0 1 2.2 2.4l-.3.3 3 .8 1.8-1.6a1.6 1.6 0 0 1 2.4 2.2 7 7 0 0 0 5.7-5c1.8-6.7-2-13.6-8.8-15.5l-2 2.5a1.6 1.6 0 0 1-2.5-2l1.1-1.5-3.8-1.1-2 2.5a1.6 1.6 0 0 1-2.6-2l1.2-1.5-.7-.2-6.3-1.8 4-5 .5-.9 1.8-4c1.1-2.4-.2-5.2-2.8-6l-11.2-3.2c-2.3-.6-4.7.7-5.3 3l-8.6 30.3 2 .5 1.7-1.5a1.6 1.6 0 0 1 2.3 2.4l-.3.2 3.8 1 1.5-1.4a1.6 1.6 0 0 1 2.3 2.4l-.2.1 3 .9 1.7-1.5a1.6 1.6 0 0 1 2.2 2.4l-.2.1 4.2 1.2 1.9-1.7ZM73.6 17l.5 4.3v2l2.5-.6.2-1.7a1.6 1.6 0 0 1 3.3.4v.4l3.8-1.1.2-1.7a1.6 1.6 0 0 1 3.2.4v.5A17 17 0 0 1 106.4 32c1.7 6-1.8 12.2-7.9 13.9L55 57.9l-9.6-34.4a8.7 8.7 0 0 1 6-10.7l11.3-3.1a8.7 8.7 0 0 1 11 7.3Zm9 26.5a1.6 1.6 0 0 1 3.2.9l-.1.5 3.7-1 .7-2.3a1.6 1.6 0 0 1 3.1.9l-.1.4 3-.9.7-2.3a1.6 1.6 0 0 1 3.2.6 7 7 0 0 0 2.2-7.1 12.6 12.6 0 0 0-15.5-8.8l-.4 3.2a1.6 1.6 0 0 1-3.2-.4l.2-1.8-3.8 1-.5 3.2a1.6 1.6 0 0 1-3.2-.4l.2-1.9-.7.3-6.2 1.7.7-6.4v-1l-.5-4.4c-.4-2.6-3-4.3-5.5-3.6l-11.3 3c-2.3.7-3.6 3-3 5.4L58 52.6l2-.6.7-2.2a1.6 1.6 0 0 1 3.1.9v.3l3.7-1 .6-2a1.6 1.6 0 0 1 3.1.8v.2l3-.9.6-2a1.6 1.6 0 0 1 3.2.8l-.1.2 4.2-1.2.7-2.4ZM197.6 20l.5 4.4v2l2.5-.7.3-1.6a1.6 1.6 0 0 1 3.2.4v.3l3.8-1 .2-1.8a1.6 1.6 0 0 1 3.2.4v.5A17 17 0 0 1 230.5 35c1.6 6-1.9 12.2-7.9 13.9l-43.6 12-9.7-34.4a8.7 8.7 0 0 1 6-10.6l11.3-3.1a8.7 8.7 0 0 1 11 7.2Zm9.1 26.5a1.6 1.6 0 0 1 3.2.9l-.2.5 3.8-1 .6-2.3a1.6 1.6 0 0 1 3.2.9l-.2.4 3.1-.9.7-2.3a1.6 1.6 0 0 1 3.2.6 7 7 0 0 0 2.2-7.1 12.6 12.6 0 0 0-15.6-8.8l-.4 3.3a1.6 1.6 0 0 1-3.2-.4l.2-2-3.8 1.1-.4 3.3a1.6 1.6 0 0 1-3.3-.4l.3-2-.8.3-6.2 1.7.7-6.4v-1l-.5-4.3c-.4-2.7-3-4.4-5.5-3.7L176.5 20c-2.3.7-3.6 3-3 5.4l8.5 30.2 2-.5.7-2.2a1.6 1.6 0 0 1 3.1.8v.4l3.7-1 .5-2.1a1.6 1.6 0 0 1 3.2.8v.2l3-.8.6-2.1a1.6 1.6 0 0 1 3.1.8v.2L206 49l.6-2.5ZM305.8 20l-1.8 4c-.2.6-.6 1.2-1 1.8l2.5.6 1-1.3a1.6 1.6 0 0 1 2.6 2l-.1.2 3.8 1 1-1.3a1.6 1.6 0 0 1 2.6 2l-.2.3a17 17 0 0 1 10.4 20.2c-1.5 6-7.7 9.6-13.8 8L269.1 46l9-34.6c1.2-4.7 6-7.4 10.6-6.2l11.2 3c5.2 1.3 8 7 5.9 11.8Zm-5.5 27.5a1.6 1.6 0 0 1 2.3 2.3l-.4.4 3.8 1 1.7-1.7a1.6 1.6 0 0 1 2.2 2.4l-.3.3 3.1.8 1.7-1.7a1.6 1.6 0 0 1 2.5 2.1 7 7 0 0 0 5.5-5 12.6 12.6 0 0 0-9-15.4l-2 2.6a1.6 1.6 0 0 1-2.6-2L310 32l-3.9-1-2 2.6a1.6 1.6 0 0 1-2.6-2l1.2-1.5-.8-.2-6.2-1.7 3.8-5.1.5-.9 1.8-4c1-2.5-.4-5.3-3-6l-11.2-3c-2.4-.5-4.7.9-5.3 3.2l-8 30.4 2.1.5 1.6-1.6a1.6 1.6 0 0 1 2.3 2.4l-.2.2 3.7 1 1.6-1.5a1.6 1.6 0 0 1 2.3 2.3l-.2.2 3.1.8 1.6-1.6a1.6 1.6 0 0 1 2.3 2.4l-.2.1 4.2 1.1 1.8-1.7Z"/>
</svg>
