<svg fill-rule="evenodd" stroke-linejoin="round" stroke-miterlimit="2" clip-rule="evenodd" viewBox="0 0 747 125.266" xmlns="http://www.w3.org/2000/svg" width="150">
  <title>Kudyznudy.cz - tipy na výlet</title>
  <path fill="#fcaf16" fill-rule="nonzero" d="M64.84 15.67a15.67 15.67 0 1 1-31.33 0 15.67 15.67 0 0 1 31.33 0Z"></path>
  <path fill="#71bf44" fill-rule="nonzero" d="M34.87 34.73H11.03a11.02 11.02 0 1 0 0 22.05h26.61A66.33 66.33 0 0 1 12.3 89.35l.03.03a10.98 10.98 0 0 0 6.32 20c2.48 0 4.76-.83 6.6-2.21l.02.02A88.72 88.72 0 0 0 49.2 82.7a87.71 87.71 0 0 1-14.34-47.97Z"></path>
  <path fill="#086d40" fill-rule="nonzero" d="M56.92 34.73H34.87A87.72 87.72 0 0 0 49.2 82.68 87.67 87.67 0 0 0 60.68 56.8l.02-.02s-2.3-5.57-3.17-12.2c-.7-5.45-.61-9.85-.61-9.85Z"></path>
  <path fill="#ed1b2d" fill-rule="nonzero" d="m86.1 89.38.02-.03A66.3 66.3 0 0 1 60.79 56.8l-.01-.02h-.08l-.02.02A87.55 87.55 0 0 1 49.2 82.68a88.65 88.65 0 0 0 23.95 24.5l.02-.01A11 11 0 1 0 86.1 89.38Z"></path>
  <path fill="#007ba9" fill-rule="nonzero" d="M87.4 34.73H56.92s-.1 4.4.61 9.84c.87 6.64 3.17 12.2 3.17 12.2h26.7a11.02 11.02 0 1 0 0-22.04Z"></path>
  <path fill-rule="nonzero" d="M 599.24 125.23 L 586.84 125.23 L 596.73 101.06 L 575.17 52.1 L 588.81 52.1 L 603.3 87.2 L 616.63 52.1 L 628.93 52.1 L 599.23 125.23 L 599.24 125.23 Z M 319.86 125.23 L 307.46 125.23 L 317.36 101.06 L 295.8 52.1 L 309.44 52.1 L 323.92 87.2 L 337.25 52.1 L 349.55 52.1 L 319.85 125.23 L 319.86 125.23 Z M 290.59 106.58 L 278 106.58 L 278 97.42 C 275.08 102.83 268.1 107.62 260.08 107.62 C 246.43 107.62 236.12 97.94 236.12 80.22 L 236.12 79.4 C 236.12 62 246.43 50.96 260.6 50.96 C 269.45 50.96 274.98 55.02 278 60.44 L 278 26.89 L 290.6 26.89 L 290.6 106.59 L 290.59 106.58 Z M 569.96 106.58 L 557.36 106.58 L 557.36 97.42 C 554.44 102.83 547.46 107.62 539.44 107.62 C 525.79 107.62 515.48 97.94 515.48 80.22 L 515.48 79.4 C 515.48 62 525.79 50.96 539.96 50.96 C 548.81 50.96 554.34 55.02 557.36 60.44 L 557.36 26.89 L 569.96 26.89 L 569.96 106.59 L 569.96 106.58 Z M 698.5 71.38 L 686.31 71.38 C 685.27 64.08 680.48 61.06 673.81 61.06 C 665.17 61.06 659.02 67.73 659.02 78.98 L 659.02 79.82 C 659.02 91.69 664.85 97.94 674.12 97.94 C 680.79 97.94 686.52 93.98 687.25 86.27 L 698.81 86.27 C 697.88 98.77 688.4 107.62 673.61 107.62 C 657.98 107.62 646.11 97.42 646.11 80.02 L 646.11 79.19 C 646.11 61.89 658.39 50.96 673.61 50.96 C 685.69 50.96 697.05 56.37 698.51 71.37 L 698.5 71.38 Z M 508.3 106.58 L 495.69 106.58 L 495.69 98.05 C 492.99 103.35 487.25 107.62 478.39 107.62 C 467.67 107.62 459.65 101.48 459.65 87 L 459.65 52.1 L 472.25 52.1 L 472.25 85.55 C 472.25 93.77 475.69 97.52 482.98 97.52 C 489.75 97.52 495.68 93.15 495.68 84.5 L 495.68 52.1 L 508.3 52.1 L 508.3 106.58 Z M 229.45 106.58 L 216.85 106.58 L 216.85 98.05 C 214.13 103.35 208.4 107.62 199.55 107.62 C 188.82 107.62 180.8 101.48 180.8 87 L 180.8 52.1 L 193.4 52.1 L 193.4 85.55 C 193.4 93.77 196.84 97.52 204.13 97.52 C 210.9 97.52 216.84 93.15 216.84 84.5 L 216.84 52.1 L 229.44 52.1 L 229.44 106.58 L 229.45 106.58 Z M 625.69 99.18 C 625.668 94.627 629.367 90.932 633.92 90.96 C 638.511 90.887 642.267 94.598 642.25 99.19 C 642.25 103.77 638.6 107.32 633.92 107.32 C 629.384 107.393 625.673 103.727 625.69 99.19 L 625.69 99.18 Z M 414.65 106.58 L 402.05 106.58 L 402.05 52.1 L 414.65 52.1 L 414.65 60.75 C 417.25 55.44 423.3 50.95 432.25 50.95 C 443.19 50.95 450.9 57.31 450.9 72.31 L 450.9 106.58 L 438.3 106.58 L 438.3 73.46 C 438.3 65.23 434.96 61.48 427.46 61.48 C 420.38 61.48 414.65 65.85 414.65 74.5 L 414.65 106.58 Z M 745.9 106.58 L 699.23 106.58 L 699.23 105.13 L 728.09 62.1 L 702.04 62.1 L 702.04 52.1 L 746.73 52.1 L 746.73 53.87 L 717.98 96.48 L 745.9 96.48 L 745.9 106.58 Z M 395.8 106.58 L 349.13 106.58 L 349.13 105.13 L 377.98 62.1 L 351.94 62.1 L 351.94 52.1 L 396.63 52.1 L 396.63 53.87 L 367.88 96.48 L 395.8 96.48 L 395.8 106.58 Z M 143.4 106.58 L 130.8 106.58 L 130.8 26.9 L 143.4 26.9 L 143.4 76.07 L 162.88 52.11 L 176.63 52.11 L 155.49 77.11 L 178.4 106.59 L 163.82 106.59 L 143.4 79.82 L 143.4 106.58 Z M 278.4 79.6 L 278.4 78.77 C 278.4 66.79 272.88 60.85 263.72 60.85 C 254.44 60.85 249.02 67.31 249.02 79.08 L 249.02 79.92 C 249.02 91.9 255.07 97.62 263.2 97.62 C 271.94 97.62 278.4 91.8 278.4 79.6 Z M 557.78 79.6 L 557.78 78.77 C 557.78 66.79 552.25 60.85 543.08 60.85 C 533.81 60.85 528.4 67.31 528.4 79.08 L 528.4 79.92 C 528.4 91.9 534.44 97.62 542.56 97.62 C 551.32 97.62 557.78 91.8 557.78 79.6 Z" style="fill: rgb(255, 255, 255);"></path>
</svg>