<svg xmlns="http://www.w3.org/2000/svg" fill="none" viewBox="0 0 148 40" class="logo">
  <g class="logo-image">
    <path fill="#fff" fill-rule="evenodd" d="M4.5 22.8c-1.9.5-3.9-.6-4.4-2.5-.5-2 .6-3.9 2.6-4.4L6 15l-1-3.4c-.4-1.9.7-3.8 2.6-4.3 2-.5 4 .6 4.4 2.5l1 3.4 1.8 7-10.4 2.7ZM32 17.4a5 5 0 1 1 2.6 9.8l-4.9 1.4 1.4 4.9a5.1 5.1 0 0 1-9.9 2.6l-1.3-5-2.7-9.7 14.8-4Zm-16.3 21a4 4 0 0 0 2.8-5l-3.1-11.6L7.6 24l-3.9 1a4 4 0 1 0 2.1 7.8l3.9-1 1 3.8a4 4 0 0 0 5 2.8Z" clip-rule="evenodd"/>
    <path fill="#fff" fill-rule="evenodd" d="M4.5 22.8c-1.9.5-3.9-.6-4.4-2.5-.5-2 .6-3.9 2.6-4.4L6 15l-1-3.4c-.4-1.9.7-3.8 2.6-4.3 2-.5 4 .6 4.4 2.5l1 3.4 1.8 7-10.4 2.7ZM32 17.4a5 5 0 1 1 2.6 9.8l-4.9 1.4 1.4 4.9a5.1 5.1 0 0 1-9.9 2.6l-1.3-5-2.7-9.7 14.8-4Zm-16.3 21a4 4 0 0 0 2.8-5l-3.1-11.6L7.6 24l-3.9 1a4 4 0 1 0 2.1 7.8l3.9-1 1 3.8a4 4 0 0 0 5 2.8ZM24.3 3.3l.2 1.7v.8l1-.2v-.7a.7.7 0 0 1 1.4.2v.1l1.5-.4.1-.7a.7.7 0 0 1 1.3.2v.2a6.8 6.8 0 0 1 7.6 5c.7 2.3-.8 4.8-3.2 5.4l-17.5 4.7-3.8-13.8c-.5-1.9.6-3.8 2.5-4.3L20 .3c2-.5 4.2.9 4.4 3Zm3.3 11.6-1.7.5v-.1a.7.7 0 0 0-1.3-.4l-.2.9-1.2.3a.7.7 0 0 0-1.3-.4l-.2.8-1.5.4v-.1a.7.7 0 0 0-1.3-.4l-.2.9-.8.2-3.3-12.2c-.2-1 .3-1.9 1.3-2.1L20.4 2c1-.3 2 .4 2.2 1.5l.2 1.7v.4l-.4 2.6 2.5-.7h.4l-.1.7c-.1.3.2.7.5.7.4 0 .7-.2.7-.5l.2-1.3 1.6-.4-.1.7c0 .4.2.7.5.7.4 0 .7-.2.8-.5l.1-1.3a5 5 0 0 1 6.2 3.6c.3 1 0 2.1-.9 2.8 0-.3-.1-.6-.4-.7a.7.7 0 0 0-.9.5l-.2.9-1.3.3v-.1a.7.7 0 0 0-1.3-.4l-.1 1-1.5.3v-.2a.7.7 0 0 0-1.3-.4l-.2 1Z" clip-rule="evenodd"/>
    <path fill="#fff" fill-rule="evenodd" d="m24.3 3.3.2 1.7v.8l1-.2v-.7a.7.7 0 0 1 1.4.2v.1l1.5-.4.1-.7a.7.7 0 0 1 1.3.2v.2a6.8 6.8 0 0 1 7.6 5c.7 2.3-.8 4.8-3.2 5.4l-17.5 4.7-3.8-13.8c-.5-1.9.6-3.8 2.5-4.3L20 .3c2-.5 4.2.9 4.4 3Zm3.3 11.6-1.7.5v-.1a.7.7 0 0 0-1.3-.4l-.2.9-1.2.3a.7.7 0 0 0-1.3-.4l-.2.8-1.5.4v-.1a.7.7 0 0 0-1.3-.4l-.2.9-.8.2-3.3-12.2c-.2-1 .3-1.9 1.3-2.1L20.4 2c1-.3 2 .4 2.2 1.5l.2 1.7v.4l-.4 2.6 2.5-.7h.4l-.1.7c-.1.3.2.7.5.7.4 0 .7-.2.7-.5l.2-1.3 1.6-.4-.1.7c0 .4.2.7.5.7.4 0 .7-.2.8-.5l.1-1.3a5 5 0 0 1 6.2 3.6c.3 1 0 2.1-.9 2.8 0-.3-.1-.6-.4-.7a.7.7 0 0 0-.9.5l-.2.9-1.3.3v-.1a.7.7 0 0 0-1.3-.4l-.1 1-1.5.3v-.2a.7.7 0 0 0-1.3-.4l-.2 1Z" clip-rule="evenodd"/>
  </g>
  <path class="logo-text" fill="#fff" d="M52.8 3.7c.7 0 1.4.2 2 .6.5.3 1 .8 1.3 1.5.3.6.5 1.4.5 2.2 0 1.2-.4 2.2-1 3-.7.7-1.6 1-2.7 1h-1.5v5.5l-.2.2h-2.6l-.1-.2V3.8h4.2Zm-.5 6.2c.4 0 .8-.2 1-.5.3-.3.4-.8.4-1.4 0-.5-.1-1-.4-1.3-.2-.4-.6-.5-1-.5h-.9v3.6h1ZM63.4 17.8c-.2 0-.3-.1-.3-.2L61.6 12H60.7v5.5l-.1.2h-2.7V3.8h4.2a3.4 3.4 0 0 1 3.3 2c.3.6.5 1.3.5 2.2 0 .8-.1 1.4-.5 2-.3.6-.7 1.1-1.2 1.5l1.8 6c0 .2 0 .3-.2.3h-2.4ZM60.8 6.2h-.1v3.5h1c.4 0 .7 0 1-.4.2-.3.4-.8.4-1.3 0-.6-.2-1-.4-1.3-.3-.4-.6-.5-1-.5h-1ZM71.1 18a4 4 0 0 1-3-1.2 3.9 3.9 0 0 1-1-2.8V7.5c0-1.2.3-2.1 1-2.8a4 4 0 0 1 3-1.1 4 4 0 0 1 3 1c.7.8 1.1 1.7 1.1 3V14c0 1.2-.4 2.1-1.1 2.8a4 4 0 0 1-3 1.1Zm0-2.5c.4 0 .7-.1 1-.4.2-.2.3-.6.3-1V7.4c0-.4-.1-.7-.4-1-.2-.3-.5-.4-.9-.4-.3 0-.6.1-.9.4-.2.3-.3.6-.3 1v6.7c0 .4.1.8.3 1 .3.3.6.4 1 .4ZM79.4 17.8c-.1 0-.2-.1-.2-.3L76.3 4c0-.2 0-.3.2-.3h2.6c.2 0 .3.1.3.3l1.4 8.8L82.3 4c0-.2.1-.3.3-.3H85c.2 0 .2.1.2.3l-2.9 13.5c0 .2-.1.3-.3.3h-2.6ZM90 18a4 4 0 0 1-2.9-1.2A3.9 3.9 0 0 1 86 14V7.5c0-1.2.4-2.1 1.1-2.8a4 4 0 0 1 3-1.1 4 4 0 0 1 2.9 1c.7.8 1.1 1.7 1.1 3V14c0 1.2-.4 2.1-1.1 2.8a4 4 0 0 1-3 1.1Zm0-2.5c.4 0 .7-.1 1-.4.2-.2.3-.6.3-1V7.4c0-.4-.1-.7-.3-1-.3-.3-.6-.4-1-.4-.3 0-.6.1-.9.4-.2.3-.3.6-.3 1v6.7c0 .4.1.8.3 1 .3.3.6.4 1 .4ZM96 17.8h-.3v-14H99.6a4 4 0 0 1 2.9 1c.7.7 1 1.6 1 2.8V14c0 1.2-.3 2.1-1 2.8a4 4 0 0 1-3 1H96Zm2.5-2.6.1.1h1c.3 0 .6-.1.8-.4l.4-1.2V7.8c0-.5-.2-1-.4-1.2-.2-.3-.5-.4-1-.4h-.8v9ZM105.5 17.8h-.2v-14h2.7V17.7h-2.5Zm0-15.3h-.2v-.3l1.2-2 .3-.2h2l.1.1v.2l-1.6 2-.3.2h-1.5ZM115.6 4v-.2h2.7V17.7H115.5l-.3-.1-2.5-7.8v7.7l-.1.2h-2.7V3.8H112.7l.3.1 2.5 7.8V4ZM123.8 18c-.8 0-1.5-.2-2-.5-.7-.3-1.1-.8-1.5-1.3-.3-.6-.4-1.2-.4-2v-.7h2.7V14.1c0 .4.2.8.4 1 .2.3.5.4.8.4.3 0 .6-.1.8-.4.2-.2.3-.5.3-.9s-.1-.7-.4-1l-1.6-1.3-1.6-1.3a5 5 0 0 1-1-1.4 4 4 0 0 1-.5-1.9c0-1.1.4-2 1-2.7.8-.7 1.7-1 2.9-1 1.1 0 2 .3 2.8 1 .7.7 1 1.7 1 2.8v.7h-2.6l-.1-.2v-.5c0-.5-.1-.8-.3-1a1 1 0 0 0-.8-.4 1 1 0 0 0-.8.4c-.2.2-.3.5-.3 1 0 .3.1.7.4 1l1.5 1.3c.8.6 1.4 1 1.8 1.5.5.3.8.8 1 1.2.3.5.4 1 .4 1.7 0 1.2-.4 2-1.1 2.8a4 4 0 0 1-2.8 1ZM129.3 17.8h-.2v-14h2.7V9l.1.1h.1l2.6-5.2c0-.1.1-.2.3-.2h2.5l.1.1V4l-3 5.8v.1l3.2 7.6v.1c0 .1 0 .2-.2.2H135c-.1 0-.2 0-.3-.2l-2-5.3h-.2l-.6 1v4.2l-.1.2h-2.5ZM145 17.8c-.2 0-.3-.1-.3-.3l-.3-1.9H141.6l-.3 2s-.1.2-.3.2h-2.3c-.2 0-.3-.1-.2-.3l3-13.5c0-.2 0-.3.2-.3h2.7c.1 0 .2.1.2.3l3 13.5c0 .2 0 .3-.2.3H145Zm-3-4.6v.1h1.9l-.9-5.5v-.1h-.1l-1 5.5Zm0-10.7h-.3v-.3l1.2-2 .3-.2h1.9l.2.1v.2l-1.6 2-.3.2H142ZM52.1 39.7c-.7 0-1.4-.1-2-.4-.6-.3-1-.7-1.4-1.3-.3-.6-.5-1.2-.5-2v-.5l.1-.2h2.6l.1.2v.4c0 .5.1.8.3 1 .3.3.5.4.9.4.3 0 .5-.1.8-.3.2-.3.3-.6.3-1s-.2-.7-.4-1l-1.6-1.3-1.6-1.3a5 5 0 0 1-1-1.4 4 4 0 0 1-.5-1.9c0-1.1.3-2 1-2.7.8-.7 1.7-1 2.9-1 1.1 0 2 .3 2.8 1 .7.8 1 1.7 1 2.8v.7h-2.7v-.7c0-.4-.1-.8-.3-1a1 1 0 0 0-.8-.4 1 1 0 0 0-.8.4c-.2.2-.3.5-.3 1 0 .3 0 .7.3 1l1.6 1.3 1.8 1.5c.4.4.8.8 1 1.3.2.4.4 1 .4 1.6 0 1.2-.4 2.1-1.1 2.8a4 4 0 0 1-2.9 1Zm-2.8-17.6V22l.1-.2h1.8c.1 0 .2 0 .3.2l.6 1.1.7-1.1.3-.2h1.7l.2.1v.2l-1.3 2c0 .2-.2.2-.3.2h-2.6l-.3-.1-1.2-2.1ZM65.1 25.5l.2.1V28h-2.7l-.1.2V39.5h-2.8V28.1l-.1-.1H57v-2.3c0-.1 0-.2.2-.2H65ZM72.2 39.6c-.1 0-.2 0-.3-.2l-1.5-5.5v-.1h-.8v5.5l-.2.2h-2.6l-.1-.2V25.6H71c.8 0 1.5.1 2 .5.6.3 1 .8 1.4 1.5.3.6.5 1.4.5 2.2 0 .8-.2 1.5-.5 2-.3.7-.7 1.1-1.2 1.5H73l1.8 6c0 .2 0 .3-.2.3h-2.4ZM69.6 28v3.6h1c.3 0 .7-.2 1-.5.2-.3.3-.8.3-1.3 0-.6-.1-1-.4-1.3-.2-.4-.6-.5-1-.5h-.9ZM82.1 39.6c-.1 0-.2 0-.2-.2l-.4-2h-2.7l-.4 2c0 .1 0 .2-.2.2h-2.4c-.1 0-.2-.1-.2-.3l3-13.5c0-.2 0-.3.2-.3h2.7c.2 0 .3.1.3.3l3 13.5v.1c0 .1-.1.2-.3.2h-2.4Zm-3-4.5h2l-1-5.5-1 5.5ZM90.2 25.5c.7 0 1.4.2 2 .6.5.3 1 .8 1.3 1.5.3.6.4 1.4.4 2.2 0 1.2-.3 2.2-1 3-.6.7-1.5 1.1-2.6 1.1h-1.5V39.3l-.2.2H86V25.6h4.2Zm-.5 6.2c.4 0 .8-.2 1-.5.3-.3.4-.8.4-1.3 0-.6-.1-1-.4-1.4-.2-.4-.6-.5-1-.5h-.9v3.7h.9ZM100.4 39.6c-.1 0-.2 0-.2-.2l-.3-2H97l-.3 2-.3.2H94c-.1 0-.2-.1-.2-.3l3-13.5c0-.2.1-.3.3-.3h2.7c.1 0 .2.1.2.3l3 13.5v.1c0 .1-.1.2-.3.2h-2.4Zm-3-4.5h2l-1-5.5-1 5.5ZM110 25.8v-.2h2.7V39.5H109.9l-.3-.1-2.5-7.8v7.7l-.2.2h-2.6V25.6H107l.2.1 2.6 7.8v-7.7ZM114.8 39.6h-.2v-14H118.4a4 4 0 0 1 3 1c.7.7 1 1.7 1 2.8v6.3c0 1.2-.3 2.1-1 2.8a4 4 0 0 1-3 1h-3.6Zm2.5-2.5h1.1c.3 0 .6-.1.8-.4.3-.3.4-.7.4-1.2v-5.9c0-.5-.1-.9-.3-1.2-.3-.3-.6-.4-1-.4h-.9v9ZM129.6 39.6c-.2 0-.3 0-.3-.2l-.3-2H126.2l-.3 2c0 .1-.1.2-.3.2h-2.3c-.2 0-.3-.1-.2-.3l3-13.5c0-.2 0-.3.2-.3h2.7c.1 0 .2.1.2.3l3 13.5v.1c0 .1 0 .2-.2.2h-2.4Zm-3-4.5h1.9l-.9-5.5h-.1l-1 5.5Z"/>
</svg>
