<svg xmlns="http://www.w3.org/2000/svg" class="logo-kct" fill="none" viewBox="0 0 293 99">
  <path fill="#65A603" fill-rule="evenodd" d="M11.2 56.4a8.8 8.8 0 1 1-4.6-17l8.6-2.3-2.3-8.5A8.9 8.9 0 0 1 30 24l2.3 8.5 4.6 17-25.7 7Zm68-13.3a12.6 12.6 0 1 1 6.6 24.3l-12.2 3.3L77 82.8a12.7 12.7 0 0 1-24.5 6.5l-3.2-12.1-6.6-24.3L79.3 43ZM38.9 94.9a9.9 9.9 0 0 0 7-12.1L38.1 54l-19.2 5.1-9.7 2.6a9.9 9.9 0 1 0 5.2 19.1l9.6-2.6 2.6 9.6a10 10 0 0 0 12.2 7Z" clip-rule="evenodd"/>
  <path fill="#65A603" fill-rule="evenodd" d="M11.2 56.4a8.8 8.8 0 1 1-4.6-17l8.6-2.3-2.3-8.5A8.9 8.9 0 0 1 30 24l2.3 8.5 4.6 17-25.7 7Zm68-13.3a12.6 12.6 0 1 1 6.6 24.3l-12.2 3.3L77 82.8a12.7 12.7 0 0 1-24.5 6.5l-3.2-12.1-6.6-24.3L79.3 43ZM38.9 94.9a9.9 9.9 0 0 0 7-12.1L38.1 54l-19.2 5.1-9.7 2.6a9.9 9.9 0 1 0 5.2 19.1l9.6-2.6 2.6 9.6a10 10 0 0 0 12.2 7Z" clip-rule="evenodd"/>
  <path fill="#A66617" fill-rule="evenodd" d="m60.1 8.1.5 4.3v2l2.5-.6.2-1.7a1.6 1.6 0 0 1 3.3.5v.3l3.7-1 .3-1.7a1.6 1.6 0 0 1 3.2.4v.5a16.9 16.9 0 0 1 18.8 12.2c1.6 6-2 12-8 13.7L41.3 48.6 32 14.3a8.6 8.6 0 0 1 6.1-10.6l11.2-3a8.6 8.6 0 0 1 10.8 7.4Zm8.2 28.8L64 38v-.2c.3-.8-.2-1.7-1-2-1-.2-1.8.3-2 1.1l-.7 2.1-3 .8v-.2c.3-.8-.2-1.7-1-2-1-.2-1.9.3-2.1 1.1l-.6 2-3.7 1v-.2c.3-.9-.2-1.8-1-2-.9-.3-1.8.2-2 1l-.7 2.3-2 .5-8.1-30.1c-.6-2.3.7-4.7 3-5.3l11.2-3c2.6-.7 5.1 1 5.4 3.7l.5 4.3v1l-.7 6.4 6.1-1.7.8-.2-.3 1.9c0 .9.6 1.7 1.4 1.8 1 .1 1.7-.5 1.9-1.4l.4-3.2 3.8-1-.2 1.8c-.2 1 .5 1.7 1.4 1.9.8 0 1.7-.5 1.8-1.4l.4-3.2a12.5 12.5 0 0 1 15.4 8.8c.7 2.7-.3 5.4-2.3 7 0-.7-.4-1.4-1.2-1.7-.8-.2-1.7.3-2 1.1l-.6 2.4-3.1.8.1-.4c.3-.9-.2-1.8-1.1-2-.9-.3-1.8.2-2 1l-.7 2.3-3.7 1 .2-.5c.2-.9-.3-1.8-1.1-2-.9-.3-1.8.2-2 1l-.7 2.5Z" clip-rule="evenodd"/>
  <path fill="#A66617" fill-rule="evenodd" d="m60.1 8.1.5 4.3v2l2.5-.6.2-1.7a1.6 1.6 0 0 1 3.3.5v.3l3.7-1 .3-1.7a1.6 1.6 0 0 1 3.2.4v.5a16.9 16.9 0 0 1 18.8 12.2c1.6 6-2 12-8 13.7L41.3 48.6 32 14.3a8.6 8.6 0 0 1 6.1-10.6l11.2-3a8.6 8.6 0 0 1 10.8 7.4Zm8.2 28.8L64 38v-.2c.3-.8-.2-1.7-1-2-1-.2-1.8.3-2 1.1l-.7 2.1-3 .8v-.2c.3-.8-.2-1.7-1-2-1-.2-1.9.3-2.1 1.1l-.6 2-3.7 1v-.2c.3-.9-.2-1.8-1-2-.9-.3-1.8.2-2 1l-.7 2.3-2 .5-8.1-30.1c-.6-2.3.7-4.7 3-5.3l11.2-3c2.6-.7 5.1 1 5.4 3.7l.5 4.3v1l-.7 6.4 6.1-1.7.8-.2-.3 1.9c0 .9.6 1.7 1.4 1.8 1 .1 1.7-.5 1.9-1.4l.4-3.2 3.8-1-.2 1.8c-.2 1 .5 1.7 1.4 1.9.8 0 1.7-.5 1.8-1.4l.4-3.2a12.5 12.5 0 0 1 15.4 8.8c.7 2.7-.3 5.4-2.3 7 0-.7-.4-1.4-1.2-1.7-.8-.2-1.7.3-2 1.1l-.6 2.4-3.1.8.1-.4c.3-.9-.2-1.8-1.1-2-.9-.3-1.8.2-2 1l-.7 2.3-3.7 1 .2-.5c.2-.9-.3-1.8-1.1-2-.9-.3-1.8.2-2 1l-.7 2.5Z" clip-rule="evenodd"/>
  <path fill="#fff" d="M119.6 44.2c-.1 0-.3 0-.4-.2a.7.7 0 0 1-.2-.4V9.9l.2-.4c.1-.2.3-.2.4-.2h5.9c.2 0 .3 0 .4.2l.2.4v12.8c.2 0 .3 0 .3-.2l6.4-12.8c.2-.3.4-.4.7-.4h6.2c.3 0 .4 0 .5.2v.5l-7.4 14.3v.3l7.8 18.9v.3c0 .2-.1.4-.5.4H134c-.4 0-.6-.2-.7-.5l-5.2-13c0-.1 0-.2-.2-.1h-.2l-1.4 2.7-.1.3v10c0 .1 0 .3-.2.4l-.4.2h-5.9ZM152 44.6c-3 0-5.5-.9-7.3-2.7a9.7 9.7 0 0 1-2.7-7.1V18.6c0-3 1-5.3 2.7-7a10 10 0 0 1 7.2-2.7c3 0 5.5.9 7.3 2.6a9.4 9.4 0 0 1 2.7 7.1v.5c0 .2 0 .4-.2.5l-.4.1-5.8.3c-.4 0-.6-.2-.6-.6v-1.3c0-1-.3-1.7-.8-2.3-.5-.6-1.3-.9-2.2-.9-.8 0-1.5.3-2 1-.6.5-.9 1.3-.9 2.2v17.3c0 1 .3 1.7.8 2.3.6.6 1.3.8 2.1.8 1 0 1.7-.2 2.2-.8.5-.6.8-1.4.8-2.3V34l.1-.4.5-.2 5.8.3c.2 0 .3 0 .4.2.2 0 .2.2.2.4v.5c0 3-.9 5.3-2.7 7.1a10 10 0 0 1-7.3 2.7ZM145 .7a2 2 0 0 1 0-.4c0-.2.1-.3.5-.3h4.3c.4 0 .6.1.7.4l1.5 2.8c.1.2.2.2.3 0l1.5-2.8c.2-.3.4-.4.7-.4h4.4c.3 0 .4 0 .5.2v.5L156 5.9c-.1.2-.4.4-.7.4H149c-.3 0-.6-.2-.7-.4L145.1.7ZM185 9.3c.2 0 .3 0 .4.2.2 0 .2.2.2.4v4.8c0 .2 0 .3-.2.5l-.4.1h-6.2c-.2 0-.2 0-.2.3v28l-.2.4-.4.2H172c-.2 0-.3 0-.4-.2a.7.7 0 0 1-.2-.4v-28c0-.2 0-.3-.2-.3h-6l-.5-.1a.7.7 0 0 1-.1-.5V10l.1-.4c.2-.2.3-.2.5-.2H185ZM129.7 62.6a8.7 8.7 0 0 1 8.2 5.1 12 12 0 0 1 1.2 5.6c0 3-.9 5.5-2.5 7.4a8.4 8.4 0 0 1-6.6 2.8h-3.7c-.2 0-.3 0-.3.2V97c0 .2 0 .3-.2.5l-.4.1h-5.8l-.4-.1a.7.7 0 0 1-.2-.5V63.2c0-.1 0-.3.2-.4l.4-.2h10ZM128.5 78c1 0 1.9-.4 2.5-1.2.7-.8 1-2 1-3.4s-.3-2.6-1-3.4a3 3 0 0 0-2.5-1.3h-2.2c-.2 0-.3.1-.3.3v8.8c0 .1.1.2.3.2h2.2ZM156 97.6c-.3 0-.6-.2-.7-.5l-3.8-13.8-.3-.2h-1.6c-.2 0-.3.1-.3.3V97c0 .2 0 .3-.2.5l-.4.1h-5.8l-.5-.1a.7.7 0 0 1-.1-.5V63.3l.1-.4.5-.2h10a9 9 0 0 1 5 1.3c1.4 1 2.5 2.1 3.2 3.7a12 12 0 0 1 1.2 5.5c0 2-.3 3.7-1.1 5.2a8.3 8.3 0 0 1-3.1 3.5l-.2.1v.2l4.6 14.7v.2c0 .3-.1.5-.5.5h-6Zm-6.4-28.9c-.2 0-.3.1-.3.3v8.5c0 .2 0 .3.3.3h2.2a3 3 0 0 0 2.5-1.2c.7-.9 1-2 1-3.3a5 5 0 0 0-1-3.3 3 3 0 0 0-2.5-1.3h-2.2ZM175.4 98c-3.1 0-5.6-.9-7.4-2.7a9.6 9.6 0 0 1-2.7-7.2v-16c0-3 .9-5.3 2.7-7.1a10 10 0 0 1 7.4-2.7c3 0 5.5.9 7.3 2.7a9.5 9.5 0 0 1 2.8 7.2v16c0 3-1 5.3-2.8 7.1a10 10 0 0 1-7.3 2.7Zm0-6c.9 0 1.6-.3 2.2-1 .6-.6.8-1.5.8-2.6V72c0-1-.2-2-.8-2.6-.6-.6-1.3-1-2.2-1-1 0-1.7.4-2.3 1-.5.7-.8 1.5-.8 2.6v16.5c0 1 .3 2 .8 2.6.6.7 1.3 1 2.3 1ZM196 97.6c-.3 0-.5-.2-.6-.5l-7.1-33.8v-.2c0-.3.1-.4.5-.4h6.4c.4 0 .6.2.7.5l3.4 22c0 .1 0 .2.2.2l.1-.2 3.3-22c0-.3.3-.5.7-.5h6.2c.5 0 .6.2.5.6l-7.2 33.8c0 .3-.2.5-.6.5h-6.4ZM222.5 98c-3.1 0-5.6-.9-7.4-2.7a9.6 9.6 0 0 1-2.7-7.2v-16c0-3 .9-5.3 2.7-7.1a10 10 0 0 1 7.4-2.7c3 0 5.5.9 7.3 2.7a9.5 9.5 0 0 1 2.8 7.2v16c0 3-1 5.3-2.8 7.1a10 10 0 0 1-7.3 2.7Zm0-6c.9 0 1.6-.3 2.2-1 .6-.6.9-1.5.9-2.6V72c0-1-.3-2-.9-2.6-.6-.6-1.3-1-2.2-1-1 0-1.7.4-2.3 1-.5.7-.8 1.5-.8 2.6v16.5c0 1 .3 2 .8 2.6.6.7 1.3 1 2.3 1ZM237 97.6l-.4-.1a.7.7 0 0 1-.1-.5V63.3l.1-.4.5-.2h9c3 0 5.5.9 7.3 2.6a9.3 9.3 0 0 1 2.7 7V88c0 3-.9 5.3-2.7 7a10 10 0 0 1-7.3 2.7h-9Zm6.5-6.3c0 .2.1.3.3.3h2.2c1-.1 1.6-.5 2.2-1.2.6-.8.9-1.7 1-3V72.9c0-1.2-.4-2.2-1-3a2.8 2.8 0 0 0-2.2-1h-2.2c-.2 0-.3 0-.3.2v22.3ZM260.8 97.6l-.4-.1a.7.7 0 0 1-.2-.5V63.3c0-.2 0-.3.2-.4l.4-.2h5.9c.1 0 .3 0 .4.2l.2.4V97l-.2.5-.4.1h-5.9Zm.2-38c-.2 0-.4 0-.5-.2V59l3-5c.1-.3.4-.5.8-.5h4.6c.3 0 .5.1.5.4l-.1.4-3.9 5c-.2.3-.4.4-.7.4H261ZM286 63.3c0-.2 0-.3.2-.4l.4-.2h5.8c.2 0 .3 0 .4.2l.2.4V97c0 .2 0 .3-.2.5l-.4.1h-6.6c-.3 0-.5-.2-.6-.5L279 77.8s-.1-.1-.2 0h-.1V97c0 .2 0 .3-.2.5l-.4.1h-5.8l-.4-.1a.7.7 0 0 1-.2-.5V63.3c0-.2 0-.3.2-.4l.4-.2h6.6c.3 0 .5.2.6.5l6.3 19.3.1.1c.1 0 .2 0 .2-.2V63.3Z"/>
</svg>
